<?xml version="1.0" standalone="no"?>
<!DOCTYPE svg PUBLIC "-//W3C//DTD SVG 20010904//EN"
 "http://www.w3.org/TR/2001/REC-SVG-20010904/DTD/svg10.dtd">
<svg version="1.0" xmlns="http://www.w3.org/2000/svg"
 width="866.000000pt" height="650.000000pt" viewBox="0 0 866.000000 650.000000"
 preserveAspectRatio="xMidYMid meet">

<g transform="translate(0.000000,650.000000) scale(0.100000,-0.100000)"
fill="#000000" stroke="none">
<path d="M4110 5524 c-157 -20 -355 -103 -470 -197 -161 -131 -280 -329 -304
-502 -3 -27 -9 -67 -12 -87 -3 -22 -2 -38 4 -38 5 0 13 26 17 58 27 216 162
441 339 566 108 76 112 74 12 -9 -33 -27 -78 -75 -101 -107 -24 -31 -45 -55
-48 -52 -8 8 -98 -152 -114 -204 -9 -27 -16 -96 -18 -163 -3 -110 -5 -118 -30
-145 -41 -45 -55 -77 -75 -184 -35 -183 -72 -303 -165 -535 -307 -764 -608
-1365 -860 -1719 -142 -200 -331 -371 -424 -383 -38 -5 -41 -4 -41 18 0 32
-26 69 -49 69 -26 0 -41 -20 -41 -56 0 -70 93 -86 196 -34 121 60 336 254 478
433 l78 97 28 -43 c53 -84 171 -157 310 -193 140 -36 356 -13 477 50 l48 26
-70 -8 c-38 -4 -140 -7 -225 -6 -141 1 -163 3 -240 28 -100 33 -188 80 -250
135 -44 38 -45 40 -30 65 48 83 245 358 272 382 44 37 124 71 184 78 l49 6
-52 -15 c-61 -17 -124 -47 -141 -67 -6 -8 14 -2 46 14 77 38 162 51 227 35 74
-18 78 -32 64 -214 -12 -162 -7 -248 16 -293 33 -63 129 -110 229 -110 l51 0
-85 -36 c-143 -60 -212 -83 -290 -95 -84 -14 -370 -18 -412 -6 -16 4 -28 3
-28 -2 0 -11 36 -18 180 -32 155 -15 267 -6 382 31 87 27 244 107 258 131 4 5
33 17 66 25 32 9 81 27 107 40 26 13 45 19 42 14 -3 -6 0 -10 7 -10 10 0 10
-2 -1 -9 -8 -5 -20 -7 -27 -4 -8 3 -48 -30 -92 -74 -113 -112 -182 -235 -207
-368 -3 -16 5 -1 18 35 50 137 104 225 205 331 71 76 104 93 50 27 -63 -78
-53 -73 38 18 182 185 456 322 764 383 243 47 1064 153 1175 150 l20 0 -20 -8
c-11 -5 -54 -11 -95 -15 -381 -35 -953 -116 -1096 -156 -200 -56 -408 -167
-597 -319 -158 -128 -247 -251 -329 -454 l-53 -132 1 -145 c0 -92 5 -154 12
-170 12 -24 12 -23 7 10 -20 126 -15 257 16 363 17 60 18 40 4 -43 -27 -148
-14 -313 35 -443 25 -66 99 -181 161 -247 l41 -45 -27 40 c-16 22 -39 52 -53
67 -13 14 -21 31 -17 37 3 7 1 10 -6 9 -18 -4 -76 95 -98 167 -25 81 -43 236
-36 305 10 90 26 164 41 185 18 25 18 17 -2 -36 -22 -62 -29 -222 -15 -314 18
-111 91 -309 107 -292 3 3 -6 27 -20 55 -61 120 -89 327 -67 482 19 126 45
196 110 297 33 51 55 92 48 90 -23 -4 -128 -172 -148 -237 l-7 -25 -1 24 c-2
52 116 238 225 356 43 46 44 47 19 10 l-28 -40 41 39 c23 22 39 42 37 46 -2 4
10 17 28 30 18 13 48 35 66 49 19 14 31 20 27 13 -4 -7 -26 -27 -48 -43 -23
-16 -36 -29 -29 -29 7 0 9 -5 6 -10 -4 -6 -16 -8 -28 -5 -12 2 -16 2 -8 -1 9
-5 -6 -26 -50 -70 -34 -35 -66 -61 -70 -58 -4 2 -11 -1 -15 -7 -4 -8 -3 -9 4
-5 7 4 12 3 12 -3 0 -5 -4 -13 -10 -16 -5 -3 -10 -1 -10 5 0 6 -4 8 -10 5 -15
-10 -12 -23 5 -21 17 3 207 187 200 194 -2 3 14 18 36 34 22 16 37 33 34 37
-2 5 3 15 13 22 15 13 16 12 3 -3 -20 -26 -9 -22 61 21 35 22 97 54 139 70
170 68 615 159 889 182 74 6 259 29 410 50 151 21 302 41 335 45 33 4 69 11
80 16 17 7 16 8 -5 4 -14 -3 -80 -10 -145 -16 -66 -6 -190 -17 -276 -26 -86
-9 -165 -14 -175 -11 -11 3 -3 5 17 6 96 3 345 42 355 56 9 12 17 13 44 4 42
-15 169 -6 237 17 54 17 125 70 144 106 13 24 7 22 -64 -30 -26 -19 -75 -43
-108 -53 -88 -27 -154 -24 -251 11 -95 35 -92 34 -85 15 7 -16 -5 -19 -158
-35 -209 -23 -647 -81 -820 -110 -358 -60 -496 -106 -780 -261 -207 -112 -289
-143 -390 -143 -81 -1 -132 15 -177 52 -51 43 -68 94 -66 197 l1 90 7 -77 c10
-103 39 -160 98 -195 40 -24 56 -27 126 -26 77 0 138 11 199 35 38 15 29 20
-15 8 -63 -18 -172 -28 -213 -20 -35 7 -31 8 35 10 l75 3 -60 7 c-33 3 -69 12
-80 19 -20 12 -20 12 0 6 39 -13 177 -27 171 -17 -2 4 8 8 23 9 15 1 49 9 77
19 53 18 484 234 466 234 -6 0 -109 -49 -229 -109 -120 -60 -239 -115 -266
-122 -71 -17 -212 -8 -263 18 -22 12 -47 29 -55 39 -10 12 2 9 40 -11 30 -14
77 -29 106 -32 69 -7 158 4 181 23 17 14 17 14 -6 2 -30 -15 -207 -18 -232 -3
-12 7 13 10 85 11 56 0 113 6 127 12 21 10 17 11 -25 4 -166 -24 -241 12 -251
120 l-3 43 8 -38 c20 -94 62 -122 168 -115 38 3 78 10 89 17 16 10 14 10 -11
4 -50 -12 -109 -7 -138 12 -63 41 -61 12 -57 765 3 926 12 1326 27 1341 19 19
23 7 12 -41 -12 -51 4 -355 21 -405 l10 -30 -5 30 c-3 17 -7 75 -10 130 -6 95
-5 98 9 62 7 -21 13 -55 11 -75 -2 -32 -2 -33 4 -7 6 30 7 30 39 -31 66 -121
171 -225 282 -278 58 -28 75 -31 160 -31 81 0 103 4 150 26 58 27 248 145 290
179 l25 21 -35 -17 c-19 -9 -75 -41 -125 -70 -106 -63 -204 -101 -279 -110
-241 -28 -518 249 -532 531 l-4 80 19 -90 c26 -123 54 -194 105 -262 119 -162
273 -236 438 -213 93 13 192 54 273 112 131 96 290 223 335 269 52 53 119 175
156 281 35 99 44 256 20 348 -18 70 -66 158 -106 193 -22 20 -22 19 3 -13 94
-118 127 -279 93 -442 -15 -67 -81 -234 -97 -244 -5 -3 2 21 17 53 40 87 54
140 59 217 5 79 2 71 -22 -57 -8 -48 -18 -85 -21 -82 -3 3 3 50 13 105 17 95
17 103 1 187 -22 113 -44 162 -98 215 -48 48 -134 95 -188 103 l-35 5 34 -11
c46 -14 35 -19 -20 -9 -46 9 -177 6 -187 -4 -3 -3 39 -6 94 -6 130 -1 162 -15
275 -128 48 -48 83 -79 77 -67 -6 11 -17 27 -25 37 -9 10 -11 18 -4 22 12 8
50 -62 50 -90 0 -10 4 -37 10 -59 6 -22 10 -74 9 -115 l-1 -75 -6 80 c-9 117
-34 177 -109 257 -82 86 -143 117 -243 123 l-74 4 57 -9 c62 -10 151 -44 168
-65 5 -6 -12 -1 -38 12 -29 14 -80 27 -132 33 -89 10 -125 6 -43 -5 56 -8 157
-34 151 -40 -2 -2 -26 2 -53 10 -61 19 -151 18 -190 0 -23 -11 -24 -13 -5 -7
47 14 153 8 191 -11 59 -29 151 -127 192 -204 40 -76 58 -162 55 -268 -1 -49
-2 -43 -9 37 -14 172 -46 248 -148 348 -74 74 -113 91 -207 89 l-59 -2 60 -8
c33 -4 76 -14 96 -23 43 -18 139 -92 139 -107 0 -6 -18 5 -40 24 -68 62 -113
79 -215 83 l-90 3 75 -9 c113 -12 179 -41 253 -108 15 -14 27 -22 27 -16 0 5
16 -17 34 -49 45 -79 59 -151 55 -289 -4 -109 -6 -118 -43 -193 -95 -191 -304
-318 -498 -302 -152 13 -255 101 -294 252 l-13 50 5 -50 c12 -109 114 -228
227 -265 l62 -20 -96 3 c-85 2 -104 7 -162 35 -312 154 -455 649 -272 937 73
115 271 283 422 359 87 43 73 29 -27 -28 -180 -103 -344 -257 -396 -370 -47
-105 -57 -341 -19 -449 10 -26 19 -46 21 -44 2 2 -3 24 -13 48 -24 62 -24 260
0 349 21 78 65 153 130 223 l48 52 -46 -58 c-96 -122 -123 -206 -130 -407 l-4
-115 9 115 c12 153 36 224 114 345 36 55 66 95 66 89 0 -6 -19 -40 -42 -75
-22 -35 -52 -88 -66 -117 -30 -67 -52 -208 -50 -327 l1 -90 7 101 c4 55 13
117 19 137 7 20 10 41 6 47 -10 16 33 134 64 177 16 22 37 59 48 84 30 64 79
121 174 200 82 69 174 121 234 134 17 4 -5 -9 -48 -28 -43 -20 -99 -52 -125
-73 -121 -96 -241 -231 -226 -255 3 -6 -5 -23 -19 -37 -35 -38 -78 -127 -71
-149 5 -15 4 -15 -4 -3 -8 11 -11 6 -10 -20 1 -19 -4 -70 -10 -113 -14 -93
-15 -173 -2 -142 5 11 9 48 9 81 1 94 44 248 87 314 62 93 146 191 160 186 8
-3 26 10 41 30 14 20 54 55 87 79 143 101 283 146 446 143 l95 -1 -105 -8
c-168 -12 -261 -40 -371 -110 -67 -43 -179 -146 -179 -164 1 -5 18 8 38 30 20
23 46 47 57 55 11 8 -4 -12 -34 -43 -30 -31 -58 -54 -62 -51 -4 2 -23 -17 -41
-43 -98 -137 -138 -250 -146 -410 -3 -81 -2 -113 7 -113 7 0 11 26 11 78 0
102 28 211 82 315 32 63 63 103 133 172 101 101 182 153 300 192 71 24 96 27
225 27 126 0 154 -3 210 -22 129 -45 255 -154 315 -271 43 -85 56 -150 59
-281 2 -69 0 -114 -4 -100 -6 22 -7 19 -13 -20 -18 -113 -114 -277 -224 -381
-77 -74 -141 -114 -288 -180 -128 -57 -288 -156 -318 -195 -10 -13 -23 -22
-27 -19 -5 3 -11 1 -14 -4 -14 -22 25 -2 63 32 56 51 65 47 13 -6 -40 -41 -55
-67 -29 -50 6 4 15 8 19 8 4 0 33 23 64 50 32 28 85 65 118 83 69 37 218 104
223 99 1 -2 -66 -37 -150 -79 -97 -49 -164 -89 -186 -112 -46 -48 -29 -46 24
3 37 34 134 81 168 81 8 0 7 4 -3 11 -11 8 -8 9 15 5 17 -4 25 -3 18 2 -8 5 6
14 42 26 30 11 52 23 49 27 -3 5 1 6 8 4 8 -3 54 22 103 55 50 34 81 52 70 42
-32 -32 -187 -132 -204 -132 -14 0 -14 -2 -1 -11 12 -8 10 -9 -9 -4 -18 5 -22
4 -16 -6 6 -9 4 -11 -8 -6 -9 3 -17 2 -19 -2 -2 -4 -37 -20 -78 -36 -41 -15
-79 -32 -84 -36 -8 -7 -18 -39 -13 -39 18 1 211 81 265 110 159 86 324 237
400 366 68 116 95 209 100 354 5 145 -8 211 -62 327 -73 153 -182 260 -351
344 -135 67 -229 90 -385 94 -69 2 -141 1 -160 -1z m127 -40 c-3 -3 -12 -4
-19 -1 -8 3 -5 6 6 6 11 1 17 -2 13 -5z m-44 -11 c-7 -2 -19 -2 -25 0 -7 3 -2
5 12 5 14 0 19 -2 13 -5z m-46 -9 c-3 -3 -12 -4 -19 -1 -8 3 -5 6 6 6 11 1 17
-2 13 -5z m386 -11 c-7 -2 -19 -2 -25 0 -7 3 -2 5 12 5 14 0 19 -2 13 -5z m63
-44 c87 -27 78 -33 -11 -8 -50 14 -104 20 -190 21 -84 1 -108 4 -80 9 63 12
209 0 281 -22z m-333 4 c-7 -2 -19 -2 -25 0 -7 3 -2 5 12 5 14 0 19 -2 13 -5z
m-46 -9 c-3 -3 -12 -4 -19 -1 -8 3 -5 6 6 6 11 1 17 -2 13 -5z m-201 -17 c-67
-43 -154 -114 -234 -195 -57 -57 -87 -81 -75 -61 24 42 204 203 267 240 50 28
80 40 42 16z m-216 -83 c-14 -10 -41 -31 -61 -48 -19 -17 -13 -10 14 17 26 26
54 47 60 47 6 0 0 -7 -13 -16z m1080 -79 c13 -14 21 -25 18 -25 -2 0 -15 11
-28 25 -13 14 -21 25 -18 25 2 0 15 -11 28 -25z m-286 -88 c27 -24 45 -47 40
-50 -5 -3 -35 22 -67 55 -64 65 -50 63 27 -5z m365 -31 c83 -170 93 -378 25
-550 -8 -21 -13 -40 -11 -42 11 -11 60 163 70 246 3 31 4 30 5 -10 2 -55 -19
-148 -49 -215 -27 -62 -99 -175 -124 -195 -10 -8 -1 10 22 40 37 51 73 111 73
125 0 3 -6 4 -12 3 -7 -2 -13 3 -12 10 4 48 4 48 15 32 8 -11 9 -6 5 20 -4 22
-3 28 2 16 14 -32 42 123 42 232 0 121 -20 204 -69 299 -21 40 -33 69 -26 63
7 -6 27 -39 44 -74z m-429 -10 c0 10 25 -14 25 -24 0 -4 13 -25 27 -47 48 -71
60 -121 63 -250 l3 -120 -8 115 c-10 159 -45 248 -127 320 -29 26 -35 34 -15
21 17 -13 32 -19 32 -15z m-59 -3 c13 -16 12 -17 -3 -4 -17 13 -22 21 -14 21
2 0 10 -8 17 -17z m169 -108 c16 -29 30 -64 30 -79 0 -14 5 -26 10 -26 6 0 9
-30 8 -72 l-1 -73 -7 65 c-11 97 -45 192 -89 245 -15 18 -15 19 1 6 10 -7 31
-37 48 -66z m39 -369 c-7 -31 -14 -54 -16 -52 -3 3 1 30 8 60 7 31 14 54 16
52 3 -3 -1 -30 -8 -60z m308 42 c-3 -8 -6 -5 -6 6 -1 11 2 17 5 13 3 -3 4 -12
1 -19z m-10 -40 c-3 -8 -6 -5 -6 6 -1 11 2 17 5 13 3 -3 4 -12 1 -19z m-344
-113 c-9 -19 -18 -33 -21 -31 -4 5 26 66 33 66 3 0 -3 -16 -12 -35z m10 -46
c-10 -17 -31 -45 -46 -62 -18 -20 -13 -9 14 31 44 65 63 84 32 31z m-1051
-221 c74 -89 190 -159 295 -177 73 -14 156 -3 265 34 85 29 81 28 72 14 -18
-30 -195 -79 -286 -79 -159 0 -338 112 -411 256 -39 77 -43 105 -7 49 18 -27
50 -71 72 -97z m1288 138 c0 -2 -8 -10 -17 -17 -16 -13 -17 -12 -4 4 13 16 21
21 21 13z m-30 -39 c0 -2 -17 -19 -37 -38 l-38 -34 34 38 c33 34 41 42 41 34z
m10 -20 c0 -1 -24 -25 -52 -52 l-53 -50 50 53 c46 48 55 57 55 49z m-200 -142
c0 -6 -56 -35 -67 -35 -4 1 8 9 27 20 39 22 40 22 40 15z m-249 -91 c-87 -43
-130 -71 -179 -118 -36 -33 -60 -52 -54 -40 6 12 23 29 37 38 15 10 24 20 21
23 -15 15 233 150 279 152 6 0 -41 -25 -104 -55z m64 -73 c-11 -11 -142 -61
-158 -61 -22 0 5 14 80 41 89 32 90 32 78 20z m-1118 -268 c-1 -43 -3 -10 -3
72 0 83 2 118 3 78 2 -40 2 -107 0 -150z m-168 -569 l1 -291 -112 0 c-126 0
-219 -22 -266 -65 -23 -21 -25 -21 -18 -3 4 11 54 101 110 200 57 99 141 252
187 339 71 135 85 155 90 135 4 -13 7 -155 8 -315z m1936 -514 c-159 -20 -237
-24 -145 -8 79 13 198 25 250 25 25 1 -22 -8 -105 -17z m-212 -27 c-7 -2 -21
-2 -30 0 -10 3 -4 5 12 5 17 0 24 -2 18 -5z m-65 -10 c-10 -2 -26 -2 -35 0
-10 3 -2 5 17 5 19 0 27 -2 18 -5z m-65 -10 c-7 -2 -21 -2 -30 0 -10 3 -4 5
12 5 17 0 24 -2 18 -5z m-70 -10 c-7 -2 -21 -2 -30 0 -10 3 -4 5 12 5 17 0 24
-2 18 -5z m-60 -10 c-7 -2 -21 -2 -30 0 -10 3 -4 5 12 5 17 0 24 -2 18 -5z
m-108 -19 c-33 -7 -67 -13 -75 -12 -23 1 82 26 110 26 14 0 -2 -6 -35 -14z
m-98 -20 c-3 -3 -12 -4 -19 -1 -8 3 -5 6 6 6 11 1 17 -2 13 -5z m-1931 -199
c-2 -7 2 -21 10 -32 14 -16 14 -16 3 7 -7 15 6 5 32 -24 24 -28 44 -54 44 -60
0 -5 6 -11 14 -14 8 -3 11 0 7 7 -4 6 14 -2 40 -18 26 -17 62 -36 81 -42 19
-6 32 -13 30 -16 -3 -2 -27 5 -53 16 -26 12 -49 20 -51 17 -9 -9 100 -46 120
-41 18 5 19 4 7 -5 -12 -9 -7 -10 20 -6 26 5 30 4 15 -3 l-20 -10 20 -1 c11
-1 14 -4 8 -7 -17 -6 -104 23 -176 59 -88 44 -191 157 -172 188 9 14 27 1 21
-15z m334 -180 c19 -7 28 -14 20 -14 -8 0 -28 6 -45 14 -39 17 -21 18 25 0z
m73 -22 c-7 -2 -19 -2 -25 0 -7 3 -2 5 12 5 14 0 19 -2 13 -5z m-36 -19 c-3
-3 -12 -4 -19 -1 -8 3 -5 6 6 6 11 1 17 -2 13 -5z m56 -21 c-13 -2 -33 -2 -45
0 -13 2 -3 4 22 4 25 0 35 -2 23 -4z m584 -325 c-3 -8 -6 -5 -6 6 -1 11 2 17
5 13 3 -3 4 -12 1 -19z"/>
<path d="M3044 3149 c-54 -33 -94 -76 -94 -99 0 -8 8 -1 19 15 23 38 45 57
101 89 25 14 40 26 34 26 -5 0 -32 -14 -60 -31z"/>
<path d="M3010 3079 c-17 -13 -18 -17 -5 -10 33 17 51 31 40 31 -5 0 -21 -10
-35 -21z"/>
<path d="M3025 3041 c-22 -11 -35 -19 -30 -19 14 -1 93 36 80 37 -5 0 -28 -8
-50 -18z"/>
<path d="M2540 2307 c0 -10 50 -61 55 -55 3 2 -9 17 -25 33 -17 16 -30 26 -30
22z"/>
<path d="M2642 2214 c10 -10 20 -15 24 -12 3 4 -5 12 -18 18 -22 12 -22 12 -6
-6z"/>
<path d="M3780 5494 c0 -8 5 -12 10 -9 6 3 10 10 10 16 0 5 -4 9 -10 9 -5 0
-10 -7 -10 -16z"/>
<path d="M3736 5481 c-4 -7 -5 -15 -2 -18 9 -9 19 4 14 18 -4 11 -6 11 -12 0z"/>
<path d="M3696 5461 c-4 -7 -5 -15 -2 -18 9 -9 19 4 14 18 -4 11 -6 11 -12 0z"/>
<path d="M3404 5419 c-3 -6 0 -17 7 -25 18 -17 44 -2 36 20 -7 18 -33 21 -43
5z"/>
<path d="M3607 5404 c-3 -5 1 -15 9 -22 16 -14 18 -5 5 17 -5 7 -11 9 -14 5z"/>
<path d="M3575 5370 c3 -5 8 -10 11 -10 2 0 4 5 4 10 0 6 -5 10 -11 10 -5 0
-7 -4 -4 -10z"/>
<path d="M3537 5346 c-4 -10 -1 -13 9 -9 7 3 14 9 14 14 0 14 -17 10 -23 -5z"/>
<path d="M3448 5251 c-49 -55 -144 -208 -135 -217 4 -4 12 6 19 22 20 45 107
176 141 212 17 17 28 32 25 32 -3 0 -26 -22 -50 -49z"/>
<path d="M3484 5233 c-51 -69 -76 -107 -57 -88 12 12 96 125 107 143 19 32 -5
6 -50 -55z"/>
<path d="M4570 5277 c0 -3 17 -17 37 -33 20 -15 33 -23 29 -16 -8 13 -66 56
-66 49z"/>
<path d="M4530 5243 c72 -36 145 -110 175 -175 14 -29 25 -47 25 -40 0 24 -41
94 -83 139 -42 46 -103 86 -147 97 -14 4 0 -6 30 -21z"/>
<path d="M4368 5253 c7 -3 16 -2 19 1 4 3 -2 6 -13 5 -11 0 -14 -3 -6 -6z"/>
<path d="M4195 5209 c3 -4 -8 -10 -23 -14 -27 -5 -142 -71 -142 -81 0 -2 29
13 66 32 36 20 84 42 107 49 38 11 39 12 14 17 -14 3 -24 2 -22 -3z"/>
<path d="M3798 5182 c-70 -75 -139 -198 -167 -301 -23 -82 -39 -237 -24 -228
6 4 13 39 16 79 13 148 65 281 158 405 52 68 61 93 17 45z"/>
<path d="M3555 5189 c-4 -6 -5 -12 -2 -15 2 -3 7 2 10 11 7 17 1 20 -8 4z"/>
<path d="M4208 5173 c7 -3 16 -2 19 1 4 3 -2 6 -13 5 -11 0 -14 -3 -6 -6z"/>
<path d="M4118 5139 c-21 -11 -38 -22 -38 -24 0 -3 18 4 40 15 22 11 40 23 40
25 0 7 0 7 -42 -16z"/>
<path d="M3402 5117 c-17 -20 -62 -120 -62 -137 0 -8 11 11 24 43 13 31 31 68
40 82 17 26 16 34 -2 12z"/>
<path d="M4148 5113 c7 -3 16 -2 19 1 4 3 -2 6 -13 5 -11 0 -14 -3 -6 -6z"/>
<path d="M3994 5088 l-19 -23 23 19 c12 11 22 21 22 23 0 8 -8 2 -26 -19z"/>
<path d="M3200 5079 c-7 -11 -10 -23 -7 -25 2 -2 9 7 15 21 14 30 7 33 -8 4z"/>
<path d="M4831 5064 c0 -11 3 -14 6 -6 3 7 2 16 -1 19 -3 4 -6 -2 -5 -13z"/>
<path d="M4156 5022 c44 -28 76 -73 124 -173 38 -81 42 -94 45 -185 l4 -99 -8
80 c-10 96 -40 178 -82 225 -32 37 -30 27 8 -29 52 -77 79 -237 54 -326 -6
-22 -36 -74 -67 -115 -31 -41 -46 -66 -34 -55 42 37 111 144 117 180 4 25 9
32 14 23 13 -19 11 152 -2 214 -6 29 -22 73 -36 98 -20 36 -20 40 -4 20 31
-38 50 -83 62 -147 12 -63 7 -201 -7 -212 -5 -3 -20 -26 -33 -51 -13 -25 -44
-72 -68 -105 -38 -52 -40 -54 -8 -20 19 22 50 61 67 87 34 53 49 58 23 9 -8
-17 -13 -31 -10 -31 12 0 43 81 55 144 17 89 7 195 -25 263 -28 62 -80 141
-109 166 -12 10 -15 15 -7 11 10 -5 12 -3 7 5 -5 7 -11 10 -14 7 -3 -3 -12 0
-21 8 -9 8 -29 17 -46 21 l-30 7 31 -20z m191 -534 c-3 -8 -6 -5 -6 6 -1 11 2
17 5 13 3 -3 4 -12 1 -19z"/>
<path d="M4841 5024 c0 -11 3 -14 6 -6 3 7 2 16 -1 19 -3 4 -6 -2 -5 -13z"/>
<path d="M5456 5031 c-4 -7 -5 -15 -2 -18 9 -9 19 4 14 18 -4 11 -6 11 -12 0z"/>
<path d="M5280 5020 c0 -5 5 -10 10 -10 6 0 10 5 10 10 0 6 -4 10 -10 10 -5 0
-10 -4 -10 -10z"/>
<path d="M5575 5011 c-76 -22 -131 -46 -139 -60 -10 -16 -1 -14 44 9 37 19
167 54 235 63 17 2 5 4 -25 5 -30 0 -82 -7 -115 -17z"/>
<path d="M3297 5013 c-4 -3 -7 -16 -6 -27 0 -19 1 -19 10 3 10 24 8 36 -4 24z"/>
<path d="M4731 4994 c0 -11 3 -14 6 -6 3 7 2 16 -1 19 -3 4 -6 -2 -5 -13z"/>
<path d="M5329 4959 c-84 -87 -168 -197 -201 -263 -24 -48 -33 -80 -39 -148
-5 -66 -15 -104 -38 -155 -22 -48 -25 -61 -11 -43 34 42 60 126 60 193 0 77
22 127 81 186 64 63 111 84 189 85 107 1 197 -62 211 -146 l6 -43 2 36 c1 26
-8 48 -29 77 -31 43 -27 58 5 22 13 -14 22 -17 29 -10 7 7 6 14 -3 23 -10 10
-11 8 -5 -8 6 -15 -1 -12 -30 13 -21 18 -44 31 -52 28 -8 -3 -24 -1 -36 4 -20
8 -18 9 15 9 21 1 53 -6 72 -13 39 -17 46 -13 13 6 -13 7 -52 15 -88 18 l-65
5 66 13 c36 6 104 12 150 13 68 0 79 2 59 11 -37 15 -204 2 -280 -21 -36 -12
-67 -21 -70 -20 -16 0 63 35 105 45 28 7 40 13 29 13 -38 2 -147 -37 -206 -73
-32 -19 -58 -32 -58 -29 0 7 91 114 144 170 22 24 37 45 33 49 -3 4 -29 -18
-58 -47z m196 -169 c3 -5 2 -10 -4 -10 -5 0 -13 5 -16 10 -3 6 -2 10 4 10 5 0
13 -4 16 -10z"/>
<path d="M4298 4973 c6 -2 18 -2 25 0 6 3 1 5 -13 5 -14 0 -19 -2 -12 -5z"/>
<path d="M4742 4940 c0 -19 2 -27 5 -17 2 9 2 25 0 35 -3 9 -5 1 -5 -18z"/>
<path d="M5645 4960 c-4 -6 5 -10 19 -10 14 0 26 5 26 10 0 6 -9 10 -19 10
-11 0 -23 -4 -26 -10z"/>
<path d="M4362 4944 c10 -10 20 -16 22 -13 3 3 -5 11 -17 18 -21 13 -21 12 -5
-5z"/>
<path d="M3325 4920 c-4 -19 -12 -38 -17 -41 -7 -4 -6 -9 0 -13 12 -7 36 57
29 77 -2 6 -7 -4 -12 -23z"/>
<path d="M4326 4910 c15 -25 36 -65 45 -90 11 -28 18 -37 19 -24 0 26 -44 112
-72 139 -15 15 -13 8 8 -25z"/>
<path d="M5426 4920 c-32 -10 -64 -24 -70 -31 -8 -9 -8 -10 3 -4 8 5 46 19 85
31 39 12 64 22 56 23 -8 0 -41 -9 -74 -19z"/>
<path d="M3140 4904 c0 -8 5 -12 10 -9 6 3 10 10 10 16 0 5 -4 9 -10 9 -5 0
-10 -7 -10 -16z"/>
<path d="M4136 4865 c61 -63 101 -139 110 -211 12 -94 -44 -246 -115 -313 -20
-19 -27 -29 -15 -23 11 6 26 18 33 26 8 9 17 14 21 11 5 -3 12 0 16 6 5 8 3 9
-6 4 -8 -5 -11 -3 -8 6 3 8 11 13 17 12 16 -4 77 84 91 130 23 77 11 197 -27
272 -21 39 -74 107 -80 101 -3 -3 9 -22 26 -43 93 -117 106 -288 30 -408 -16
-26 -32 -46 -34 -43 -2 2 11 32 28 68 28 57 32 74 32 150 0 72 -4 93 -27 140
-31 62 -101 152 -127 161 -10 4 6 -17 35 -46z"/>
<path d="M3879 4890 c-38 -11 -75 -38 -95 -68 -15 -23 -11 -21 24 10 69 62
156 72 240 29 54 -28 97 -77 131 -151 17 -36 31 -56 31 -44 0 30 -65 134 -109
175 -58 52 -146 72 -222 49z"/>
<path d="M4458 4856 c15 -24 29 -42 31 -40 4 4 -47 84 -54 84 -2 0 8 -20 23
-44z"/>
<path d="M3571 4874 c0 -11 3 -14 6 -6 3 7 2 16 -1 19 -3 4 -6 -2 -5 -13z"/>
<path d="M3125 4850 c-8 -13 4 -32 16 -25 12 8 12 35 0 35 -6 0 -13 -4 -16
-10z"/>
<path d="M4410 4851 c0 -5 5 -13 10 -16 6 -3 10 -2 10 4 0 5 -4 13 -10 16 -5
3 -10 2 -10 -4z"/>
<path d="M3300 4821 c0 -10 -3 -40 -6 -67 -5 -34 -3 -46 4 -39 12 12 21 125
10 125 -5 0 -8 -8 -8 -19z"/>
<path d="M5588 4820 c12 -11 22 -26 22 -32 0 -6 3 -9 6 -6 9 10 -14 45 -33 52
-14 6 -13 2 5 -14z"/>
<path d="M3237 4742 c-5 -46 -6 -86 -4 -89 8 -7 19 97 15 137 -2 22 -6 5 -11
-48z"/>
<path d="M5693 4804 c-8 -21 13 -42 28 -27 13 13 5 43 -11 43 -6 0 -13 -7 -17
-16z"/>
<path d="M4447 4784 c3 -7 9 -14 14 -14 14 0 10 17 -5 23 -10 4 -13 1 -9 -9z"/>
<path d="M4410 4755 c0 -11 -2 -38 -5 -60 -4 -37 -4 -38 5 -10 8 26 9 23 5
-17 -3 -31 -1 -48 6 -48 17 0 1 -67 -32 -135 -16 -33 -54 -86 -84 -117 -30
-32 -51 -58 -47 -58 20 0 125 124 150 177 23 51 27 70 27 153 0 55 -6 103 -12
115 l-12 20 -1 -20z"/>
<path d="M5622 4745 c0 -16 2 -22 5 -12 2 9 2 23 0 30 -3 6 -5 -1 -5 -18z"/>
<path d="M2980 4734 c0 -17 -9 -57 -21 -90 -32 -93 -36 -179 -11 -260 27 -86
46 -115 102 -154 l45 -31 -47 43 c-99 90 -126 222 -78 381 l23 78 24 -42 c12
-22 20 -46 16 -52 -3 -5 -1 -7 4 -4 6 4 16 0 23 -8 7 -9 36 -34 64 -57 47 -37
46 -36 -11 19 -46 44 -72 80 -98 134 -29 64 -34 70 -35 43z"/>
<path d="M4502 4740 c0 -14 2 -19 5 -12 2 6 2 18 0 25 -3 6 -5 1 -5 -13z"/>
<path d="M4455 4640 c0 -59 3 -106 8 -103 4 2 7 -2 7 -9 0 -10 3 -9 10 2 5 8
6 17 2 20 -4 3 -8 39 -9 80 -2 124 -18 132 -18 10z"/>
<path d="M5251 4737 c2 -2 18 -11 34 -21 l30 -17 -24 20 c-13 12 -28 21 -34
21 -6 0 -8 -1 -6 -3z"/>
<path d="M5597 4733 c-3 -5 -1 -17 4 -28 7 -17 8 -17 8 8 1 27 -4 34 -12 20z"/>
<path d="M4836 4683 c-6 -14 -5 -15 5 -6 7 7 10 15 7 18 -3 3 -9 -2 -12 -12z"/>
<path d="M3162 4678 c6 -18 28 -21 28 -4 0 9 -7 16 -16 16 -9 0 -14 -5 -12
-12z"/>
<path d="M5177 4660 c-35 -28 -42 -56 -23 -85 20 -31 50 -32 70 -3 11 15 12
26 5 40 -11 21 -30 20 -37 -2 -3 -9 1 -11 12 -7 13 5 17 2 14 -11 -5 -24 -42
-22 -46 4 -4 30 31 58 56 45 52 -28 34 -109 -47 -209 -31 -39 -76 -94 -100
-123 -29 -35 -19 -28 26 21 l71 75 10 -35 c6 -20 11 -27 11 -15 0 11 -4 27 -9
35 -6 10 -3 21 10 35 10 11 30 40 44 65 31 53 31 49 7 -55 -11 -44 -20 -68
-20 -53 -1 15 3 38 9 52 5 14 6 26 2 26 -14 0 -31 -56 -37 -130 -9 -90 -32
-140 -114 -243 -69 -87 -202 -220 -243 -245 -23 -13 -26 -20 -20 -41 17 -60 2
-145 -73 -431 -42 -162 -78 -312 -80 -335 -3 -50 -46 -156 -81 -203 l-27 -35
29 6 c16 3 76 13 134 23 l105 16 1 82 c1 96 51 297 89 363 14 23 44 58 67 78
34 29 50 35 78 33 27 -2 36 -8 38 -24 2 -12 -16 -88 -39 -170 -31 -108 -42
-169 -43 -221 -1 -96 11 -110 83 -94 29 6 72 11 96 11 25 0 45 2 45 5 0 3 -9
22 -20 42 -28 54 -25 98 20 277 22 87 40 178 40 202 0 96 -58 161 -134 149
-55 -8 -93 -30 -153 -91 -29 -29 -53 -51 -53 -49 0 8 133 517 151 579 12 39
45 110 75 160 57 94 93 194 114 312 15 85 7 138 -25 170 -29 29 -54 30 -88 4z
m40 -362 c-3 -8 -6 -5 -6 6 -1 11 2 17 5 13 3 -3 4 -12 1 -19z m-498 -1167
c-6 -18 -13 -30 -15 -28 -2 2 1 18 7 36 6 18 13 30 15 28 2 -2 -1 -18 -7 -36z"/>
<path d="M4793 4587 c-17 -34 -47 -83 -67 -110 -20 -26 -36 -50 -36 -52 0 -11
57 60 80 100 13 22 27 42 30 45 8 6 31 72 27 76 -2 2 -17 -25 -34 -59z"/>
<path d="M4205 4610 c3 -5 8 -10 11 -10 2 0 4 5 4 10 0 6 -5 10 -11 10 -5 0
-7 -4 -4 -10z"/>
<path d="M2855 4600 c3 -5 8 -10 11 -10 2 0 4 5 4 10 0 6 -5 10 -11 10 -5 0
-7 -4 -4 -10z"/>
<path d="M2982 4555 c-25 -125 -4 -196 78 -265 l47 -40 6 33 c3 17 8 41 12 52
4 14 2 12 -9 -5 -19 -31 -20 -20 -2 24 21 50 29 113 17 133 -8 15 -10 11 -11
-23 0 -22 -7 -65 -17 -95 -9 -30 -16 -63 -15 -73 1 -11 -3 -15 -8 -10 -6 6 -4
31 5 64 8 30 18 81 23 112 8 53 7 59 -15 79 l-23 22 0 -34 c-1 -19 -7 -63 -15
-99 l-14 -65 4 85 c3 65 2 76 -5 45 -5 -22 -9 -55 -9 -72 -1 -18 -6 -33 -12
-33 -10 0 -7 68 7 155 4 26 3 27 -7 11 -6 -10 -13 -43 -15 -74 -3 -31 -7 -58
-10 -61 -4 -3 -5 9 -2 26 2 18 1 34 -3 35 -4 2 -3 27 2 56 6 30 8 59 6 65 -2
6 -9 -15 -15 -48z m114 -79 c-3 -29 -13 -70 -21 -92 -9 -21 -13 -28 -10 -14 3
14 8 57 11 97 4 43 11 70 17 66 5 -3 7 -28 3 -57z"/>
<path d="M4402 4585 c0 -16 2 -22 5 -12 2 9 2 23 0 30 -3 6 -5 -1 -5 -18z"/>
<path d="M5370 4585 c0 -8 7 -15 15 -15 8 0 15 7 15 15 0 8 -7 15 -15 15 -8 0
-15 -7 -15 -15z"/>
<path d="M5460 4585 c0 -8 7 -15 15 -15 8 0 15 7 15 15 0 8 -7 15 -15 15 -8 0
-15 -7 -15 -15z"/>
<path d="M3542 4550 c0 -14 2 -19 5 -12 2 6 2 18 0 25 -3 6 -5 1 -5 -13z"/>
<path d="M3242 4530 c0 -19 2 -27 5 -17 2 9 2 25 0 35 -3 9 -5 1 -5 -18z"/>
<path d="M5061 4507 c-56 -252 -352 -520 -698 -632 -72 -23 -113 -45 -85 -45
5 0 -28 -37 -75 -82 -70 -69 -81 -84 -66 -90 14 -5 13 -7 -8 -7 -14 -1 -34
-10 -44 -21 -18 -20 -17 -20 7 -20 47 0 188 31 281 61 121 40 255 111 371 198
98 74 248 225 280 282 l18 34 -26 -30 c-14 -16 -25 -26 -26 -21 0 5 -38 -28
-85 -73 -107 -103 -311 -255 -392 -292 -67 -31 -196 -69 -228 -68 -11 0 18 11
65 24 144 39 253 99 358 197 22 20 42 35 44 32 8 -7 152 122 197 177 36 44 29
39 -40 -28 -101 -100 -130 -111 -38 -15 35 37 73 79 84 93 11 14 -9 -5 -45
-43 -36 -37 -69 -68 -74 -68 -5 0 -1 10 10 22 l19 22 -26 -20 c-15 -10 -23
-21 -18 -25 5 -3 -11 -25 -36 -49 -25 -24 -45 -38 -45 -30 0 9 -10 5 -27 -12
-16 -14 -46 -39 -69 -54 -22 -16 -60 -43 -83 -61 -24 -18 -66 -41 -95 -51 -98
-37 -100 -33 -8 12 52 25 91 49 88 54 -3 5 11 16 31 26 19 9 33 19 31 22 -3 2
-35 -10 -72 -27 -37 -17 -69 -30 -71 -28 -2 2 32 21 76 41 44 20 76 32 73 26
-4 -6 -1 -9 7 -6 8 3 14 10 14 16 0 5 4 14 9 19 5 5 6 2 1 -6 -5 -9 -3 -12 6
-9 8 3 13 10 12 16 -2 6 3 9 11 6 8 -3 20 3 27 13 8 10 41 40 74 68 135 113
212 209 258 326 27 68 52 167 45 175 -3 2 -10 -20 -17 -49z m-81 -397 c-39
-73 -307 -291 -433 -352 -97 -48 -229 -88 -280 -87 l-42 1 47 8 c75 13 207 59
278 97 95 51 274 189 360 276 41 42 76 77 78 77 1 0 -2 -9 -8 -20z m-170 -93
c0 -2 -14 -16 -32 -33 -30 -28 -30 -17 0 19 13 15 32 23 32 14z m-95 -73
c-154 -130 -289 -198 -435 -218 -28 -4 -12 3 43 19 130 37 222 83 321 163 49
40 92 69 95 66 3 -2 -8 -16 -24 -30z m-185 -74 c-8 -5 -19 -10 -25 -10 -5 0
-3 5 5 10 8 5 20 10 25 10 6 0 3 -5 -5 -10z m-95 -10 c-11 -5 -27 -9 -35 -9
-9 0 -8 4 5 9 11 5 27 9 35 9 9 0 8 -4 -5 -9z m30 -15 c-16 -8 -37 -14 -45
-14 -8 0 1 7 20 14 46 18 64 17 25 0z m-88 -1 c-3 -3 -12 -4 -19 -1 -8 3 -5 6
6 6 11 1 17 -2 13 -5z m-50 -10 c-3 -3 -12 -4 -19 -1 -8 3 -5 6 6 6 11 1 17
-2 13 -5z m-119 -171 c-10 -2 -26 -2 -35 0 -10 3 -2 5 17 5 19 0 27 -2 18 -5z
m47 -13 c-16 -4 -43 -8 -60 -8 -29 1 -29 1 5 8 19 4 46 7 60 8 22 0 22 -1 -5
-8z m-102 -17 c-7 -2 -21 -2 -30 0 -10 3 -4 5 12 5 17 0 24 -2 18 -5z"/>
<path d="M5124 4515 c5 -31 4 -37 -5 -25 -9 13 -10 12 -5 -3 3 -10 1 -27 -4
-38 -6 -10 -8 -19 -6 -19 3 0 15 18 26 40 19 38 20 42 4 63 -16 21 -16 21 -10
-18z"/>
<path d="M3606 4505 c5 -40 58 -165 69 -165 3 0 -5 19 -17 43 -12 23 -30 69
-40 102 -14 47 -17 51 -12 20z"/>
<path d="M4468 4454 c-19 -46 -34 -84 -32 -84 6 0 45 80 60 123 25 70 10 49
-28 -39z"/>
<path d="M4789 4498 c-12 -18 -38 -50 -58 -72 -23 -24 -29 -35 -15 -28 18 10
112 132 100 132 -2 0 -15 -15 -27 -32z"/>
<path d="M5366 4511 c-4 -7 -5 -15 -2 -18 9 -9 19 4 14 18 -4 11 -6 11 -12 0z"/>
<path d="M4461 4500 c-2 -28 -60 -134 -98 -180 -21 -25 -28 -37 -17 -27 11 9
23 15 26 12 2 -3 18 10 34 27 16 18 19 24 7 14 -13 -11 -23 -14 -23 -9 0 6 6
16 14 22 19 16 68 129 63 144 -4 8 -6 7 -6 -3z"/>
<path d="M5430 4480 c-12 -17 -20 -33 -17 -36 3 -3 15 9 27 26 12 17 20 33 17
36 -3 3 -15 -9 -27 -26z"/>
<path d="M4402 4455 c-12 -25 -20 -45 -17 -45 7 0 47 81 43 86 -3 2 -14 -17
-26 -41z"/>
<path d="M3177 4470 c3 -11 9 -22 13 -25 5 -3 6 4 3 15 -3 11 -9 22 -13 25 -5
3 -6 -4 -3 -15z"/>
<path d="M2894 4453 c2 -10 8 -42 11 -70 4 -29 11 -53 17 -53 6 0 8 6 5 13 -3
8 -8 39 -12 70 -4 32 -12 57 -17 57 -5 0 -7 -8 -4 -17z"/>
<path d="M5491 4380 c-60 -49 -150 -129 -198 -176 l-88 -86 95 84 c52 46 138
119 190 162 115 96 126 106 118 106 -4 0 -56 -40 -117 -90z"/>
<path d="M2740 4435 c0 -25 27 -72 45 -79 29 -11 29 -7 0 24 -16 17 -25 30
-19 30 5 0 23 -17 41 -37 24 -28 32 -33 33 -20 0 26 -29 66 -61 83 -35 18 -39
18 -39 -1z"/>
<path d="M3686 4430 c3 -14 10 -32 15 -40 7 -13 8 -13 8 0 0 8 -6 26 -15 40
l-15 25 7 -25z"/>
<path d="M5342 4429 c-7 -11 -11 -23 -9 -25 7 -7 29 24 25 36 -2 6 -9 1 -16
-11z"/>
<path d="M3840 4394 c-15 -45 -2 -99 37 -144 30 -36 92 -70 125 -69 14 0 6 6
-23 14 -90 28 -155 125 -130 196 6 18 9 34 7 36 -2 3 -9 -12 -16 -33z"/>
<path d="M3141 4404 c0 -11 3 -14 6 -6 3 7 2 16 -1 19 -3 4 -6 -2 -5 -13z"/>
<path d="M5420 4388 c-6 -12 -48 -58 -93 -102 l-82 -78 84 73 c82 72 119 114
108 125 -3 3 -11 -5 -17 -18z"/>
<path d="M3710 4360 c0 -7 14 -37 30 -67 17 -29 28 -53 25 -53 -3 0 -19 15
-36 33 l-31 32 32 -43 c24 -32 35 -40 41 -30 8 13 10 11 13 -14 0 -7 17 -21
36 -32 l35 -20 -47 52 c-25 29 -58 76 -72 104 -14 29 -26 46 -26 38z"/>
<path d="M5302 4325 c-12 -19 -20 -35 -17 -35 7 0 47 61 42 66 -2 3 -14 -11
-25 -31z"/>
<path d="M4635 4340 c-3 -5 -2 -10 4 -10 5 0 13 5 16 10 3 6 2 10 -4 10 -5 0
-13 -4 -16 -10z"/>
<path d="M4269 4292 c-20 -15 -45 -33 -55 -40 -11 -7 -1 -4 21 7 22 10 49 28
59 40 25 27 19 26 -25 -7z"/>
<path d="M4529 4293 c-13 -16 -12 -17 4 -4 16 13 21 21 13 21 -2 0 -10 -8 -17
-17z"/>
<path d="M2920 4276 c0 -28 38 -94 66 -113 14 -10 47 -36 71 -58 l45 -40 -27
46 c-16 25 -50 61 -77 79 -26 18 -46 35 -44 37 5 6 113 -62 145 -91 22 -20 23
-20 13 -1 -16 30 -62 70 -109 94 -23 12 -51 31 -63 43 -17 19 -20 19 -20 4z
m95 -116 c3 -6 -1 -7 -9 -4 -18 7 -21 14 -7 14 6 0 13 -4 16 -10z"/>
<path d="M3141 4264 c0 -11 3 -14 6 -6 3 7 2 16 -1 19 -3 4 -6 -2 -5 -13z"/>
<path d="M5106 4235 c-9 -26 -7 -32 5 -12 6 10 9 21 6 23 -2 3 -7 -2 -11 -11z"/>
<path d="M3467 4223 c-12 -11 -8 -52 8 -90 16 -37 75 -107 135 -158 19 -16 1
7 -41 51 -78 82 -105 134 -96 180 5 26 4 28 -6 17z"/>
<path d="M3480 4205 c0 -23 59 -109 110 -161 94 -96 200 -155 273 -153 28 1
27 2 -13 10 -118 23 -270 139 -338 259 -18 30 -32 51 -32 45z"/>
<path d="M2891 4110 c22 -89 55 -128 114 -136 l40 -5 -38 15 c-51 19 -58 28
-16 20 32 -6 33 -6 14 9 -11 8 -24 13 -29 10 -5 -4 -6 -1 -3 4 4 6 -2 18 -13
28 -11 10 -17 21 -15 25 2 4 -5 16 -17 26 -21 19 -21 19 -9 -6 11 -23 11 -23
-3 -7 -8 11 -13 24 -10 30 2 7 -5 23 -15 36 -18 24 -18 22 0 -49z"/>
<path d="M4996 4163 c-6 -14 -5 -15 5 -6 7 7 10 15 7 18 -3 3 -9 -2 -12 -12z"/>
<path d="M2930 4166 c0 -15 23 -52 53 -83 34 -36 30 -42 -11 -16 l-27 17 20
-23 c28 -32 96 -67 80 -41 -3 6 0 10 7 10 7 0 -5 12 -25 26 -21 14 -52 47 -68
72 -16 25 -29 42 -29 38z m105 -126 c3 -5 2 -10 -4 -10 -5 0 -13 5 -16 10 -3
6 -2 10 4 10 5 0 13 -4 16 -10z"/>
<path d="M6110 4126 c0 -2 9 -6 20 -9 11 -3 18 -1 14 4 -5 9 -34 13 -34 5z"/>
<path d="M5830 4113 c-19 -3 -39 -8 -44 -13 -10 -10 73 -1 94 11 17 9 16 9
-50 2z"/>
<path d="M5450 4100 c0 -5 7 -10 15 -10 8 0 15 5 15 10 0 6 -7 10 -15 10 -8 0
-15 -4 -15 -10z"/>
<path d="M4771 4040 c-19 -16 -32 -32 -30 -35 3 -2 21 11 39 30 41 42 37 45
-9 5z"/>
<path d="M5395 4060 c-3 -5 -1 -10 4 -10 6 0 11 5 11 10 0 6 -2 10 -4 10 -3 0
-8 -4 -11 -10z"/>
<path d="M5239 3992 c-36 -37 -72 -79 -79 -92 -7 -14 -11 -23 -9 -20 3 3 42
44 89 93 46 48 80 87 75 87 -5 0 -39 -31 -76 -68z"/>
<path d="M3470 4044 c0 -19 57 -100 90 -127 18 -15 51 -37 74 -48 43 -20 33
-12 -40 33 -28 17 -59 51 -84 89 -22 34 -40 58 -40 53z"/>
<path d="M5473 4037 c-48 -14 -73 -32 -28 -21 35 8 95 32 80 32 -5 0 -29 -5
-52 -11z"/>
<path d="M5761 4039 c-73 -14 -71 -19 4 -13 72 6 128 24 70 23 -16 -1 -50 -5
-74 -10z"/>
<path d="M5255 3938 l-80 -82 75 69 c41 38 82 75 90 82 8 7 10 13 4 13 -5 0
-45 -37 -89 -82z"/>
<path d="M5521 3990 c-196 -59 -330 -150 -420 -285 l-33 -50 43 50 c75 88 158
162 218 194 63 33 256 101 289 101 12 0 24 5 27 10 10 16 -24 11 -124 -20z"/>
<path d="M3460 3993 c0 -38 143 -164 185 -163 5 1 -11 12 -36 25 -51 27 -102
73 -131 120 -10 16 -18 25 -18 18z"/>
<path d="M3550 3975 c13 -14 26 -25 28 -25 3 0 -5 11 -18 25 -13 14 -26 25
-28 25 -3 0 5 -11 18 -25z"/>
<path d="M6058 3949 c-236 -19 -471 -59 -598 -101 -148 -48 -292 -138 -380
-235 -71 -80 -82 -104 -24 -55 82 68 227 132 377 167 182 41 839 125 997 126
94 1 115 3 85 10 -22 4 -76 9 -120 10 -64 2 -71 4 -35 8 45 5 45 5 -20 11 -53
5 -42 7 60 8 78 1 152 -4 195 -13 146 -31 288 -128 361 -246 20 -32 39 -57 42
-55 10 11 -63 108 -127 168 -173 163 -440 228 -813 197z m110 -26 c-10 -2 -28
-2 -40 0 -13 2 -5 4 17 4 22 1 32 -1 23 -4z m-100 -10 c-16 -2 -40 -2 -55 0
-16 2 -3 4 27 4 30 0 43 -2 28 -4z m230 0 c-16 -2 -40 -2 -55 0 -16 2 -3 4 27
4 30 0 43 -2 28 -4z m-340 -10 c-16 -2 -40 -2 -55 0 -16 2 -3 4 27 4 30 0 43
-2 28 -4z m240 0 c-10 -2 -28 -2 -40 0 -13 2 -5 4 17 4 22 1 32 -1 23 -4z
m-345 -10 c-7 -2 -21 -2 -30 0 -10 3 -4 5 12 5 17 0 24 -2 18 -5z m183 -8
c-111 -14 -259 -26 -236 -19 25 7 252 32 295 32 22 -1 -5 -6 -59 -13z m-296
-10 c-36 -8 -76 -14 -90 -13 -33 0 87 25 125 26 17 0 1 -6 -35 -13z m340 -11
c-102 -12 -237 -30 -300 -39 -63 -9 -131 -18 -150 -20 -34 -5 -34 -4 -6 5 16
5 83 16 150 25 66 8 182 24 256 34 74 10 158 19 185 19 28 0 -33 -11 -135 -24z
m193 -1 c-13 -2 -35 -2 -50 0 -16 2 -5 4 22 4 28 0 40 -2 28 -4z m-660 -10
c-7 -2 -19 -2 -25 0 -7 3 -2 5 12 5 14 0 19 -2 13 -5z m32 -23 c-149 -31 -162
-33 -153 -24 9 8 228 53 263 53 17 0 -33 -13 -110 -29z m533 23 c-10 -2 -26
-2 -35 0 -10 3 -2 5 17 5 19 0 27 -2 18 -5z m-611 -9 c-3 -3 -12 -4 -19 -1 -8
3 -5 6 6 6 11 1 17 -2 13 -5z m531 -1 c-10 -2 -26 -2 -35 0 -10 3 -2 5 17 5
19 0 27 -2 18 -5z m-678 -46 c-63 -23 -146 -62 -184 -85 -37 -24 -65 -39 -62
-33 21 34 293 160 346 160 8 0 -37 -19 -100 -42z m360 2 c-146 -21 -269 -37
-275 -36 -5 2 56 14 135 26 241 37 323 48 365 49 22 0 -79 -17 -225 -39z
m-303 -5 c-3 -3 -12 -4 -19 -1 -8 3 -5 6 6 6 11 1 17 -2 13 -5z m106 -1 c-7
-2 -19 -2 -25 0 -7 3 -2 5 12 5 14 0 19 -2 13 -5z m-50 -10 c-7 -2 -19 -2 -25
0 -7 3 -2 5 12 5 14 0 19 -2 13 -5z m-138 -27 c-98 -26 -125 -27 -48 -3 61 20
82 25 113 25 14 1 -15 -10 -65 -22z m88 -3 c-7 -2 -19 -2 -25 0 -7 3 -2 5 12
5 14 0 19 -2 13 -5z m-46 -9 c-3 -3 -12 -4 -19 -1 -8 3 -5 6 6 6 11 1 17 -2
13 -5z m-112 -33 c-44 -16 -95 -36 -113 -45 -17 -9 -32 -14 -32 -12 0 14 176
85 210 85 8 0 -21 -13 -65 -28z m-165 -44 c0 -2 -10 -12 -22 -23 l-23 -19 19
23 c18 21 26 27 26 19z m-50 -40 c0 -2 -10 -12 -22 -23 l-23 -19 19 23 c18 21
26 27 26 19z"/>
<path d="M3463 3435 l1 -450 6 415 c3 228 3 431 -1 450 -4 19 -6 -167 -6 -415z"/>
<path d="M3525 3794 c-4 -31 -6 -149 -6 -262 1 -114 -3 -243 -8 -287 -5 -44
-9 -93 -9 -110 0 -30 0 -30 9 5 9 40 54 389 64 495 3 39 8 82 11 98 3 15 1 27
-4 27 -6 0 -13 -38 -17 -84 -4 -46 -13 -128 -20 -182 -13 -96 -14 -91 -8 129
3 125 3 227 0 227 -2 0 -8 -25 -12 -56z"/>
<path d="M6568 3843 c6 -2 18 -2 25 0 6 3 1 5 -13 5 -14 0 -19 -2 -12 -5z"/>
<path d="M4130 3810 c-14 -4 -45 -8 -70 -9 -45 -1 -46 -2 -58 -43 -11 -43
-143 -230 -149 -212 -3 9 46 190 62 228 8 18 5 19 -43 12 -29 -4 -92 -23 -141
-42 l-89 -36 13 -32 c15 -35 15 -32 -34 -251 -31 -134 -24 -136 13 -3 18 65
36 121 41 125 4 5 5 -1 1 -12 -3 -11 -46 -175 -96 -365 -50 -190 -95 -358
-101 -375 -18 -52 -21 -168 -5 -190 19 -27 78 -24 136 5 67 33 69 37 58 68 -8
21 -3 55 26 166 34 134 42 154 50 145 2 -2 17 -49 34 -104 l31 -100 -29 -59
c-17 -32 -30 -68 -29 -80 1 -18 2 -18 8 4 5 14 18 45 31 69 l22 45 19 -40 c26
-54 54 -74 101 -74 48 0 107 29 164 82 53 49 56 64 9 41 -49 -23 -82 -9 -123
52 -42 64 -112 206 -112 229 0 11 24 28 72 51 76 37 109 42 154 25 15 -6 28
-9 30 -7 6 6 -158 119 -184 127 -24 7 -25 8 -5 9 13 1 53 -21 90 -48 77 -56
177 -111 202 -111 13 1 12 3 -4 12 -41 22 -88 75 -116 130 -63 124 -126 120
-267 -17 -36 -36 -67 -65 -68 -65 -8 0 66 284 79 304 37 56 171 208 247 280
79 73 83 83 30 66z m-84 -572 l29 -33 -32 29 c-31 28 -38 36 -30 36 2 0 16
-15 33 -32z m-90 -42 l35 -23 -88 -43 c-48 -23 -103 -49 -121 -57 l-34 -14 19
31 c24 42 118 130 138 130 9 0 32 -11 51 -24z m-460 -437 c-14 -30 -25 -50
-25 -46 -1 12 41 108 45 104 3 -2 -7 -28 -20 -58z"/>
<path d="M4661 3690 c-54 -49 -60 -59 -44 -64 11 -3 37 -22 58 -41 21 -20 40
-33 43 -31 8 9 20 160 13 177 -5 14 -18 6 -70 -41z m52 -97 c-8 -20 -9 -20
-48 13 l-40 34 45 39 45 39 3 -52 c2 -29 -1 -61 -5 -73z"/>
<path d="M4676 3651 c-3 -4 1 -17 9 -27 14 -18 14 -18 15 9 0 26 -13 36 -24
18z"/>
<path d="M6193 3715 c-23 -7 -83 -30 -133 -51 -79 -34 -90 -41 -85 -59 19 -69
16 -103 -24 -238 -53 -183 -58 -217 -36 -272 35 -93 110 -118 212 -71 l52 24
-14 -38 c-8 -22 -19 -48 -25 -59 -11 -22 -93 -51 -142 -51 -34 0 -68 -16 -68
-32 0 -7 7 -5 18 4 9 8 59 20 115 26 113 14 174 40 241 105 46 45 68 101 161
416 43 146 63 189 105 225 34 28 94 35 131 16 33 -18 22 7 -17 36 -71 55 -177
41 -275 -37 l-39 -31 0 34 c0 18 -5 40 -10 48 -7 11 -10 0 -10 -38 0 -57 -20
-143 -76 -337 -41 -138 -72 -198 -115 -221 -28 -14 -33 -14 -56 1 -23 15 -25
22 -21 68 6 71 138 507 160 529 21 21 10 22 -49 3z"/>
<path d="M4457 3638 c-64 -33 -134 -76 -155 -95 -35 -32 -33 -31 33 10 39 25
109 66 158 91 48 26 87 49 87 52 0 6 3 8 -123 -58z"/>
<path d="M5478 3649 c-70 -4 -133 -11 -142 -16 -16 -9 146 -5 234 6 94 11 41
17 -92 10z"/>
<path d="M5695 3628 c-91 -33 -230 -153 -304 -264 -64 -95 -92 -171 -97 -264
l-4 -75 14 70 c13 70 44 152 79 213 31 53 28 37 -9 -42 -36 -79 -64 -174 -64
-216 1 -36 35 -107 58 -119 12 -6 40 -11 65 -11 54 0 122 42 163 102 l29 41 7
-52 c3 -29 10 -57 15 -62 5 -5 32 -2 63 6 30 8 72 15 93 15 43 0 44 3 17 37
-13 17 -20 41 -20 72 0 41 11 90 80 340 11 41 20 83 20 93 0 37 -33 99 -61
113 -32 17 -100 18 -144 3z m35 -99 c0 -35 -4 -41 -37 -58 -48 -24 -139 -120
-193 -202 l-42 -64 7 40 c25 143 123 289 216 324 36 13 49 3 49 -40z m-40
-176 c-28 -98 -42 -126 -78 -152 -16 -11 -42 -37 -58 -58 -28 -38 -28 -38 29
11 57 47 58 48 51 20 -11 -48 -32 -82 -67 -108 -39 -30 -63 -33 -89 -9 -30 27
-23 80 20 153 38 65 196 239 207 228 4 -3 -3 -41 -15 -85z"/>
<path d="M5449 3605 c56 -13 114 -9 75 6 -10 4 -44 8 -74 7 l-55 0 54 -13z"/>
<path d="M5260 3606 c0 -2 9 -6 20 -9 11 -3 18 -1 14 4 -5 9 -34 13 -34 5z"/>
<path d="M5385 3585 c91 -27 105 -29 105 -14 0 5 -3 8 -8 5 -4 -2 -32 4 -62
14 -30 11 -68 19 -85 19 -20 0 -3 -8 50 -24z"/>
<path d="M5375 3551 c39 -22 74 -37 78 -34 7 4 -126 73 -141 73 -4 0 25 -18
63 -39z"/>
<path d="M4425 3554 c-58 -33 -146 -106 -171 -143 -31 -47 -49 -134 -40 -186
10 -54 59 -97 148 -131 93 -36 116 -50 134 -85 21 -41 17 -73 -11 -108 -51
-60 -177 -69 -222 -17 -13 15 -23 31 -23 35 0 5 28 12 61 15 56 7 145 34 136
42 -1 2 -25 -3 -52 -11 -55 -17 -171 -20 -209 -5 -14 5 -35 24 -47 42 l-21 33
6 -78 c10 -129 57 -203 146 -227 71 -19 178 18 246 87 53 52 105 169 111 246
7 89 -16 121 -122 164 -46 19 -92 46 -107 63 -65 70 -7 180 95 180 42 0 57
-15 57 -60 0 -44 15 -60 56 -60 44 0 57 20 52 81 -3 32 -2 47 5 40 5 -5 12
-29 14 -53 6 -55 -15 -101 -57 -123 -17 -9 -30 -18 -30 -21 0 -3 17 4 38 16
49 27 72 66 72 120 0 52 -21 92 -66 127 -30 23 -49 28 -103 30 -47 2 -74 -1
-96 -13z m-125 -151 c-11 -27 -21 -56 -24 -65 -7 -23 -26 -23 -26 0 0 17 54
112 64 112 2 0 -4 -21 -14 -47z"/>
<path d="M4224 3534 c-18 -14 -18 -15 4 -4 12 6 22 13 22 15 0 8 -5 6 -26 -11z"/>
<path d="M7006 3525 c4 -8 8 -15 10 -15 2 0 4 7 4 15 0 8 -4 15 -10 15 -5 0
-7 -7 -4 -15z"/>
<path d="M4053 3498 c-65 -54 -143 -132 -143 -142 0 -5 28 18 63 50 34 33 80
74 102 92 22 18 34 32 28 32 -7 0 -29 -14 -50 -32z"/>
<path d="M4096 3474 c-37 -30 -63 -54 -57 -54 10 0 151 99 151 106 0 14 -34
-5 -94 -52z"/>
<path d="M6823 3455 c-87 -43 -234 -144 -264 -182 -8 -10 6 -2 31 18 82 65
171 121 264 165 50 24 84 44 76 44 -8 0 -56 -20 -107 -45z"/>
<path d="M7020 3483 c0 -12 5 -25 10 -28 13 -8 13 15 0 35 -8 12 -10 11 -10
-7z"/>
<path d="M2700 3480 c0 -5 5 -10 10 -10 6 0 10 5 10 10 0 6 -4 10 -10 10 -5 0
-10 -4 -10 -10z"/>
<path d="M4155 3465 c-16 -7 -23 -14 -15 -14 8 0 29 6 45 14 17 7 23 14 15 14
-8 0 -28 -6 -45 -14z"/>
<path d="M2517 3440 c-26 -16 -47 -32 -47 -36 0 -4 6 -2 13 4 6 6 32 22 57 36
25 14 40 26 34 26 -5 0 -31 -13 -57 -30z"/>
<path d="M5380 3450 c0 -5 5 -10 10 -10 6 0 10 5 10 10 0 6 -4 10 -10 10 -5 0
-10 -4 -10 -10z"/>
<path d="M6852 3406 c-88 -37 -231 -126 -272 -171 -14 -15 9 -2 50 29 65 50
109 74 290 158 64 30 16 18 -68 -16z"/>
<path d="M2612 3420 c-67 -15 -162 -93 -229 -187 -48 -68 -93 -179 -92 -228 0
-21 5 -13 15 29 43 177 226 376 347 376 50 0 96 -43 98 -92 1 -25 3 -27 6 -10
14 72 -62 131 -145 112z"/>
<path d="M4123 3413 c15 -2 37 -2 50 0 12 2 0 4 -28 4 -27 0 -38 -2 -22 -4z"/>
<path d="M2570 3339 c-30 -16 -68 -42 -84 -57 -35 -33 -86 -101 -86 -115 0 -6
13 8 28 29 42 58 120 123 177 150 28 12 43 23 35 23 -8 0 -40 -13 -70 -30z"/>
<path d="M7025 3361 c-3 -5 -1 -12 5 -16 5 -3 10 1 10 9 0 18 -6 21 -15 7z"/>
<path d="M2387 3302 c-68 -71 -148 -234 -134 -275 2 -6 12 15 21 48 22 74 63
147 117 209 50 57 47 71 -4 18z"/>
<path d="M2604 3291 c-23 -10 -44 -24 -48 -30 -4 -5 14 -1 39 10 25 11 64 24
88 28 l42 9 -40 1 c-22 0 -59 -8 -81 -18z"/>
<path d="M5011 3283 c-15 -36 -71 -263 -70 -283 0 -8 18 50 39 130 21 80 41
153 45 163 4 9 5 17 2 17 -2 0 -10 -12 -16 -27z"/>
<path d="M6755 3281 c-68 -17 -153 -73 -257 -169 -40 -37 -96 -87 -123 -110
-28 -24 -41 -39 -30 -33 11 5 65 49 120 96 123 106 184 138 265 138 130 0 161
-88 63 -182 -25 -23 -37 -38 -26 -33 11 6 36 29 56 52 39 43 47 82 26 123 -15
28 -25 35 -73 48 -51 14 -40 22 14 10 51 -11 57 -17 75 -67 13 -36 14 -37 15
-11 0 15 -7 41 -15 57 -18 34 -60 46 -133 37 -31 -4 -40 -3 -27 3 24 10 116
13 140 4 39 -15 68 -133 37 -153 -5 -3 -12 -16 -16 -28 -4 -12 -31 -43 -59
-69 -55 -49 -47 -50 14 -1 69 55 106 155 78 210 -9 17 -9 20 1 10 18 -17 29
-88 17 -109 -9 -17 -9 -17 6 -5 24 19 40 86 27 111 -6 11 -13 20 -16 20 -2 0
0 -8 5 -18 6 -12 7 -30 1 -48 l-8 -29 -1 28 c-1 41 -16 62 -51 77 -17 7 -29
15 -26 17 2 2 18 -3 35 -12 18 -9 36 -13 41 -10 6 4 25 -3 43 -15 l32 -22 -30
26 c-36 31 -125 66 -163 65 -15 -1 -40 -4 -57 -8z m73 -18 c-10 -2 -28 -2 -40
0 -13 2 -5 4 17 4 22 1 32 -1 23 -4z m-131 -49 c-3 -3 -12 -4 -19 -1 -8 3 -5
6 6 6 11 1 17 -2 13 -5z"/>
<path d="M4961 3255 c0 -6 -12 -60 -25 -120 -14 -61 -27 -135 -30 -165 -3 -30
10 17 29 105 20 88 33 167 31 175 -2 8 -4 10 -5 5z"/>
<path d="M4628 3223 c7 -3 16 -2 19 1 4 3 -2 6 -13 5 -11 0 -14 -3 -6 -6z"/>
<path d="M6460 3119 c-105 -98 -222 -186 -282 -212 -51 -23 -60 -31 -87 -86
-28 -54 -38 -64 -103 -101 -117 -64 -217 -98 -401 -135 -177 -35 -557 -90
-682 -100 l-70 -5 85 15 c47 8 146 23 220 35 248 38 366 62 345 72 -13 5 -6 6
21 2 26 -3 83 4 159 21 127 29 192 50 115 38 -25 -4 -57 -7 -72 -8 -14 0 -24
-4 -20 -9 3 -5 -2 -7 -11 -3 -9 3 -95 -7 -189 -22 -95 -16 -231 -34 -303 -41
-71 -6 -184 -20 -250 -30 -66 -11 -160 -24 -210 -31 -148 -18 -382 -82 -476
-130 -154 -77 -213 -117 -314 -212 -55 -52 -103 -94 -107 -93 -5 1 -40 -43
-121 -155 l-18 -24 12 25 c7 14 43 69 80 123 38 53 69 101 70 105 0 4 39 43
87 86 70 65 106 89 200 133 62 30 116 53 118 50 3 -2 -34 -23 -81 -45 -47 -23
-104 -54 -128 -70 -41 -29 -209 -194 -215 -212 -2 -5 43 37 100 93 98 98 110
106 253 179 116 59 177 83 270 107 122 31 623 113 638 104 4 -2 58 3 120 11
61 9 132 18 157 21 25 3 108 17 185 30 77 13 180 30 228 36 48 6 86 13 84 15
-5 5 -202 -19 -302 -36 -82 -14 -390 -47 -500 -54 -265 -16 -731 -122 -929
-210 -168 -75 -437 -342 -533 -529 -51 -100 -68 -326 -37 -488 19 -101 93
-291 140 -356 21 -30 30 -51 24 -57 -13 -13 86 -88 174 -131 123 -61 210 -78
381 -78 169 0 253 17 366 74 204 102 341 247 414 436 l15 38 -6 -35 c-7 -43
-61 -156 -109 -230 -29 -46 -31 -50 -7 -23 16 18 49 72 74 120 45 86 64 153
72 258 2 28 3 4 2 -52 -2 -99 -3 -103 -48 -195 -26 -51 -63 -116 -83 -143
l-36 -50 33 37 c39 43 130 208 141 258 4 19 12 69 16 110 8 73 8 72 10 -51 1
-107 -3 -139 -23 -205 -12 -44 -27 -88 -31 -98 -6 -13 -5 -17 3 -12 22 13 54
141 60 241 7 100 7 100 13 40 6 -49 7 -43 5 33 -2 99 4 100 29 6 36 -138 12
-349 -55 -493 -39 -82 -31 -92 9 -13 54 106 75 202 76 337 0 136 -13 186 -89
350 -112 238 -245 360 -396 360 -50 0 -77 -6 -117 -26 -29 -14 -50 -22 -47
-17 8 13 76 45 113 53 86 18 189 -7 270 -65 50 -36 55 -23 6 14 -48 37 -131
74 -181 82 -50 7 -139 -16 -194 -51 -20 -13 -56 -45 -80 -72 -36 -40 -40 -43
-24 -14 23 40 82 90 144 122 35 18 62 23 121 23 68 1 84 -3 151 -37 89 -44
181 -135 283 -281 118 -171 145 -238 127 -320 -5 -26 -6 -48 -2 -51 15 -9 33
137 26 212 -7 87 -34 162 -78 217 -18 23 -25 35 -15 27 9 -7 17 -10 17 -6 0 4
7 2 15 -5 8 -7 12 -16 9 -21 -3 -5 -1 -8 5 -7 6 2 29 -17 51 -42 27 -30 35
-35 22 -15 -22 35 -19 67 5 38 13 -16 13 -16 2 7 -6 14 -19 34 -28 44 -13 15
-13 20 -3 24 10 3 5 11 -15 24 -15 11 -21 18 -12 15 153 -50 212 -61 114 -22
-71 28 -53 30 74 10 98 -16 135 -14 59 3 -35 9 -28 9 42 5 134 -9 90 4 -75 22
-223 23 -242 30 -110 37 295 16 589 190 709 420 37 72 53 149 37 188 -8 21
-10 14 -10 -40 -3 -199 -236 -422 -551 -526 -72 -23 -102 -28 -195 -28 -135
-1 -188 12 -335 79 -150 69 -224 88 -320 83 -84 -5 -174 -39 -224 -86 -29 -27
-29 -27 -13 -2 37 57 129 111 221 130 67 14 147 8 281 -21 114 -24 124 -23 50
6 -33 13 -55 24 -48 24 20 1 123 -41 118 -49 -8 -13 74 -21 95 -10 13 7 20 7
20 1 0 -6 41 -9 108 -7 156 6 273 46 408 142 159 112 347 380 464 659 23 55
54 125 68 155 14 30 26 57 26 60 1 3 51 53 111 112 116 113 136 149 25 47z
m-433 -455 c-115 -267 -266 -488 -407 -595 -67 -50 -184 -103 -255 -113 -32
-5 -27 -2 20 13 128 41 219 95 293 174 55 60 55 83 0 30 -24 -22 -61 -52 -83
-65 -50 -30 -159 -74 -208 -83 -35 -7 -40 -4 -80 38 -28 31 -69 59 -122 84
-72 34 -90 38 -178 41 -129 6 -202 -9 -317 -65 -167 -81 -274 -215 -301 -380
-16 -96 -5 -168 37 -253 57 -114 142 -165 234 -140 48 13 100 58 100 87 0 15
-4 14 -23 -9 -28 -33 -58 -48 -97 -48 -71 0 -138 52 -165 129 -30 86 -10 169
57 238 112 114 298 115 421 3 99 -91 139 -231 108 -382 -45 -214 -256 -415
-486 -463 -207 -43 -446 9 -537 119 -92 109 -143 221 -155 339 -3 34 -10 69
-15 77 -5 9 -6 -8 -2 -45 13 -138 57 -252 127 -331 21 -24 34 -44 29 -44 -15
0 -79 77 -113 135 -36 61 -67 159 -78 246 l-8 64 -2 -55 c-2 -118 57 -267 143
-354 88 -91 197 -150 331 -182 l60 -13 -50 5 c-122 13 -257 66 -335 131 -252
209 -311 539 -149 842 78 146 181 254 349 366 218 146 417 205 955 285 578 85
730 124 885 229 24 17 46 29 47 27 2 -2 -12 -39 -30 -82z m-414 -41 c-7 -2
-21 -2 -30 0 -10 3 -4 5 12 5 17 0 24 -2 18 -5z m-60 -10 c-7 -2 -19 -2 -25 0
-7 3 -2 5 12 5 14 0 19 -2 13 -5z m-153 -29 c-36 -7 -123 -20 -195 -29 -213
-26 -523 -75 -637 -100 -154 -35 -246 -67 -395 -140 l-131 -65 -143 -148 c-79
-81 -133 -134 -120 -117 12 16 80 89 150 161 125 128 129 132 257 197 72 36
171 78 219 92 142 41 487 98 820 136 99 11 182 22 184 25 2 2 16 3 30 3 14 -1
-3 -7 -39 -15z m-582 -111 c-10 -2 -26 -2 -35 0 -10 3 -2 5 17 5 19 0 27 -2
18 -5z m-81 -9 c-3 -3 -12 -4 -19 -1 -8 3 -5 6 6 6 11 1 17 -2 13 -5z m-54
-31 c-7 -2 -21 -2 -30 0 -10 3 -4 5 12 5 17 0 24 -2 18 -5z m-303 -53 c-8 -5
-19 -10 -25 -10 -5 0 -3 5 5 10 8 5 20 10 25 10 6 0 3 -5 -5 -10z m-61 -24
c-10 -9 -149 -76 -149 -71 0 6 131 74 144 75 5 0 7 -2 5 -4z m-49 -49 c0 -2
-40 -27 -88 -56 -106 -62 -220 -156 -281 -231 -24 -30 -48 -54 -52 -53 -17 5
-99 -122 -128 -195 -47 -123 -58 -224 -38 -357 22 -149 39 -200 95 -286 86
-131 236 -253 337 -274 17 -4 -8 12 -55 36 -153 76 -286 233 -346 409 -29 84
-27 319 3 415 20 63 69 155 116 217 28 37 5 -8 -36 -71 -113 -170 -129 -461
-36 -649 40 -81 136 -202 197 -247 26 -19 90 -56 142 -82 92 -46 97 -47 205
-51 123 -5 234 16 340 63 32 14 60 23 62 21 7 -7 -144 -66 -214 -82 -149 -37
-362 -13 -486 53 -107 58 -251 226 -296 347 -23 63 -51 221 -51 292 0 122 48
277 118 378 14 21 27 44 28 52 2 15 87 117 125 149 13 11 0 -7 -29 -41 -28
-34 -58 -67 -67 -74 -8 -7 -15 -17 -15 -22 0 -7 5 -6 13 1 8 6 17 8 20 4 4 -3
7 1 7 9 0 19 158 172 224 217 45 31 177 111 183 111 2 0 3 -2 3 -3z m-210
-101 c0 -2 -8 -10 -17 -17 -16 -13 -17 -12 -4 4 13 16 21 21 21 13z m-40 -29
c0 -2 -10 -12 -22 -23 l-23 -19 19 23 c18 21 26 27 26 19z m1075 -16 c21 -6 4
-7 -55 -5 l-85 3 76 -9 c42 -5 105 -18 140 -30 68 -23 133 -65 124 -81 -4 -5
-1 -9 6 -9 7 0 10 -3 6 -6 -9 -10 -146 15 -230 41 -60 19 -97 25 -160 23 l-82
-2 75 -5 75 -6 -110 -6 c-101 -5 -116 -8 -180 -41 -202 -103 -286 -225 -272
-396 2 -37 8 -76 11 -87 3 -11 -1 -5 -10 14 -34 75 -27 189 21 296 54 123 228
258 385 299 54 15 223 19 265 7z m-1317 -93 c-67 -87 -135 -196 -162 -262 -20
-47 -20 -70 -1 -36 8 14 14 21 15 16 0 -5 -10 -24 -22 -44 -30 -48 -38 -242
-14 -355 14 -68 75 -230 76 -202 0 5 17 -19 38 -54 48 -82 161 -199 232 -240
30 -17 50 -31 43 -31 -23 0 -163 102 -207 151 -25 27 -59 73 -75 102 -17 29
-31 48 -31 42 -2 -22 -63 124 -80 190 -39 152 -34 346 12 465 30 77 119 219
179 285 28 30 53 55 56 55 2 0 -24 -37 -59 -82z m1258 -14 c19 -15 19 -15 -1
-6 -11 5 -27 12 -35 15 -13 5 -13 6 1 6 8 1 24 -6 35 -15z m484 -9 c-29 -17
-122 -47 -127 -41 -4 4 124 53 142 54 6 1 -1 -5 -15 -13z m-687 -2 c-7 -2 -19
-2 -25 0 -7 3 -2 5 12 5 14 0 19 -2 13 -5z m84 -9 c-3 -3 -12 -4 -19 -1 -8 3
-5 6 6 6 11 1 17 -2 13 -5z m50 -10 c-3 -3 -12 -4 -19 -1 -8 3 -5 6 6 6 11 1
17 -2 13 -5z m253 -14 c20 -6 21 -8 5 -8 -11 0 -29 3 -40 8 -25 11 1 11 35 0z
m57 -16 c-3 -3 -12 -4 -19 -1 -8 3 -5 6 6 6 11 1 17 -2 13 -5z m-57 -40 c0 -2
-9 0 -20 6 -11 6 -20 13 -20 16 0 2 9 0 20 -6 11 -6 20 -13 20 -16z m-1460
-38 c-83 -125 -114 -240 -114 -411 0 -100 -2 -120 -9 -85 -11 60 -2 211 18
285 18 67 68 181 92 207 8 9 12 21 9 26 -3 5 1 9 9 9 12 0 11 -7 -5 -31z
m1178 -26 c78 -36 134 -88 206 -191 l37 -54 -38 45 c-149 177 -217 220 -360
228 -96 5 -149 -9 -226 -64 -48 -33 -49 -33 -17 -5 74 66 119 81 235 78 78 -3
100 -7 163 -37z m-1285 -55 c-3 -9 -8 -14 -10 -11 -3 3 -2 9 2 15 9 16 15 13
8 -4z m1500 -88 c62 -82 92 -127 84 -127 -3 0 -16 17 -28 37 -12 20 -50 70
-83 112 -33 42 -52 70 -43 63 9 -8 41 -46 70 -85z m201 -6 c4 -5 -3 -7 -14 -4
-23 6 -26 13 -6 13 8 0 17 -4 20 -9z m-48 -40 c-3 -4 6 -19 19 -31 26 -24 34
-47 13 -34 -8 5 -9 2 -5 -9 10 -26 2 -21 -27 17 -24 32 -27 66 -4 66 5 0 7 -4
4 -9z m-59 -156 c21 -42 1 -19 -26 30 -13 22 -15 31 -6 20 9 -11 23 -33 32
-50z m-1590 -197 c-3 -8 -6 -5 -6 6 -1 11 2 17 5 13 3 -3 4 -12 1 -19z m41
-273 c4 -6 -1 -2 -10 8 -10 11 -18 27 -17 36 0 10 4 7 10 -8 5 -14 13 -30 17
-36z m53 -72 c13 -16 12 -17 -3 -4 -10 7 -18 15 -18 17 0 8 8 3 21 -13z m30
-60 c13 -16 12 -17 -3 -4 -17 13 -22 21 -14 21 2 0 10 -8 17 -17z m969 -7 c0
-2 -7 -7 -16 -10 -8 -3 -12 -2 -9 4 6 10 25 14 25 6z m-533 -72 c-3 -3 -12 -4
-19 -1 -8 3 -5 6 6 6 11 1 17 -2 13 -5z m46 -11 c-7 -2 -19 -2 -25 0 -7 3 -2
5 12 5 14 0 19 -2 13 -5z m64 -9 c-3 -3 -12 -4 -19 -1 -8 3 -5 6 6 6 11 1 17
-2 13 -5z"/>
<path d="M5865 2584 c-63 -37 -150 -62 -279 -79 -66 -8 -121 -17 -124 -20 -9
-9 58 -5 173 9 61 8 111 13 113 11 6 -6 -88 -24 -161 -31 -76 -7 -99 -16 -76
-30 8 -4 9 -3 5 4 -12 19 3 14 47 -17 39 -26 47 -28 94 -21 74 12 99 29 181
119 40 45 72 81 70 80 -2 0 -21 -12 -43 -25z m-137 -115 c-10 -5 -47 -12 -82
-16 l-65 -6 22 -19 22 -19 -24 13 c-70 39 -70 38 -11 38 30 1 73 5 95 9 56 12
63 12 43 0z m32 -9 c-32 -22 -122 -42 -133 -31 -8 8 0 11 29 11 21 1 53 7 69
15 35 16 56 19 35 5z"/>
<path d="M5336 2424 c-14 -15 -26 -33 -26 -41 0 -11 6 -8 18 7 26 32 70 30 99
-4 45 -53 21 -145 -44 -173 -47 -19 -79 -10 -104 30 -18 27 -20 28 -14 7 11
-41 32 -55 80 -55 51 0 93 26 115 73 10 21 20 30 30 26 47 -19 94 -23 135 -13
25 6 48 15 51 20 2 4 -9 3 -27 -3 -33 -11 -146 -5 -159 9 -4 4 -11 19 -15 33
l-8 25 28 -27 c15 -16 35 -28 44 -28 10 0 3 8 -16 21 -18 11 -35 29 -38 40 -4
10 -18 33 -32 49 -33 39 -79 41 -117 4z m95 -11 c13 -16 12 -17 -3 -4 -10 7
-18 15 -18 17 0 8 8 3 21 -13z"/>
<path d="M5817 2398 c-14 -24 -44 -65 -68 -93 -42 -49 -42 -49 -5 -15 40 37
111 138 103 146 -2 3 -16 -14 -30 -38z"/>
<path d="M5153 2423 c26 -2 68 -2 95 0 26 2 4 3 -48 3 -52 0 -74 -1 -47 -3z"/>
<path d="M5520 2426 c0 -2 8 -10 18 -17 15 -13 16 -12 3 4 -13 16 -21 21 -21
13z"/>
<path d="M4928 2393 c7 -3 16 -2 19 1 4 3 -2 6 -13 5 -11 0 -14 -3 -6 -6z"/>
<path d="M5739 2353 l-24 -28 28 24 c15 14 27 26 27 28 0 8 -8 1 -31 -24z"/>
<path d="M4936 2355 c4 -8 8 -15 10 -15 2 0 4 7 4 15 0 8 -4 15 -10 15 -5 0
-7 -7 -4 -15z"/>
<path d="M4980 2355 c0 -8 2 -15 4 -15 2 0 6 7 10 15 3 8 1 15 -4 15 -6 0 -10
-7 -10 -15z"/>
<path d="M5020 2359 c0 -5 5 -7 10 -4 6 3 10 8 10 11 0 2 -4 4 -10 4 -5 0 -10
-5 -10 -11z"/>
<path d="M5066 2354 c-5 -14 -4 -15 9 -4 17 14 19 20 6 20 -5 0 -12 -7 -15
-16z"/>
<path d="M5108 2345 c2 -14 6 -25 7 -25 1 0 5 11 7 25 3 16 1 25 -7 25 -8 0
-10 -9 -7 -25z"/>
<path d="M5156 2343 c10 -40 14 -41 14 -5 0 18 -5 32 -10 32 -6 0 -8 -11 -4
-27z"/>
<path d="M4770 2350 c-8 -5 -10 -10 -5 -10 6 0 17 5 25 10 8 5 11 10 5 10 -5
0 -17 -5 -25 -10z"/>
<path d="M5202 2348 c-19 -19 -14 -118 8 -158 l19 -35 -5 32 c-9 48 3 98 32
133 14 16 22 30 16 30 -15 0 -41 -34 -57 -76 l-15 -39 4 43 c2 24 12 52 22 63
14 15 14 19 3 19 -8 0 -20 -5 -27 -12z"/>
<path d="M4662 2300 c-78 -43 -162 -98 -162 -106 0 -3 20 9 45 26 25 17 83 51
128 76 45 24 78 44 72 44 -5 0 -43 -18 -83 -40z"/>
<path d="M4835 2330 c3 -5 8 -10 11 -10 2 0 4 5 4 10 0 6 -5 10 -11 10 -5 0
-7 -4 -4 -10z"/>
<path d="M4781 2321 c-10 -7 -7 -9 12 -8 15 1 27 5 27 10 0 10 -22 9 -39 -2z"/>
<path d="M5350 2326 c0 -2 7 -9 15 -16 9 -7 15 -8 15 -2 0 5 -7 12 -15 16 -8
3 -15 4 -15 2z"/>
<path d="M5588 2313 c6 -2 18 -2 25 0 6 3 1 5 -13 5 -14 0 -19 -2 -12 -5z"/>
<path d="M4828 2291 c-71 -19 -177 -59 -192 -72 -4 -4 39 9 95 29 99 35 110
36 239 37 74 0 147 -3 163 -8 15 -4 27 -4 27 1 0 16 -92 32 -178 31 -51 0
-115 -8 -154 -18z"/>
<path d="M4851 2265 c-72 -16 -164 -45 -159 -51 2 -2 33 6 68 18 81 26 289 29
360 4 45 -15 67 -13 40 5 -60 38 -194 48 -309 24z"/>
<path d="M4812 2223 c-35 -8 -62 -17 -59 -19 4 -5 139 25 146 32 7 7 -21 3
-87 -13z"/>
<path d="M4595 2190 c-11 -12 -45 -37 -77 -56 -32 -20 -58 -40 -58 -45 0 -6
-4 -7 -10 -4 -5 3 -17 -3 -27 -15 -10 -11 -23 -20 -30 -20 -6 0 -15 -4 -18
-10 -10 -16 27 1 53 23 12 11 22 19 23 16 0 -2 2 -12 4 -22 2 -9 -1 -15 -5
-12 -13 8 -60 -17 -53 -28 3 -6 2 -8 -3 -5 -5 3 -18 8 -28 12 -18 6 -18 8 5
34 15 17 10 14 -14 -7 -35 -33 -52 -56 -23 -32 10 8 16 9 21 1 3 -5 0 -10 -7
-10 -10 0 -10 -2 -1 -8 9 -5 -2 -16 -33 -31 -51 -24 -73 -22 -27 3 17 9 22 15
12 16 -9 0 -24 -9 -34 -20 -10 -11 -16 -20 -14 -20 2 0 -23 -28 -56 -63 -33
-35 -74 -90 -92 -122 -30 -57 -74 -192 -72 -225 0 -8 11 23 25 70 14 46 39
108 55 136 37 65 119 172 119 155 0 -9 6 -8 22 3 12 9 27 16 33 16 5 0 -6 -10
-25 -22 -19 -12 -38 -21 -42 -20 -4 1 -27 -31 -53 -72 -45 -73 -97 -199 -109
-266 -3 -19 11 12 32 70 53 143 90 205 153 256 29 24 28 21 -8 -17 -44 -46
-59 -77 -22 -43 18 16 17 12 -5 -20 -33 -50 -33 -66 0 -35 19 17 15 8 -15 -35
-23 -33 -46 -77 -52 -99 -15 -57 -13 -194 5 -257 8 -30 13 -41 11 -25 -11 64
-17 224 -11 257 3 19 13 43 20 54 12 15 11 9 -1 -30 -14 -42 -15 -67 -6 -171
12 -141 36 -206 103 -279 39 -42 126 -106 145 -106 5 0 -12 13 -38 29 -120 77
-182 181 -198 333 -9 88 -5 178 10 206 4 7 6 -18 5 -55 l-3 -68 10 74 c5 41
11 76 14 79 3 3 6 -39 6 -94 1 -54 4 -112 8 -129 4 -16 6 26 5 95 l-3 125 13
-126 c15 -145 39 -201 114 -270 71 -66 142 -94 239 -93 73 0 89 4 155 36 40
20 74 35 76 33 8 -8 -92 -65 -142 -81 -27 -9 -86 -20 -131 -24 -65 -5 -75 -8
-52 -14 39 -12 160 9 222 38 56 26 118 74 110 86 -3 4 3 14 12 21 24 20 73
100 73 118 -1 9 -10 -1 -20 -21 -30 -56 -88 -107 -160 -142 -58 -28 -75 -31
-155 -31 -78 0 -97 4 -140 27 -60 32 -125 97 -156 158 -21 41 -24 59 -25 195
l-2 150 8 -120 c5 -74 14 -133 24 -155 9 -19 13 -25 11 -13 -15 59 -25 145
-24 203 l2 65 8 -64 c8 -64 47 -207 54 -199 2 2 -5 35 -16 73 -10 38 -19 81
-18 95 0 14 7 -3 14 -36 13 -62 46 -137 65 -149 5 -3 1 9 -9 27 -31 53 -51
137 -51 212 0 112 31 206 99 306 22 32 37 61 34 64 -4 3 -1 6 5 6 6 0 35 21
64 47 48 42 179 113 209 113 7 0 10 3 6 6 -13 14 -168 -55 -209 -93 -14 -14
-30 -25 -35 -24 -4 1 -8 -3 -8 -8 0 -5 -4 -13 -9 -18 -5 -5 -6 -3 -2 5 4 7 2
12 -5 12 -20 0 10 29 71 68 30 20 60 35 65 33 6 -1 7 1 3 5 -4 4 -3 13 3 21
18 21 4 15 -16 -7z m-149 -179 c-3 -5 -32 -19 -63 -31 -32 -13 -80 -34 -107
-47 -26 -14 -46 -21 -43 -16 3 5 37 24 76 43 49 23 67 37 58 43 -7 5 -4 6 10
2 13 -3 31 -2 40 4 22 13 36 14 29 2z m-166 -144 c0 -2 -10 -12 -22 -23 l-23
-19 19 23 c18 21 26 27 26 19z"/>
<path d="M5490 2165 c-19 -20 -40 -33 -47 -31 -7 3 -13 1 -13 -4 0 -4 -23 -16
-51 -25 -73 -25 -55 -28 23 -4 52 16 72 28 97 60 40 48 36 50 -9 4z"/>
<path d="M4481 2145 c-35 -24 -69 -49 -75 -56 -6 -6 24 12 67 40 42 28 77 54
77 56 0 7 0 7 -69 -40z"/>
<path d="M4425 2144 l-30 -26 33 22 c17 12 32 23 32 26 0 7 -4 5 -35 -22z"/>
<path d="M4369 2103 c-13 -16 -12 -17 4 -4 16 13 21 21 13 21 -2 0 -10 -8 -17
-17z"/>
<path d="M5423 2082 c-47 -19 -71 -38 -33 -27 31 9 98 44 85 44 -5 0 -29 -8
-52 -17z"/>
<path d="M4289 2039 l-54 -51 58 48 c52 44 62 54 54 54 -2 0 -28 -23 -58 -51z"/>
<path d="M4199 1963 l-24 -28 28 24 c25 23 32 31 24 31 -2 0 -14 -12 -28 -27z"/>
<path d="M4159 1913 c-13 -16 -12 -17 4 -4 9 7 17 15 17 17 0 8 -8 3 -21 -13z"/>
<path d="M3926 1803 c-6 -14 -5 -15 5 -6 7 7 10 15 7 18 -3 3 -9 -2 -12 -12z"/>
<path d="M4071 1763 c-34 -68 -61 -156 -60 -192 0 -14 7 3 15 38 7 36 29 98
48 138 41 86 39 98 -3 16z"/>
<path d="M4148 1717 c-59 -118 -82 -206 -75 -296 9 -127 79 -270 164 -335 35
-26 34 -25 -9 19 -82 83 -129 187 -142 315 -6 55 -3 79 18 146 14 45 37 98 51
118 14 21 23 41 20 46 -3 5 -1 19 5 31 7 11 10 22 8 25 -2 2 -20 -29 -40 -69z"/>
<path d="M4673 1701 c-23 -11 -46 -28 -52 -39 -18 -34 -12 -35 15 -3 15 18 45
37 72 45 26 8 38 15 27 15 -11 0 -39 -8 -62 -18z"/>
<path d="M4660 1640 c-19 -16 -30 -29 -23 -30 6 0 15 5 19 11 3 6 20 19 38 30
17 10 24 19 16 19 -9 0 -31 -13 -50 -30z"/>
<path d="M3898 1490 c-8 -52 4 -163 26 -235 29 -94 136 -243 201 -277 11 -6
-3 12 -32 40 -116 112 -172 239 -182 412 -5 88 -7 98 -13 60z"/>
<path d="M4041 1428 c0 -43 2 -78 7 -78 4 0 6 24 4 52 -5 95 -9 104 -11 26z"/>
<path d="M4640 1486 c-18 -22 -5 -48 22 -44 17 2 23 10 23 28 0 29 -26 38 -45
16z"/>
<path d="M4192 1470 c0 -14 2 -19 5 -12 2 6 2 18 0 25 -3 6 -5 1 -5 -13z"/>
<path d="M4011 1444 c0 -11 3 -14 6 -6 3 7 2 16 -1 19 -3 4 -6 -2 -5 -13z"/>
<path d="M4051 1310 c-1 -17 45 -120 53 -120 3 0 -3 19 -13 43 -11 23 -24 53
-29 67 -6 14 -11 18 -11 10z"/>
<path d="M4801 2135 c-40 -13 -78 -28 -83 -33 -5 -5 22 2 59 14 37 13 80 24
96 24 15 0 27 5 27 10 0 14 -16 12 -99 -15z"/>
<path d="M4837 2114 c-76 -18 -200 -83 -257 -134 l-45 -41 47 35 c188 137 356
175 544 120 49 -14 102 -32 118 -40 34 -17 39 -17 31 -4 -3 5 -55 25 -115 45
-123 39 -217 45 -323 19z"/>
<path d="M4975 2104 c11 -3 67 -19 124 -35 57 -16 113 -29 125 -28 34 1 -164
58 -219 64 -27 2 -41 2 -30 -1z"/>
<path d="M5299 1673 c12 -24 31 -39 31 -25 0 5 -10 17 -21 28 -22 19 -22 19
-10 -3z"/>
<path d="M2497 3146 c-169 -61 -257 -241 -213 -437 22 -101 32 -111 28 -30
-10 170 85 314 233 352 23 6 17 7 -22 4 -56 -3 -77 -11 -68 -26 3 -5 -2 -6
-11 -2 -11 4 -15 3 -10 -5 4 -6 -3 -16 -16 -22 -21 -10 -21 -10 -6 3 10 8 15
16 12 19 -7 7 45 44 82 58 43 17 96 14 135 -5 29 -15 32 -16 21 -2 -25 30 -79
41 -138 28 -42 -10 -64 -22 -101 -59 -36 -37 -43 -40 -28 -17 10 17 30 41 44
53 20 19 22 22 5 13 -11 -5 -38 -32 -59 -58 -21 -26 -43 -52 -48 -58 -14 -14
3 16 20 36 8 9 13 20 11 25 -2 5 0 9 3 9 3 0 20 17 38 37 58 66 147 94 218 67
15 -5 43 -24 61 -42 17 -17 32 -26 32 -20 0 19 -68 72 -107 82 -49 14 -69 13
-116 -3z m-159 -261 c-6 -14 -13 -23 -15 -21 -5 5 15 46 22 46 3 0 -1 -11 -7
-25z m-41 -57 c-2 -13 -4 -5 -4 17 -1 22 1 32 4 23 2 -10 2 -28 0 -40z m0
-100 c-2 -13 -4 -5 -4 17 -1 22 1 32 4 23 2 -10 2 -28 0 -40z"/>
<path d="M6515 3039 c-37 -33 -91 -116 -82 -125 3 -3 15 12 25 33 11 21 41 58
66 81 52 48 45 58 -9 11z"/>
<path d="M4368 3013 c6 -2 18 -2 25 0 6 3 1 5 -13 5 -14 0 -19 -2 -12 -5z"/>
<path d="M2235 2955 c-4 -25 -5 -48 -2 -51 3 -3 9 15 12 41 4 25 5 48 2 51 -3
3 -9 -15 -12 -41z"/>
<path d="M4931 2964 c0 -11 3 -14 6 -6 3 7 2 16 -1 19 -3 4 -6 -2 -5 -13z"/>
<path d="M4460 2950 c-9 -6 -10 -10 -3 -10 6 0 15 5 18 10 8 12 4 12 -15 0z"/>
<path d="M4921 2924 c0 -11 3 -14 6 -6 3 7 2 16 -1 19 -3 4 -6 -2 -5 -13z"/>
<path d="M2506 2905 c-14 -13 -26 -34 -25 -47 0 -13 3 -17 6 -10 6 14 69 16
78 2 3 -5 12 -10 18 -10 25 1 -28 30 -55 30 -35 0 -36 14 -3 36 18 12 38 15
72 11 28 -3 40 -1 32 4 -29 18 -95 10 -123 -16z"/>
<path d="M6372 2803 c-17 -43 -40 -102 -51 -130 -11 -29 -17 -53 -13 -53 10 0
106 249 99 256 -3 3 -19 -30 -35 -73z"/>
<path d="M5375 2819 c-318 -39 -439 -55 -635 -85 -124 -19 -247 -41 -275 -49
-33 -10 -38 -13 -15 -9 161 25 621 88 797 109 200 24 309 45 228 43 -16 0 -61
-4 -100 -9z"/>
<path d="M3010 2745 c0 -8 5 -15 10 -15 6 0 10 7 10 15 0 8 -4 15 -10 15 -5 0
-10 -7 -10 -15z"/>
<path d="M2860 2733 c8 -3 29 -12 45 -20 l30 -14 -24 21 c-13 11 -33 20 -45
19 -14 0 -16 -2 -6 -6z"/>
<path d="M2344 2667 c4 -70 39 -161 73 -188 12 -10 10 -2 -7 26 l-23 40 29
-27 c44 -41 54 -34 13 9 l-34 36 40 -22 40 -22 -35 30 c-19 17 -37 31 -40 31
-13 0 -42 65 -51 108 -8 44 -8 42 -5 -21z"/>
<path d="M3090 2720 c0 -5 5 -10 10 -10 6 0 10 5 10 10 0 6 -4 10 -10 10 -5 0
-10 -4 -10 -10z"/>
<path d="M2985 2697 c-4 -10 -5 -21 -1 -24 10 -10 18 4 13 24 -4 17 -4 17 -12
0z"/>
<path d="M3050 2665 c-7 -9 -8 -15 -2 -15 5 0 12 7 16 15 3 8 4 15 2 15 -2 0
-9 -7 -16 -15z"/>
<path d="M2808 2653 c-28 -18 -48 -52 -48 -83 0 -16 -27 -55 -109 -155 -9 -10
36 32 99 94 63 62 113 114 110 116 -3 1 4 12 14 24 19 21 19 21 -10 21 -16 0
-41 -8 -56 -17z m52 2 c0 -2 -10 -9 -22 -15 -22 -11 -22 -10 -4 4 21 17 26 19
26 11z m-50 -28 c0 -2 -10 -12 -22 -23 l-23 -19 19 23 c18 21 26 27 26 19z
m40 0 c0 -2 -19 -21 -42 -42 l-43 -40 40 43 c36 39 45 47 45 39z"/>
<path d="M2903 2607 c-12 -17 -27 -45 -33 -62 -6 -16 -14 -25 -18 -19 -4 5
-40 -26 -82 -71 l-74 -80 77 75 c83 80 98 85 41 11 l-36 -46 50 52 c28 29 53
63 55 75 4 22 4 22 6 -2 1 -14 5 -31 10 -39 10 -16 35 85 29 119 -3 17 -6 16
-25 -13z m9 -43 c-6 -30 -9 -34 -14 -19 -5 21 9 72 17 63 3 -3 2 -23 -3 -44z"/>
<path d="M2940 2595 c0 -48 -27 -128 -40 -120 -5 3 -11 -3 -15 -14 -6 -20 -35
-42 -70 -54 -16 -6 -15 -3 5 13 14 11 28 20 32 20 8 0 38 54 38 67 0 4 -9 -5
-19 -21 -31 -47 -141 -127 -115 -83 5 7 0 6 -11 -3 -18 -14 -18 -15 3 -18 45
-7 107 20 154 68 l48 47 0 72 c0 39 -2 71 -5 71 -3 0 -5 -20 -5 -45z"/>
<path d="M3870 2566 c-160 -65 -184 -76 -178 -81 5 -5 285 109 297 120 11 11
-20 1 -119 -39z"/>
<path d="M2971 2573 c0 -16 4 -37 8 -48 6 -15 9 -9 12 28 3 33 0 47 -8 47 -8
0 -13 -12 -12 -27z"/>
<path d="M2804 2533 c-21 -26 -33 -44 -27 -40 14 9 77 87 70 87 -3 0 -22 -21
-43 -47z"/>
<path d="M3050 2530 c0 -8 5 -22 10 -30 9 -13 10 -13 10 0 0 8 -5 22 -10 30
-9 13 -10 13 -10 0z"/>
<path d="M2724 2453 c-23 -31 -24 -34 -5 -18 22 19 46 55 38 55 -3 0 -17 -17
-33 -37z"/>
<path d="M2971 2399 c-40 -46 -32 -53 10 -8 29 31 30 31 45 13 13 -17 13 -17
3 9 -7 15 -15 27 -18 26 -3 0 -21 -18 -40 -40z"/>
<path d="M3039 2230 c16 -14 19 -20 8 -20 -8 0 -20 7 -27 15 -7 8 -17 12 -23
8 -16 -10 23 -33 57 -33 34 0 74 19 46 21 -8 1 -18 1 -22 1 -3 -1 -12 5 -18
13 -7 8 -20 15 -29 15 -12 -1 -11 -5 8 -20z"/>
<path d="M6030 2204 c0 -35 -286 -279 -395 -337 -16 -9 -26 -16 -22 -17 28 -1
236 145 334 234 55 51 100 112 89 123 -3 4 -6 2 -6 -3z"/>
<path d="M3740 2135 c-7 -9 -10 -18 -7 -21 3 -3 10 4 17 15 13 25 8 27 -10 6z"/>
<path d="M2440 2136 c0 -2 8 -10 18 -17 15 -13 16 -12 3 4 -13 16 -21 21 -21
13z"/>
<path d="M2610 2100 c0 -5 5 -10 11 -10 5 0 7 5 4 10 -3 6 -8 10 -11 10 -2 0
-4 -4 -4 -10z"/>
<path d="M5814 2049 c-32 -34 -81 -76 -109 -95 -27 -19 -45 -34 -38 -34 28 0
225 171 212 185 -3 2 -32 -23 -65 -56z"/>
<path d="M2505 2080 c3 -5 8 -10 11 -10 2 0 4 5 4 10 0 6 -5 10 -11 10 -5 0
-7 -4 -4 -10z"/>
<path d="M3256 1822 c-8 -203 -6 -245 9 -230 3 3 4 106 3 229 l-3 224 -9 -223z"/>
<path d="M3330 2030 c0 -5 5 -10 11 -10 5 0 7 5 4 10 -3 6 -8 10 -11 10 -2 0
-4 -4 -4 -10z"/>
<path d="M3201 1818 c0 -112 2 -198 4 -193 8 24 12 395 4 395 -5 0 -9 -90 -8
-202z"/>
<path d="M2720 1996 c0 -2 9 -6 20 -9 11 -3 18 -1 14 4 -5 9 -34 13 -34 5z"/>
<path d="M3093 1926 c-74 -62 -104 -100 -97 -123 5 -15 4 -15 -5 -3 -14 21
-37 -37 -45 -115 -6 -63 -1 -53 25 48 6 26 13 46 15 44 2 -1 0 -35 -4 -75 -10
-89 3 -82 18 10 16 104 19 110 114 215 21 24 37 43 35 43 -2 0 -28 -20 -56
-44z"/>
<path d="M2750 1940 c-11 -7 -8 -9 15 -9 17 1 41 5 55 9 22 7 20 8 -15 9 -22
0 -47 -4 -55 -9z"/>
<path d="M2987 1915 c-29 -21 -69 -38 -105 -45 -79 -16 -84 -18 -31 -19 51 -1
131 34 169 74 31 33 25 31 -33 -10z"/>
<path d="M2856 1916 c-68 -21 -88 -37 -66 -51 6 -3 9 -1 8 5 -2 7 31 24 77 40
95 34 80 38 -19 6z"/>
<path d="M3510 1920 c0 -11 5 -20 10 -20 6 0 10 9 10 20 0 11 -4 20 -10 20 -5
0 -10 -9 -10 -20z"/>
<path d="M3139 1840 c-3 -47 -11 -94 -18 -105 l-13 -20 7 20 c4 11 9 47 11 80
l3 60 -14 -75 c-8 -41 -13 -81 -10 -88 6 -17 -70 -99 -114 -122 -20 -11 -29
-19 -20 -20 29 0 105 57 137 105 39 59 57 140 45 203 -9 46 -9 46 -14 -38z"/>
<path d="M3481 1879 c-6 -18 -9 -34 -7 -36 2 -2 9 10 15 28 6 18 9 34 7 36 -2
2 -9 -10 -15 -28z"/>
<path d="M5145 1890 c3 -5 11 -10 16 -10 6 0 7 5 4 10 -3 6 -11 10 -16 10 -6
0 -7 -4 -4 -10z"/>
<path d="M5860 1879 l-25 -20 33 16 c17 8 32 18 32 20 0 10 -16 4 -40 -16z"/>
<path d="M3097 1876 c-3 -8 -11 -52 -18 -98 -10 -75 -25 -125 -34 -116 -2 2 3
30 10 63 19 87 28 141 21 134 -9 -9 -35 -121 -40 -173 l-5 -48 25 23 c13 12
24 29 24 36 0 8 4 11 10 8 5 -3 7 0 4 8 -3 8 -1 49 5 93 9 77 9 99 -2 70z"/>
<path d="M5215 1880 c3 -5 11 -10 16 -10 6 0 7 5 4 10 -3 6 -11 10 -16 10 -6
0 -7 -4 -4 -10z"/>
<path d="M3423 1845 c-3 -9 -3 -18 -1 -21 3 -3 8 4 11 16 6 23 -1 27 -10 5z"/>
<path d="M3496 1845 c-9 -26 -7 -32 5 -12 6 10 9 21 6 23 -2 3 -7 -2 -11 -11z"/>
<path d="M2661 1810 c-36 -16 -81 -50 -81 -63 0 -8 3 -8 11 0 7 7 24 7 56 -3
66 -20 111 -17 168 10 55 27 107 65 88 66 -6 0 -19 -7 -27 -15 -11 -12 -20
-13 -34 -6 -10 6 -27 10 -38 9 -10 0 -41 2 -69 6 -27 3 -61 1 -74 -4z m116
-16 c-4 -4 -30 -12 -59 -20 -29 -7 -44 -13 -32 -13 11 -1 43 6 69 14 63 19 69
13 10 -10 -36 -13 -59 -15 -103 -10 l-57 8 75 17 c85 20 106 23 97 14z m73 -9
c0 -6 -56 -35 -67 -35 -4 1 8 9 27 20 39 22 40 22 40 15z"/>
<path d="M3021 1753 c-7 -40 -11 -78 -8 -85 2 -7 10 20 16 59 7 40 11 78 8 85
-2 7 -10 -20 -16 -59z"/>
<path d="M3406 1795 c4 -8 8 -15 10 -15 2 0 4 7 4 15 0 8 -4 15 -10 15 -5 0
-7 -7 -4 -15z"/>
<path d="M3461 1764 c0 -11 3 -14 6 -6 3 7 2 16 -1 19 -3 4 -6 -2 -5 -13z"/>
<path d="M3361 1754 c0 -11 3 -14 6 -6 3 7 2 16 -1 19 -3 4 -6 -2 -5 -13z"/>
<path d="M3393 1732 c-1 -28 1 -32 7 -17 11 26 12 55 3 55 -5 0 -9 -17 -10
-38z"/>
<path d="M3197 1563 c-11 -10 -8 -43 3 -43 6 0 10 11 10 25 0 26 -2 29 -13 18z"/>
<path d="M3315 1551 c-18 -4 -30 -13 -31 -24 -1 -12 -1 -13 3 -2 3 10 17 15
39 15 l34 0 1 -52 c0 -29 7 -75 15 -103 7 -27 11 -36 9 -20 -3 17 -8 67 -11
113 -4 50 -11 82 -18 81 -6 -1 -24 -4 -41 -8z"/>
<path d="M2745 1531 c-7 -12 12 -24 25 -16 11 7 4 25 -10 25 -5 0 -11 -4 -15
-9z"/>
<path d="M3057 1503 c-21 -53 -48 -146 -43 -150 4 -4 65 180 61 185 -1 2 -9
-14 -18 -35z"/>
<path d="M3481 1330 c0 -8 4 -24 9 -35 5 -13 9 -14 9 -5 0 8 -4 24 -9 35 -5
13 -9 14 -9 5z"/>
<path d="M5121 1214 c0 -11 3 -14 6 -6 3 7 2 16 -1 19 -3 4 -6 -2 -5 -13z"/>
<path d="M5171 1144 c0 -11 3 -14 6 -6 3 7 2 16 -1 19 -3 4 -6 -2 -5 -13z"/>
<path d="M5146 1027 c-19 -69 -76 -194 -118 -256 -12 -19 -17 -31 -10 -27 41
25 159 287 150 333 -2 10 -12 -13 -22 -50z"/>
<path d="M3660 1006 c0 -2 8 -10 18 -17 15 -13 16 -12 3 4 -13 16 -21 21 -21
13z"/>
<path d="M4870 783 c-30 -25 -100 -68 -155 -95 -55 -27 -89 -46 -75 -43 57 14
189 87 240 134 69 63 63 66 -10 4z"/>
<path d="M4878 731 c-31 -26 -78 -57 -103 -70 -26 -13 -44 -25 -41 -28 8 -8
119 56 166 97 64 55 46 56 -22 1z"/>
</g>
</svg>
