<?xml version="1.0" encoding="UTF-8"?>
<svg version="1.1" xmlns="http://www.w3.org/2000/svg" width="225" height="225">
<path d="M0 0 C74.25 0 148.5 0 225 0 C225 74.25 225 148.5 225 225 C150.75 225 76.5 225 0 225 C0 150.75 0 76.5 0 0 Z " fill="#6E630D" transform="translate(0,0)"/>
<path d="M0 0 C25.74 0 51.48 0 78 0 C78 62.7 78 125.4 78 190 C36.42 190 -5.16 190 -48 190 C-44 187 -44 187 -41.5625 185.6875 C-33.09688123 180.11258032 -29.19914558 169.52963086 -27 160 C-26.65596692 157.66822025 -26.32050798 155.33512959 -26 153 C-25.67 152.34 -25.34 151.68 -25 151 C-22.49609375 150.5859375 -22.49609375 150.5859375 -19.4375 150.375 C-17.91962891 150.26285156 -17.91962891 150.26285156 -16.37109375 150.1484375 C-15.58863281 150.09945312 -14.80617187 150.05046875 -14 150 C-14 149.01 -14 148.02 -14 147 C-17.63 146.67 -21.26 146.34 -25 146 C-24.67 142.7 -24.34 139.4 -24 136 C-24 127.75 -24 119.5 -24 111 C-6.51 110.67 10.98 110.34 29 110 C29 109.34 29 108.68 29 108 C28.34 108 27.68 108 27 108 C27 107.34 27 106.68 27 106 C26.34 106 25.68 106 25 106 C25 105.34 25 104.68 25 104 C23.515 103.505 23.515 103.505 22 103 C21.34 102.67 20.68 102.34 20 102 C20 101.34 20 100.68 20 100 C19.34 100 18.68 100 18 100 C18 99.34 18 98.68 18 98 C17.34 98 16.68 98 16 98 C16 97.34 16 96.68 16 96 C15.01 95.67 14.02 95.34 13 95 C11.3125 93.5625 11.3125 93.5625 10 92 C10 91.34 10 90.68 10 90 C9.34 90 8.68 90 8 90 C8 89.34 8 88.68 8 88 C7.01 87.505 7.01 87.505 6 87 C5.33333333 85.33333333 4.66666667 83.66666667 4 82 C3.01 81.505 3.01 81.505 2 81 C-9.81584168 60.45071013 -9.81005957 30.96252225 -4.16796875 8.6171875 C-3 5 -3 5 0 0 Z " fill="#363106" transform="translate(147,0)"/>
</svg>
