<?xml version="1.0" encoding="UTF-8"?>
<svg version="1.1" xmlns="http://www.w3.org/2000/svg" width="540" height="450">
<path d="M0 0 C3.68896193 3.05637821 6.82848626 5.99248949 8.8515625 10.41796875 C8.8515625 11.07796875 8.8515625 11.73796875 8.8515625 12.41796875 C9.48449219 12.24394531 10.11742187 12.06992188 10.76953125 11.890625 C14.96151404 11.24774804 18.94664936 11.56587527 23.1640625 11.85546875 C24.00001953 11.90767578 24.83597656 11.95988281 25.69726562 12.01367188 C27.74907039 12.14264246 29.80037556 12.27951896 31.8515625 12.41796875 C31.8515625 7.46796875 31.8515625 2.51796875 31.8515625 -2.58203125 C51.3215625 -2.58203125 70.7915625 -2.58203125 90.8515625 -2.58203125 C90.8515625 7.31796875 90.8515625 17.21796875 90.8515625 27.41796875 C92.8315625 28.07796875 94.8115625 28.73796875 96.8515625 29.41796875 C99.13139259 30.81879458 101.26166169 32.22110748 103.4140625 33.79296875 C104.32152222 34.45171997 104.32152222 34.45171997 105.24731445 35.1237793 C117.32903043 44.07942392 128.48120774 54.86243661 136.8515625 67.41796875 C139.62418505 67.80191542 142.19479778 68.02139123 144.9765625 68.10546875 C145.73066406 68.13962891 146.48476563 68.17378906 147.26171875 68.20898438 C149.12447451 68.29151153 150.98799576 68.35641586 152.8515625 68.41796875 C152.8515625 70.06796875 152.8515625 71.71796875 152.8515625 73.41796875 C149.2215625 73.74796875 145.5915625 74.07796875 141.8515625 74.41796875 C142.3465625 75.20171875 142.8415625 75.98546875 143.3515625 76.79296875 C144.8515625 79.41796875 144.8515625 79.41796875 144.8515625 81.41796875 C147.4915625 81.41796875 150.1315625 81.41796875 152.8515625 81.41796875 C152.8515625 83.06796875 152.8515625 84.71796875 152.8515625 86.41796875 C151.5315625 86.74796875 150.2115625 87.07796875 148.8515625 87.41796875 C151.1615625 92.36796875 153.4715625 97.31796875 155.8515625 102.41796875 C167.7315625 102.74796875 179.6115625 103.07796875 191.8515625 103.41796875 C191.8515625 123.54796875 191.8515625 143.67796875 191.8515625 164.41796875 C182.2815625 164.41796875 172.7115625 164.41796875 162.8515625 164.41796875 C162.5215625 167.71796875 162.1915625 171.01796875 161.8515625 174.41796875 C161.10936768 177.12167845 160.35873731 179.5785203 159.3515625 182.16796875 C158.96605225 183.17887573 158.96605225 183.17887573 158.57275391 184.21020508 C155.30062189 192.35432631 150.61504986 200.40705489 144.59375 206.82421875 C142.27427545 210.2774275 142.40430631 213.23515812 142.6015625 217.23046875 C142.6840625 219.60234375 142.7665625 221.97421875 142.8515625 224.41796875 C151.1015625 224.41796875 159.3515625 224.41796875 167.8515625 224.41796875 C167.8515625 227.38796875 167.8515625 230.35796875 167.8515625 233.41796875 C164.2215625 233.41796875 160.5915625 233.41796875 156.8515625 233.41796875 C156.8515625 238.36796875 156.8515625 243.31796875 156.8515625 248.41796875 C154.08458984 248.26521484 154.08458984 248.26521484 151.26171875 248.109375 C139.05437097 247.20883257 139.05437097 247.20883257 127.81835938 250.79248047 C124.83030685 254.24999974 123.24885952 258.315292 121.65234375 262.55322266 C118.91283646 268.93259968 112.80934633 274.09269405 106.8515625 277.41796875 C103.14142149 278.65468242 99.70717492 278.98165478 95.8515625 278.41796875 C93.0415279 276.62432964 91.34215782 275.3991594 89.8515625 272.41796875 C89.41647144 268.64010495 89.55397617 266.88881646 91.609375 263.63671875 C92.78113281 262.2909375 92.78113281 262.2909375 93.9765625 260.91796875 C94.74226563 260.02078125 95.50796875 259.12359375 96.296875 258.19921875 C99.06126355 255.18967036 101.96199285 252.3075384 104.8515625 249.41796875 C2.8815625 249.08796875 -99.0884375 248.75796875 -204.1484375 248.41796875 C-204.1484375 243.46796875 -204.1484375 238.51796875 -204.1484375 233.41796875 C-207.7784375 233.41796875 -211.4084375 233.41796875 -215.1484375 233.41796875 C-215.1484375 230.44796875 -215.1484375 227.47796875 -215.1484375 224.41796875 C-207.2284375 224.08796875 -199.3084375 223.75796875 -191.1484375 223.41796875 C-192.3034375 222.20109375 -193.4584375 220.98421875 -194.6484375 219.73046875 C-200.31646572 213.36530337 -206.06420667 205.75489206 -208.1484375 197.41796875 C-218.3784375 197.41796875 -228.6084375 197.41796875 -239.1484375 197.41796875 C-239.1484375 176.95796875 -239.1484375 156.49796875 -239.1484375 135.41796875 C-229.5784375 135.41796875 -220.0084375 135.41796875 -210.1484375 135.41796875 C-209.8184375 134.42796875 -209.4884375 133.43796875 -209.1484375 132.41796875 C-208.53613281 131.81339844 -207.92382812 131.20882812 -207.29296875 130.5859375 C-204.88314863 128.14978055 -203.47979788 125.73178901 -201.8359375 122.73046875 C-198.69454458 117.18883406 -195.17475041 112.34814782 -191.1484375 107.41796875 C-196.7584375 107.08796875 -202.3684375 106.75796875 -208.1484375 106.41796875 C-208.1484375 86.28796875 -208.1484375 66.15796875 -208.1484375 45.41796875 C-201.34089844 45.47339844 -194.53335938 45.52882812 -187.51953125 45.5859375 C-183.15802799 45.5965617 -178.79699933 45.60389045 -174.43554688 45.59960938 C-167.5409791 45.59314762 -160.64786526 45.59764561 -153.75366211 45.67504883 C-119.92569089 46.90075905 -119.92569089 46.90075905 -89.19485474 34.70413208 C-84.35419224 31.66179913 -78.78612665 30.10999332 -73.3984375 28.29296875 C-72.33496094 27.92171875 -71.27148438 27.55046875 -70.17578125 27.16796875 C-66.50862907 25.89122199 -62.8321923 24.64588702 -59.1484375 23.41796875 C-58.15244592 21.35663871 -58.15244592 21.35663871 -57.3984375 18.85546875 C-53.71422681 9.10968878 -46.34201019 2.77846986 -37.0078125 -1.58203125 C-25.71226763 -6.06575898 -10.19584048 -7.50784617 0 0 Z M-209.1484375 134.41796875 C-208.1484375 136.41796875 -208.1484375 136.41796875 -208.1484375 136.41796875 Z " fill="#9CBCEE" transform="translate(298.1484375,130.58203125)"/>
<path d="M0 0 C19.47 0 38.94 0 59 0 C59 9.9 59 19.8 59 30 C60.98 30.66 62.96 31.32 65 32 C67.27983009 33.40082583 69.41009919 34.80313873 71.5625 36.375 C72.16747314 36.81416748 72.77244629 37.25333496 73.39575195 37.70581055 C85.47746793 46.66145517 96.62964524 57.44446786 105 70 C107.77262255 70.38394667 110.34323528 70.60342248 113.125 70.6875 C113.87910156 70.72166016 114.63320313 70.75582031 115.41015625 70.79101562 C117.27291201 70.87354278 119.13643326 70.93844711 121 71 C121 72.65 121 74.3 121 76 C117.37 76.33 113.74 76.66 110 77 C110.495 77.78375 110.99 78.5675 111.5 79.375 C113 82 113 82 113 84 C115.64 84 118.28 84 121 84 C121 85.65 121 87.3 121 89 C119.68 89.33 118.36 89.66 117 90 C119.31 94.95 121.62 99.9 124 105 C135.88 105.33 147.76 105.66 160 106 C160 126.13 160 146.26 160 167 C150.43 167 140.86 167 131 167 C130.67 170.3 130.34 173.6 130 177 C129.25780518 179.7037097 128.50717481 182.16055155 127.5 184.75 C127.24299316 185.42393799 126.98598633 186.09787598 126.72119141 186.79223633 C123.44905939 194.93635756 118.76348736 202.98908614 112.7421875 209.40625 C110.42271295 212.85945875 110.55274381 215.81718937 110.75 219.8125 C110.8325 222.184375 110.915 224.55625 111 227 C119.25 227 127.5 227 136 227 C136 229.97 136 232.94 136 236 C132.37 236 128.74 236 125 236 C125 240.95 125 245.9 125 251 C123.15535156 250.89816406 121.31070313 250.79632813 119.41015625 250.69140625 C107.20280847 249.79086382 107.20280847 249.79086382 95.96679688 253.37451172 C92.97874435 256.83203099 91.39729702 260.89732325 89.80078125 265.13525391 C87.06127396 271.51463093 80.95778383 276.6747253 75 280 C71.28985899 281.23671367 67.85561242 281.56368603 64 281 C61.1899654 279.20636089 59.49059532 277.98119065 58 275 C57.58410651 271.28815058 57.69158756 269.49545888 59.6875 266.2890625 C60.8321875 264.97035156 60.8321875 264.97035156 62 263.625 C63.24136719 262.19414063 63.24136719 262.19414063 64.5078125 260.734375 C72.43570643 252.03605878 80.91389915 244.04146166 91 237.875 C95.2455841 235.17119331 96.56576741 232.78077529 98 228 C96.35 228 94.7 228 93 228 C92.67 226.68 92.34 225.36 92 224 C91.071875 224.061875 90.14375 224.12375 89.1875 224.1875 C86 224 86 224 84.0625 222.9375 C82.3489362 219.81276601 83.23006432 217.37587184 84 214 C84.350625 213.34 84.70125 212.68 85.0625 212 C86.48654038 208.96204718 86.24425367 206.29742459 86 203 C83.37777855 200.37777855 82.02660927 200.71503558 78.375 200.5625 C71.86644062 200.11040845 66.61947807 199.22655636 61.5 194.875 C58.01052197 192.25789148 55.3138449 192.29246406 51 192 C51.56847656 192.12375 52.13695312 192.2475 52.72265625 192.375 C59.30146432 194.13227761 63.40400152 197.15650246 67 203 C67.6875 205.7578125 67.6875 205.7578125 68 208 C68.66 207.67 69.32 207.34 70 207 C71.87379605 206.92966231 73.75001102 206.9156978 75.625 206.9375 C77.12933594 206.95103516 77.12933594 206.95103516 78.6640625 206.96484375 C79.82035156 206.98224609 79.82035156 206.98224609 81 207 C81.66 208.32 82.32 209.64 83 211 C77.68055567 215.45683174 72.81151829 215.75759721 66 216 C66 216.99 66 217.98 66 219 C66.66 219 67.32 219 68 219 C68.061875 219.78375 68.12375 220.5675 68.1875 221.375 C68.455625 222.24125 68.72375 223.1075 69 224 C71.37625345 225.18391223 71.37625345 225.18391223 74 226 C75.6640625 227.5546875 75.6640625 227.5546875 77 229 C74.02076612 229.02772813 71.04180545 229.04717661 68.0625 229.0625 C67.25103516 229.07087891 66.43957031 229.07925781 65.60351562 229.08789062 C60.08319049 229.10888045 54.6017267 228.88322256 49.09375 228.53125 C39.21421241 227.90278352 29.33312569 227.66363826 19.4375 227.4375 C17.63606123 227.39414857 15.83462887 227.35053008 14.03320312 227.30664062 C9.68886941 227.20136318 5.34446633 227.09964813 1 227 C0.505 223.535 0.505 223.535 0 220 C0.74765625 219.72027344 1.4953125 219.44054687 2.265625 219.15234375 C8.88807085 216.64487161 8.88807085 216.64487161 13.5625 211.625 C14.036875 210.42875 14.51125 209.2325 15 208 C15.61875 206.453125 15.61875 206.453125 16.25 204.875 C18.40556021 193.73793891 16.56631995 182.16273856 15.25 171 C15.06695858 169.4194356 14.88393475 167.83886916 14.70092773 166.25830078 C14.23567882 162.27030099 13.75718489 158.28399634 13.27532959 154.29797363 C13.01057724 152.08828042 12.75320783 149.87786733 12.49853516 147.66699219 C12.04404416 143.73322462 11.55619755 139.80405247 11.0625 135.875 C10.9294043 134.71613281 10.79630859 133.55726563 10.65917969 132.36328125 C9.5186736 123.71890845 7.35476716 115.59805028 0.5625 109.6875 C-5.07505202 105.91500279 -11.61375029 104.1174388 -18 102 C-36.7109164 95.30732761 -36.7109164 95.30732761 -41 88 C-42.08301129 84.55459595 -42.51663923 81.58899381 -42 78 C-40.50164464 75.64972259 -38.82619624 73.8883985 -36.8359375 71.94140625 C-34.96232146 69.96015695 -34.02285645 68.29397735 -32.9375 65.8125 C-31.05585604 61.65007549 -28.56929173 59.79335874 -25 57 C-20.47367806 50.74936494 -21.8480226 40.20386043 -21.875 32.875 C-21.87113281 31.81667969 -21.86726563 30.75835937 -21.86328125 29.66796875 C-21.86954933 24.67230667 -21.93040226 19.90656742 -23 15 C-18.17818019 13.67424506 -13.61167933 14.09937561 -8.6875 14.4375 C-7.85154297 14.48970703 -7.01558594 14.54191406 -6.15429688 14.59570312 C-4.10249211 14.72467371 -2.05118694 14.86155021 0 15 C0 10.05 0 5.1 0 0 Z " fill="#DDF1FA" transform="translate(330,128)"/>
<path d="M0 0 C-0.02094727 0.78648926 -0.04189453 1.57297852 -0.06347656 2.38330078 C-0.14687753 5.96373598 -0.19873776 9.54396642 -0.25 13.125 C-0.30027344 14.98125 -0.30027344 14.98125 -0.3515625 16.875 C-0.5695468 25.79078796 -0.5695468 25.79078796 4 33 C4.94875 33.556875 5.8975 34.11375 6.875 34.6875 C10.87752274 37.64936683 12.35795716 40.92257857 14.5078125 45.34375 C15.88665566 48.08288266 15.88665566 48.08288266 18.15234375 50.1328125 C20 52 20 52 20.4375 55.375 C19.82895331 60.41724401 18.70126212 63.62866224 14.68359375 66.8671875 C9.62418546 70.10468848 3.79606429 71.88343804 -1.8125 73.9375 C-18.03249661 79.41705055 -18.03249661 79.41705055 -30 91 C-33.37634628 98.34281918 -34.05734489 106.37848619 -35 114.3125 C-35.16786725 115.68258819 -35.33616883 117.05262324 -35.50488281 118.42260742 C-35.93343644 121.93025902 -36.34805802 125.43941246 -36.75854492 128.94921875 C-36.99162844 130.92889673 -37.23104822 132.90782553 -37.47070312 134.88671875 C-39.54617416 152.0210521 -39.54617416 152.0210521 -40.375 169.25 C-40.38885742 169.93425049 -40.40271484 170.61850098 -40.41699219 171.32348633 C-40.3585218 177.44364361 -38.42011085 182.50060491 -35.4375 187.75 C-31.8258178 191.08386049 -27.60348697 192.42743479 -23 194 C-23.33 196.31 -23.66 198.62 -24 201 C-37.96035149 201.16373678 -51.92055347 201.28659951 -65.88166904 201.3626852 C-72.36456689 201.39920435 -78.84681932 201.44873331 -85.3293457 201.52807617 C-91.58636243 201.60417895 -97.84275871 201.6460002 -104.10020256 201.6641407 C-106.48647771 201.67706682 -108.8727192 201.70230914 -111.25872993 201.7401104 C-114.60365066 201.7909921 -117.9460138 201.79792075 -121.29125977 201.79467773 C-122.76832901 201.83242813 -122.76832901 201.83242813 -124.27523804 201.87094116 C-129.40199477 201.81722208 -132.27022938 201.32775861 -136.00791931 197.67127991 C-138.92951793 194.31179981 -141.46524551 190.71570108 -143.8125 186.9375 C-144.19341797 186.35162109 -144.57433594 185.76574219 -144.96679688 185.16210938 C-147.34655486 181.40700964 -148.55623375 178.33129875 -150 174 C-160.23 174 -170.46 174 -181 174 C-181 153.54 -181 133.08 -181 112 C-171.43 112 -161.86 112 -152 112 C-151.505 110.515 -151.505 110.515 -151 109 C-150.38769531 108.39542969 -149.77539062 107.79085937 -149.14453125 107.16796875 C-146.73471113 104.7318118 -145.33136038 102.31382026 -143.6875 99.3125 C-140.54610708 93.77086531 -137.02631291 88.93017907 -133 84 C-138.61 83.67 -144.22 83.34 -150 83 C-150 62.87 -150 42.74 -150 22 C-143.19246094 22.05542969 -136.38492188 22.11085937 -129.37109375 22.16796875 C-125.00959049 22.17859295 -120.64856183 22.1859217 -116.28710938 22.18164062 C-109.3925416 22.17517887 -102.49942776 22.17967686 -95.60522461 22.25708008 C-61.77725339 23.4827903 -61.77725339 23.4827903 -31.04641724 11.28616333 C-26.20575474 8.24383038 -20.63768915 6.69202457 -15.25 4.875 C-14.18652344 4.50375 -13.12304688 4.1325 -12.02734375 3.75 C-1.25635835 0 -1.25635835 0 0 0 Z M-151 111 C-150 113 -150 113 -150 113 Z " fill="#E7F5FE" transform="translate(240,154)"/>
<path d="M0 0 C5.63803035 -0.29162226 9.07691876 -0.09123706 14 3 C14.474375 3.515625 14.94875 4.03125 15.4375 4.5625 C20.0468358 8.80308894 27.45774652 8.32765246 33.328125 8.55859375 C36 9 36 9 37.8359375 10.328125 C39.81786646 13.17465385 39.34141757 15.64272724 39 19 C38.03238392 21.01586684 37.03432904 23.01753602 36 25 C35.58129447 27.66928121 35.58129447 27.66928121 36 30 C38.5654594 32.5654594 40.47686668 32.54046087 44 33 C44.33 34.32 44.66 35.64 45 37 C46.65 37 48.3 37 50 37 C49.80652588 41.15969367 49.34510856 42.66291722 46.3125 45.625 C44.29892374 47.13637791 42.23639985 48.4980001 40.125 49.875 C36.7461448 52.17262154 33.83245526 54.74801458 30.83203125 57.51171875 C27.63031075 60.11268999 24.75409496 60.1246484 20.78947163 60.12304783 C19.70364585 60.12503888 18.61782008 60.12702993 17.49909049 60.12908131 C16.30163505 60.12616847 15.1041796 60.12325563 13.87043762 60.12025452 C12.60197312 60.12110894 11.33350861 60.12196337 10.02660578 60.12284368 C6.49888461 60.1250853 2.97119365 60.12107189 -0.55652368 60.11606562 C-4.35814246 60.11175655 -8.15975947 60.11320787 -11.96138 60.1139679 C-18.55023288 60.11449284 -25.13907587 60.11134911 -31.72792625 60.10573006 C-41.25435669 60.09761107 -50.78078233 60.09499943 -60.30721585 60.09374207 C-75.76234908 60.09155218 -91.21747705 60.08489379 -106.67260742 60.07543945 C-121.68790663 60.06626371 -136.70320441 60.05918367 -151.71850586 60.05493164 C-152.64368632 60.05466892 -153.56886678 60.05440619 -154.52208301 60.05413551 C-159.16333318 60.05283049 -163.80458337 60.05156678 -168.44583356 60.05032361 C-206.96389277 60.03995295 -245.48194595 60.02226212 -284 60 C-284 55.05 -284 50.1 -284 45 C-287.63 45 -291.26 45 -295 45 C-295 42.03 -295 39.06 -295 36 C-251.11 36 -207.22 36 -162 36 C-162 34.02 -162 32.04 -162 30 C-124.05 30 -86.1 30 -47 30 C-47 31.98 -47 33.96 -47 36 C-45.36140015 35.99214478 -45.36140015 35.99214478 -43.68969727 35.98413086 C-39.55022027 35.96572578 -35.4107467 35.95444139 -31.27124023 35.94506836 C-29.49584338 35.94010781 -27.72045045 35.93333727 -25.94506836 35.92456055 C-16.18835874 35.87761346 -6.49701732 35.99290661 3.24008179 36.64071655 C8.69072335 37.00180834 14.10207316 37.12240342 19.5625 37.0625 C20.39201172 37.05798828 21.22152344 37.05347656 22.07617188 37.04882812 C24.05081534 37.037414 26.0254199 37.01950738 28 37 C26.86433594 36.39671875 25.72867187 35.7934375 24.55859375 35.171875 C21.1171875 33.34375 21.1171875 33.34375 20.0625 30.25 C20.0315625 29.13625 20.0315625 29.13625 20 28 C19.34 28 18.68 28 18 28 C18 27.01 18 26.02 18 25 C19.35544922 24.70996094 19.35544922 24.70996094 20.73828125 24.4140625 C21.91777344 24.15367187 23.09726562 23.89328125 24.3125 23.625 C25.48425781 23.36976563 26.65601563 23.11453125 27.86328125 22.8515625 C31.12920445 22.14304469 31.12920445 22.14304469 34 20 C33.67 19.01 33.34 18.02 33 17 C28.71 17 24.42 17 20 17 C19.195625 15.1746875 19.195625 15.1746875 18.375 13.3125 C15.75997895 8.17325724 12.79867625 5.0390295 7.390625 3.03125 C4.93911397 2.28333138 2.49016737 1.60531737 0 1 C0 0.67 0 0.34 0 0 Z " fill="#6D6D6D" transform="translate(378,319)"/>
<path d="M0 0 C1.13386642 -0.0071553 2.26773285 -0.01431061 3.43595886 -0.02168274 C7.18362731 -0.03859001 10.93010304 -0.01915338 14.67773438 0.00219727 C17.28177998 0.00136877 19.88582553 -0.0010899 22.48986816 -0.00511169 C27.94732391 -0.00962943 33.40443655 0.00621678 38.86181641 0.03417969 C45.165522 0.06623063 51.4686089 0.06621512 57.77235842 0.04896492 C63.84382694 0.03308439 69.9150329 0.03994084 75.98649597 0.05690193 C78.56690463 0.06208793 81.1473311 0.06159691 83.72773743 0.05535698 C87.33320534 0.04991135 90.93762073 0.07026138 94.54296875 0.09765625 C95.61117355 0.09113037 96.67937836 0.08460449 97.779953 0.07788086 C102.25995282 0.13580725 105.01064196 0.18750744 108.93615723 2.47621155 C111.51285687 5.50156284 111.37217047 7.37086962 111.27148438 11.31860352 C111.2481604 12.33627808 111.2481604 12.33627808 111.22436523 13.37451172 C110.89925558 22.22040586 109.6384258 31.01071718 108.49414062 39.77954102 C107.78517211 45.28085556 107.36129726 50.73050584 107.17773438 56.27563477 C106.69346431 59.08346983 105.63004255 60.51056773 103.77148438 62.63110352 C104.43148437 63.29110352 105.09148437 63.95110352 105.77148438 64.63110352 C91.08994253 64.67780191 76.4084105 64.71308174 61.7268095 64.73472786 C54.91005154 64.74504519 48.09333969 64.7591142 41.27661133 64.78198242 C34.70196954 64.80402802 28.12736318 64.81566209 21.55268288 64.820858 C19.04038551 64.82456233 16.52809085 64.83179562 14.01581383 64.84256363 C10.50551997 64.85701515 6.99542609 64.85908411 3.48510742 64.8581543 C2.4392598 64.86534485 1.39341217 64.8725354 0.31587219 64.87994385 C-0.63905121 64.87719452 -1.59397461 64.87444519 -2.57783508 64.87161255 C-3.40837056 64.87345613 -4.23890604 64.87529972 -5.09460926 64.87719917 C-7.22851562 64.63110352 -7.22851562 64.63110352 -10.22851562 62.63110352 C-8.57851562 62.63110352 -6.92851562 62.63110352 -5.22851562 62.63110352 C-5.70232666 62.06625244 -6.1761377 61.50140137 -6.66430664 60.91943359 C-8.33603257 58.47381363 -8.79565765 56.91659451 -9.25585938 54.01782227 C-9.48160645 52.65657227 -9.48160645 52.65657227 -9.71191406 51.26782227 C-9.86176758 50.29458008 -10.01162109 49.32133789 -10.16601562 48.31860352 C-10.50270735 46.24950387 -10.83996397 44.18049609 -11.17773438 42.11157227 C-11.34837402 41.04600098 -11.51901367 39.98042969 -11.69482422 38.88256836 C-12.22319368 35.66352699 -12.7902471 32.45398525 -13.37304688 29.24438477 C-13.55810791 28.21933838 -13.74316895 27.19429199 -13.93383789 26.13818359 C-14.28893386 24.17775459 -14.64733608 22.2179207 -15.00952148 20.25878906 C-17.32890634 7.23401175 -17.32890634 7.23401175 -14.40393066 2.97328186 C-9.72678846 -0.47656676 -5.67411639 -0.06210691 0 0 Z " fill="#AAAAAA" transform="translate(224.228515625,284.368896484375)"/>
<path d="M0 0 C0.33 0.66 0.66 1.32 1 2 C0.67 2.66 0.34 3.32 0 4 C24.75 4 49.5 4 75 4 C75 9.61 75 15.22 75 21 C83.58 21 92.16 21 101 21 C101 22.32 101 23.64 101 25 C92.42 25 83.84 25 75 25 C75 25.66 75 26.32 75 27 C79.95 27 84.9 27 90 27 C90 27.99 90 28.98 90 30 C85.05 30 80.1 30 75 30 C75 30.66 75 31.32 75 32 C81.6 32 88.2 32 95 32 C95 33.32 95 34.64 95 36 C90.71 36.33 86.42 36.66 82 37 C82 38.32 82 39.64 82 41 C79.69 41 77.38 41 75 41 C75 48.59 75 56.18 75 64 C65.88702284 64.13276297 56.7740223 64.26353117 47.66097164 64.39115143 C43.42557492 64.45053655 39.19019203 64.51066718 34.95483398 64.57275391 C30.83746995 64.63307927 26.72007853 64.69111791 22.60266304 64.74781799 C21.06247448 64.76938227 19.52229565 64.79165788 17.98213005 64.81480408 C1.98596932 65.0541475 -13.99854783 65 -30 65 C-30 44.54 -30 24.08 -30 3 C-20.43 3 -10.86 3 -1 3 C-0.67 2.01 -0.34 1.02 0 0 Z " fill="#B9E0E6" transform="translate(89,263)"/>
<path d="M0 0 C24.46637369 -0.04010881 24.46637369 -0.04010881 34.8984375 -0.04882812 C42.01563259 -0.054805 49.1328148 -0.06187453 56.25 -0.07543945 C61.98824072 -0.0863077 67.72646764 -0.09228521 73.46471786 -0.09487724 C75.65355522 -0.09672438 77.84239182 -0.10033134 80.0312233 -0.10573006 C83.0978178 -0.11299269 86.16435531 -0.11398873 89.23095703 -0.11352539 C90.13510849 -0.11712067 91.03925995 -0.12071594 91.97080994 -0.12442017 C92.81205917 -0.1230455 93.65330841 -0.12167084 94.52005005 -0.12025452 C95.60684398 -0.12163721 95.60684398 -0.12163721 96.71559334 -0.12304783 C99.49828655 0.02683983 102.25118934 0.54186489 105 1 C105 20.8 105 40.6 105 61 C70.35 61 35.7 61 0 61 C0 40.87 0 20.74 0 0 Z " fill="#BFE3EF" transform="translate(90,176)"/>
<path d="M0 0 C6.35921813 5.26873849 9.42417864 10.21668536 10.8515625 18.41796875 C11.13057531 22.38030381 11.13130557 26.32226929 11.1015625 30.29296875 C11.11316406 31.83017578 11.11316406 31.83017578 11.125 33.3984375 C11.07993478 51.13160345 11.07993478 51.13160345 5.8515625 56.54296875 C5.3359375 57.10242188 4.8203125 57.661875 4.2890625 58.23828125 C2.8515625 59.41796875 2.8515625 59.41796875 0.8515625 59.41796875 C0.6453125 60.24296875 0.4390625 61.06796875 0.2265625 61.91796875 C-1.83523189 67.16617266 -5.17161859 71.44114984 -9.1484375 75.41796875 C-9.48614395 80.2324505 -8.98793696 84.97895654 -5.9609375 88.85546875 C-3.14990714 91.41662975 -0.64340791 92.95495788 2.8515625 94.41796875 C2.8515625 95.07796875 2.8515625 95.73796875 2.8515625 96.41796875 C-8.81669795 102.94909683 -22.39679221 107.23311848 -35.7890625 103.7265625 C-40.85978154 101.66550493 -45.49833941 98.52579618 -49.1484375 94.41796875 C-49.1484375 93.75796875 -49.1484375 93.09796875 -49.1484375 92.41796875 C-47.46875 91.3046875 -47.46875 91.3046875 -45.2734375 90.10546875 C-42.64153296 88.510516 -41.31110483 87.67552535 -39.6484375 85.04296875 C-38.98319062 81.55042264 -38.65753187 78.97703456 -39.1484375 75.41796875 C-40.49184228 73.47278644 -41.98355482 71.83172859 -43.61328125 70.12109375 C-46.0919938 67.37117347 -48.1484375 64.18678554 -48.1484375 60.41796875 C-48.8703125 60.21171875 -49.5921875 60.00546875 -50.3359375 59.79296875 C-54.49372468 57.7602728 -57.06253994 54.58976387 -59.1484375 50.41796875 C-59.2968334 46.11627974 -59.17899248 41.81861796 -59.07128906 37.5168457 C-59.03966976 36.08865355 -59.01832224 34.66019292 -59.0078125 33.23168945 C-58.92636005 22.28015253 -57.28935308 15.08766787 -50.0859375 6.73046875 C-37.95779728 -4.63140553 -14.18829574 -10.44774505 0 0 Z " fill="#FCCA7A" transform="translate(298.1484375,130.58203125)"/>
<path d="M0 0 C19.8 0 39.6 0 60 0 C60 25.08 60 50.16 60 76 C40.2 76 20.4 76 0 76 C0 50.92 0 25.84 0 0 Z " fill="#BCE2EF" transform="translate(174,70)"/>
<path d="M0 0 C2.375 0.25 2.375 0.25 5 1 C6.3125 3.0625 6.3125 3.0625 7 5 C7.66 5 8.32 5 9 5 C9.66 5.66 10.32 6.32 11 7 C11.67546875 6.72285156 12.3509375 6.44570313 13.046875 6.16015625 C13.93890625 5.79792969 14.8309375 5.43570312 15.75 5.0625 C16.63171875 4.70285156 17.5134375 4.34320313 18.421875 3.97265625 C22.10565214 2.5828676 25.28961317 1.87338034 29.23046875 1.8671875 C30.43606445 1.86525391 30.43606445 1.86525391 31.66601562 1.86328125 C32.91415039 1.86908203 32.91415039 1.86908203 34.1875 1.875 C35.00025391 1.87113281 35.81300781 1.86726563 36.65039062 1.86328125 C48.10648178 1.88150892 57.24590458 2.9335943 66.1484375 10.9296875 C70.85587811 16.03438048 74 20.88356142 74 28 C74.66 28 75.32 28 76 28 C77 32 77 32 77 43 C85.25 43 93.5 43 102 43 C102 45.97 102 48.94 102 52 C98.37 52 94.74 52 91 52 C91 56.95 91 61.9 91 67 C89.15535156 66.89816406 87.31070313 66.79632813 85.41015625 66.69140625 C73.20280847 65.79086382 73.20280847 65.79086382 61.96679688 69.37451172 C58.97874435 72.83203099 57.39729702 76.89732325 55.80078125 81.13525391 C53.06127396 87.51463093 46.95778383 92.6747253 41 96 C37.28985899 97.23671367 33.85561242 97.56368603 30 97 C27.1899654 95.20636089 25.49059532 93.98119065 24 91 C23.58410651 87.28815058 23.69158756 85.49545888 25.6875 82.2890625 C26.450625 81.40992188 27.21375 80.53078125 28 79.625 C29.24136719 78.19414062 29.24136719 78.19414062 30.5078125 76.734375 C38.43570643 68.03605878 46.91389915 60.04146166 57 53.875 C61.2455841 51.17119331 62.56576741 48.78077529 64 44 C62.35 44 60.7 44 59 44 C58.505 42.02 58.505 42.02 58 40 C57.071875 40.061875 56.14375 40.12375 55.1875 40.1875 C52 40 52 40 50.0625 38.9375 C48.3489362 35.81276601 49.23006432 33.37587184 50 30 C50.350625 29.34 50.70125 28.68 51.0625 28 C52.48654038 24.96204718 52.24425367 22.29742459 52 19 C49.37777855 16.37777855 48.02660927 16.71503558 44.375 16.5625 C37.86644062 16.11040845 32.61947807 15.22655636 27.5 10.875 C24.01052197 8.25789148 21.3138449 8.29246406 17 8 C17.56847656 8.12375 18.13695312 8.2475 18.72265625 8.375 C25.30146432 10.13227761 29.40400152 13.15650246 33 19 C33.6875 21.7578125 33.6875 21.7578125 34 24 C34.66 23.67 35.32 23.34 36 23 C37.87379605 22.92966231 39.75001102 22.9156978 41.625 22.9375 C43.12933594 22.95103516 43.12933594 22.95103516 44.6640625 22.96484375 C45.43492187 22.97644531 46.20578125 22.98804688 47 23 C47.99 24.98 47.99 24.98 49 27 C43.68055567 31.45683174 38.81151829 31.75759721 32 32 C32 32.99 32 33.98 32 35 C32.66 35 33.32 35 34 35 C34.061875 35.78375 34.12375 36.5675 34.1875 37.375 C34.455625 38.24125 34.72375 39.1075 35 40 C37.37625345 41.18391223 37.37625345 41.18391223 40 42 C41.6640625 43.5546875 41.6640625 43.5546875 43 45 C33.0818826 45.09230926 23.21919857 45.11661621 13.31884766 44.42822266 C5.20023871 43.89323918 -2.93107393 43.68098049 -11.0625 43.4375 C-11.79956177 43.41535431 -12.53662354 43.39320862 -13.29602051 43.37039185 C-17.53059178 43.2437797 -21.76525058 43.12052778 -26 43 C-26 42.34 -26 41.68 -26 41 C-24.58785687 40.1044946 -23.17542282 39.20944542 -21.76171875 38.31640625 C-19.7732015 36.83052973 -18.34259644 35.21529337 -16.75 33.3125 C-12.62512705 28.41248313 -8.02907279 23.97177229 -3 20 C-2.34 20 -1.68 20 -1 20 C-0.87625 19.2575 -0.7525 18.515 -0.625 17.75 C0 15 0 15 1.25 13.125 C2.46541672 9.68131928 0.43400272 7.21216609 -1 4 C-0.6875 1.5625 -0.6875 1.5625 0 0 Z " fill="#E8E8E8" transform="translate(364,312)"/>
<path d="M0 0 C19.47 0 38.94 0 59 0 C59 25.08 59 50.16 59 76 C39.86 76 20.72 76 1 76 C1 55.87 1 35.74 1 15 C0.67 15 0.34 15 0 15 C0 10.05 0 5.1 0 0 Z " fill="#BCE2EF" transform="translate(330,128)"/>
<path d="M0 0 C5.63803035 -0.29162226 9.07691876 -0.09123706 14 3 C14.474375 3.515625 14.94875 4.03125 15.4375 4.5625 C20.0468358 8.80308894 27.45774652 8.32765246 33.328125 8.55859375 C36 9 36 9 37.8359375 10.328125 C39.81786646 13.17465385 39.34141757 15.64272724 39 19 C38.03238392 21.01586684 37.03432904 23.01753602 36 25 C35.58129447 27.66928121 35.58129447 27.66928121 36 30 C38.5654594 32.5654594 40.47686668 32.54046087 44 33 C44.33 34.32 44.66 35.64 45 37 C46.65 37 48.3 37 50 37 C49.85969405 40.01657791 49.70648535 42.23841273 47.59765625 44.51171875 C46.11095765 45.73256066 44.55865102 46.87246522 43 48 C42.67 47.34 42.34 46.68 42 46 C42.33 45.34 42.66 44.68 43 44 C-124.31 44.495 -124.31 44.495 -295 45 C-295 42.03 -295 39.06 -295 36 C-251.11 36 -207.22 36 -162 36 C-162 34.02 -162 32.04 -162 30 C-124.05 30 -86.1 30 -47 30 C-47 31.98 -47 33.96 -47 36 C-45.36140015 35.99214478 -45.36140015 35.99214478 -43.68969727 35.98413086 C-39.55022027 35.96572578 -35.4107467 35.95444139 -31.27124023 35.94506836 C-29.49584338 35.94010781 -27.72045045 35.93333727 -25.94506836 35.92456055 C-16.18835874 35.87761346 -6.49701732 35.99290661 3.24008179 36.64071655 C8.69072335 37.00180834 14.10207316 37.12240342 19.5625 37.0625 C20.39201172 37.05798828 21.22152344 37.05347656 22.07617188 37.04882812 C24.05081534 37.037414 26.0254199 37.01950738 28 37 C26.86433594 36.39671875 25.72867187 35.7934375 24.55859375 35.171875 C21.1171875 33.34375 21.1171875 33.34375 20.0625 30.25 C20.0315625 29.13625 20.0315625 29.13625 20 28 C19.34 28 18.68 28 18 28 C18 27.01 18 26.02 18 25 C19.35544922 24.70996094 19.35544922 24.70996094 20.73828125 24.4140625 C21.91777344 24.15367187 23.09726562 23.89328125 24.3125 23.625 C25.48425781 23.36976563 26.65601563 23.11453125 27.86328125 22.8515625 C31.12920445 22.14304469 31.12920445 22.14304469 34 20 C33.67 19.01 33.34 18.02 33 17 C28.71 17 24.42 17 20 17 C19.195625 15.1746875 19.195625 15.1746875 18.375 13.3125 C15.75997895 8.17325724 12.79867625 5.0390295 7.390625 3.03125 C4.93911397 2.28333138 2.49016737 1.60531737 0 1 C0 0.67 0 0.34 0 0 Z " fill="#828282" transform="translate(378,319)"/>
<path d="M0 0 C6.3442597 5.25634513 9.46160552 10.21984202 10.8515625 18.41796875 C11.08079901 22.42264005 11.04179813 26.40848679 10.9765625 30.41796875 C10.96753906 31.47886719 10.95851563 32.53976563 10.94921875 33.6328125 C10.92583774 36.22810513 10.89306806 38.8229134 10.8515625 41.41796875 C8.8715625 42.07796875 6.8915625 42.73796875 4.8515625 43.41796875 C4.73039062 44.20042969 4.60921875 44.98289063 4.484375 45.7890625 C4.23300781 47.30693359 4.23300781 47.30693359 3.9765625 48.85546875 C3.73292969 50.36947266 3.73292969 50.36947266 3.484375 51.9140625 C3.27554688 52.74035156 3.06671875 53.56664062 2.8515625 54.41796875 C1.8615625 54.91296875 1.8615625 54.91296875 0.8515625 55.41796875 C0.83738281 54.75410156 0.82320313 54.09023437 0.80859375 53.40625 C0.58107069 47.2454168 0.58107069 47.2454168 -2.7109375 42.29296875 C-3.5153125 41.67421875 -4.3196875 41.05546875 -5.1484375 40.41796875 C-6.045625 41.12953125 -6.045625 41.12953125 -6.9609375 41.85546875 C-10.44033028 44.3407493 -13.18173683 44.53441941 -17.3359375 44.48046875 C-18.23699219 44.47144531 -19.13804687 44.46242187 -20.06640625 44.453125 C-20.75347656 44.44152344 -21.44054687 44.42992187 -22.1484375 44.41796875 C-22.4784375 43.75796875 -22.8084375 43.09796875 -23.1484375 42.41796875 C-22.1996875 41.98484375 -21.2509375 41.55171875 -20.2734375 41.10546875 C-16.94801813 39.62494674 -16.94801813 39.62494674 -15.1484375 36.41796875 C-16.045625 37.12953125 -16.045625 37.12953125 -16.9609375 37.85546875 C-20.07050093 40.07658548 -23.14375833 40.92227064 -26.96875 40.9140625 C-31.9870876 39.77189606 -37.51143759 36.05496866 -41.1484375 32.41796875 C-43.60635779 32.08453324 -43.60635779 32.08453324 -46.1484375 32.41796875 C-48.19971594 35.49488641 -48.42104622 36.35441874 -48.5625 39.8671875 C-48.62050781 41.13852539 -48.62050781 41.13852539 -48.6796875 42.43554688 C-48.72609375 43.7571582 -48.72609375 43.7571582 -48.7734375 45.10546875 C-48.83144531 46.44448242 -48.83144531 46.44448242 -48.890625 47.81054688 C-48.98483968 50.01281495 -49.07045338 52.21507597 -49.1484375 54.41796875 C-49.8084375 54.08796875 -50.4684375 53.75796875 -51.1484375 53.41796875 C-51.67419091 50.91052941 -51.97800228 48.40524597 -52.29296875 45.86328125 C-52.57527344 45.05632812 -52.85757813 44.249375 -53.1484375 43.41796875 C-53.98503906 43.02609375 -54.82164062 42.63421875 -55.68359375 42.23046875 C-58.1484375 40.41796875 -58.1484375 40.41796875 -58.63696289 38.36669922 C-58.82559734 35.659703 -58.82948803 33.00581441 -58.7734375 30.29296875 C-58.79277344 29.3803125 -58.81210938 28.46765625 -58.83203125 27.52734375 C-58.77108972 18.97115278 -55.63394073 13.09710497 -50.0859375 6.73046875 C-37.95779728 -4.63140553 -14.18829574 -10.44774505 0 0 Z " fill="#1A1A19" transform="translate(298.1484375,130.58203125)"/>
<path d="M0 0 C7.08686992 0.36342923 12.5609547 4.4967693 17.375 9.4375 C20.88221146 14.96810268 22.40385367 20.07433514 23.28125 26.5390625 C23.38000931 27.24996536 23.47876862 27.96086823 23.58052063 28.6933136 C23.89779208 31.00256464 24.19967786 33.31348827 24.5 35.625 C24.71548625 37.23514126 24.93122806 38.84524833 25.1472168 40.45532227 C26.49336557 50.60167881 27.72262701 60.76040629 28.8125 70.9375 C28.998125 72.63737061 28.998125 72.63737061 29.1875 74.37158203 C31.8072479 100.2570028 31.8072479 100.2570028 23.75 111 C20.41434562 113.42593046 17.07471093 115.20611994 13 116 C10.75390625 115.5703125 10.75390625 115.5703125 9 115 C9.71422119 114.23212158 9.71422119 114.23212158 10.44287109 113.44873047 C12.50619053 110.20396817 12.60488132 107.64444614 12.9140625 103.8203125 C12.97403412 103.12992889 13.03400574 102.43954529 13.09579468 101.72824097 C13.28454559 99.52798993 13.45537128 97.32680008 13.625 95.125 C13.80547814 92.93079122 13.98965269 90.73693161 14.17562866 88.54318237 C14.34297592 86.54770063 14.50108418 84.55145043 14.65869141 82.55517578 C14.96832127 79.32997544 15.45602988 76.19186997 16 73 C16.16428019 70.25571287 16.27455936 67.55687332 16.3125 64.8125 C16.35600586 63.74612305 16.35600586 63.74612305 16.40039062 62.65820312 C16.43857745 59.53569567 16.43065675 57.53483058 14.43359375 55.0546875 C11.16569111 53.63842151 8.30070744 53.4768846 4.75 53.3125 C2.85507812 53.21388672 2.85507812 53.21388672 0.921875 53.11328125 C-0.04234375 53.07589844 -1.0065625 53.03851563 -2 53 C-8.82726348 37.35418786 -4.43144869 18.07674664 -1 2 C-0.67 1.34 -0.34 0.68 0 0 Z " fill="#829FFB" transform="translate(318,232)"/>
<path d="M0 0 C2.27684923 12.16388533 4.39296442 24.21719983 4.375 36.625 C4.37693359 37.89186646 4.37693359 37.89186646 4.37890625 39.18432617 C4.29095791 44.13191998 3.5727743 48.3068415 2 53 C0.74703125 53.02578125 -0.5059375 53.0515625 -1.796875 53.078125 C-3.44795123 53.13441169 -5.09899155 53.1917589 -6.75 53.25 C-7.575 53.26417969 -8.4 53.27835937 -9.25 53.29296875 C-10.44882813 53.34130859 -10.44882813 53.34130859 -11.671875 53.390625 C-12.77160645 53.4220459 -12.77160645 53.4220459 -13.89355469 53.45410156 C-16.92932025 54.24083914 -18.1419155 55.50090658 -20 58 C-20.37739495 60.73403766 -20.37739495 60.73403766 -19.93359375 63.73828125 C-19.80581543 64.89150879 -19.67803711 66.04473633 -19.54638672 67.23291016 C-18.57566579 73.92559287 -17.3626456 80.5531049 -16.0625 87.1875 C-15.79427488 88.58516245 -15.52669432 89.98294875 -15.25976562 91.38085938 C-14.74810646 94.05407627 -14.22817406 96.72523238 -13.70361328 99.39599609 C-13.2673028 101.63083834 -12.84170353 103.86783553 -12.43310547 106.10791016 C-12.2682666 106.99655762 -12.10342773 107.88520508 -11.93359375 108.80078125 C-11.73141235 109.92673706 -11.73141235 109.92673706 -11.52514648 111.07543945 C-11.02624201 113.30308469 -11.02624201 113.30308469 -9 116 C-15.03286217 115.73187279 -19.31659659 115.15119848 -24 111 C-35.84539582 95.36664562 -29.17629107 70.97020426 -27 53 C-26.83735106 51.618553 -26.67525269 50.23704109 -26.51367188 48.85546875 C-26.10307106 45.35227425 -25.68074952 41.85067285 -25.24963379 38.34994507 C-25.00637017 36.36449164 -24.77017929 34.37817566 -24.53417969 32.3918457 C-23.03502913 20.58099137 -21.13259922 12.1395715 -12 4 C-7.86935439 1.22133785 -5.02169386 0 0 0 Z " fill="#829FFB" transform="translate(229,232)"/>
<path d="M0 0 C4.77435362 1.49586147 8.53749324 3.43560683 12.5625 6.375 C13.16747314 6.81416748 13.77244629 7.25333496 14.39575195 7.70581055 C26.47746793 16.66145517 37.62964524 27.44446786 46 40 C48.77262255 40.38394667 51.34323528 40.60342248 54.125 40.6875 C54.87910156 40.72166016 55.63320313 40.75582031 56.41015625 40.79101562 C58.27291201 40.87354278 60.13643326 40.93844711 62 41 C62 42.65 62 44.3 62 46 C58.37 46.33 54.74 46.66 51 47 C51.495 47.78375 51.99 48.5675 52.5 49.375 C54 52 54 52 54 54 C56.64 54 59.28 54 62 54 C62 55.65 62 57.3 62 59 C47.15 58.67 32.3 58.34 17 58 C17 56.68 17 55.36 17 54 C25.91 53.67 34.82 53.34 44 53 C30.14 52.505 30.14 52.505 16 52 C15.34 50.35 14.68 48.7 14 47 C11.50514718 44.57309545 11.50514718 44.57309545 8.5625 42.375 C6.70272254 40.92382877 4.84791328 39.46624917 3 38 C2.45682129 37.62593018 1.91364258 37.25186035 1.35400391 36.86645508 C-0.81610516 33.87502273 -0.36629469 30.60297609 -0.29296875 27.05078125 C-0.28872391 26.27816452 -0.28447906 25.50554779 -0.28010559 24.70951843 C-0.26332183 22.24349008 -0.22567147 19.77828104 -0.1875 17.3125 C-0.17245271 15.63998577 -0.15876438 13.96745872 -0.14648438 12.29492188 C-0.11341946 8.19629922 -0.06164028 4.09828849 0 0 Z " fill="#E5F4FE" transform="translate(389,158)"/>
<path d="M0 0 C2.375 0.25 2.375 0.25 5 1 C6.3125 3.0625 6.3125 3.0625 7 5 C7.66 5 8.32 5 9 5 C9.66 5.66 10.32 6.32 11 7 C11.66 6.67 12.32 6.34 13 6 C14.54023996 5.93049459 16.08334988 5.91547643 17.625 5.9375 C18.85089844 5.95103516 18.85089844 5.95103516 20.1015625 5.96484375 C20.72804688 5.97644531 21.35453125 5.98804688 22 6 C22 6.33 22 6.66 22 7 C20.35 7.33 18.7 7.66 17 8 C17.56847656 8.12375 18.13695312 8.2475 18.72265625 8.375 C25.30146432 10.13227761 29.40400152 13.15650246 33 19 C33.6875 21.7578125 33.6875 21.7578125 34 24 C34.66 23.67 35.32 23.34 36 23 C37.87379605 22.92966231 39.75001102 22.9156978 41.625 22.9375 C43.12933594 22.95103516 43.12933594 22.95103516 44.6640625 22.96484375 C45.43492187 22.97644531 46.20578125 22.98804688 47 23 C47.99 24.98 47.99 24.98 49 27 C43.68055567 31.45683174 38.81151829 31.75759721 32 32 C32 32.99 32 33.98 32 35 C32.66 35 33.32 35 34 35 C34.061875 35.78375 34.12375 36.5675 34.1875 37.375 C34.455625 38.24125 34.72375 39.1075 35 40 C37.37625345 41.18391223 37.37625345 41.18391223 40 42 C41.6640625 43.5546875 41.6640625 43.5546875 43 45 C33.0818826 45.09230926 23.21919857 45.11661621 13.31884766 44.42822266 C5.20023871 43.89323918 -2.93107393 43.68098049 -11.0625 43.4375 C-11.79956177 43.41535431 -12.53662354 43.39320862 -13.29602051 43.37039185 C-17.53059178 43.2437797 -21.76525058 43.12052778 -26 43 C-26 42.34 -26 41.68 -26 41 C-24.58785687 40.1044946 -23.17542282 39.20944542 -21.76171875 38.31640625 C-19.7732015 36.83052973 -18.34259644 35.21529337 -16.75 33.3125 C-12.62512705 28.41248313 -8.02907279 23.97177229 -3 20 C-2.34 20 -1.68 20 -1 20 C-0.87625 19.2575 -0.7525 18.515 -0.625 17.75 C0 15 0 15 1.25 13.125 C2.46541672 9.68131928 0.43400272 7.21216609 -1 4 C-0.6875 1.5625 -0.6875 1.5625 0 0 Z " fill="#EEEEEE" transform="translate(364,312)"/>
<path d="M0 0 C8.58 0 17.16 0 26 0 C26 2.97 26 5.94 26 9 C22.37 9 18.74 9 15 9 C15 13.95 15 18.9 15 24 C13.15535156 23.89816406 11.31070313 23.79632813 9.41015625 23.69140625 C-2.79719153 22.79086382 -2.79719153 22.79086382 -14.03320312 26.37451172 C-17.02125565 29.83203099 -18.60270298 33.89732325 -20.19921875 38.13525391 C-22.93872604 44.51463093 -29.04221617 49.6747253 -35 53 C-38.71014101 54.23671367 -42.14438758 54.56368603 -46 54 C-48.8100346 52.20636089 -50.50940468 50.98119065 -52 48 C-52.40853694 45.00406243 -52.55941445 42.89263966 -50.91796875 40.2734375 C-49.69054888 38.78072515 -48.34995718 37.38288297 -47 36 C-46.67 36 -46.34 36 -46 36 C-45.67 37.65 -45.34 39.3 -45 41 C-43.68 41.33 -42.36 41.66 -41 42 C-40.67 41.34 -40.34 40.68 -40 40 C-38.94425781 40.10441406 -37.88851563 40.20882812 -36.80078125 40.31640625 C-32.93134869 40.36785216 -32.93134869 40.36785216 -30.48046875 37.83984375 C-29.72378906 36.88207031 -28.96710938 35.92429687 -28.1875 34.9375 C-24.23524205 30.24306231 -20.39006445 26.82331466 -15.2265625 23.53515625 C-11.57217702 21.01555363 -8.69568693 17.83192762 -5.9375 14.375 C-5.20853516 13.48941406 -5.20853516 13.48941406 -4.46484375 12.5859375 C-2.28469721 8.96043096 -2.28469721 8.96043096 0 0 Z " fill="#6D6D6D" transform="translate(440,355)"/>
<path d="M0 0 C0.64066406 0.433125 1.28132813 0.86625 1.94140625 1.3125 C8.90127932 5.91607365 8.90127932 5.91607365 17 6 C19.45413209 4.81762842 21.76653888 3.52847849 24.08203125 2.09375 C26 1 26 1 28 1 C28.14695312 1.66386719 28.29390625 2.32773438 28.4453125 3.01171875 C30.05573813 9.35161275 31.49449824 12.40457028 37 16 C39.21587348 17.27852287 39.21587348 17.27852287 41 18 C41 18.66 41 19.32 41 20 C29.33173955 26.53112808 15.75164529 30.81514973 2.359375 27.30859375 C-2.71134404 25.24753618 -7.34990191 22.10782743 -11 18 C-11 17.34 -11 16.68 -11 16 C-9.3203125 14.88671875 -9.3203125 14.88671875 -7.125 13.6875 C-4.44053551 12.0682992 -3.17649503 11.29927418 -1.5625 8.5625 C-0.93789066 5.71705745 -0.40263453 2.88554745 0 0 Z " fill="#F5BF6F" transform="translate(260,207)"/>
<path d="M0 0 C-0.33 5.94 -0.66 11.88 -1 18 C7.91 17.01 7.91 17.01 17 16 C17 23.90455164 16.78477223 26.38038469 12 32 C6.38844804 36.37701053 1.84869392 37.48021105 -5.140625 37.40625 C-10.62463886 36.62710049 -13.83642568 33.4639005 -17.37890625 29.4296875 C-20.82746126 24.45511686 -20.85833668 18.84022895 -20 13 C-17.60390233 7.92027295 -13.54614197 4.23820321 -9 1 C-6 0 -6 0 0 0 Z " fill="#FD8605" transform="translate(170,189)"/>
<path d="M0 0 C10.56 0 21.12 0 32 0 C32 8.25 32 16.5 32 25 C21.44 25 10.88 25 0 25 C0 16.75 0 8.5 0 0 Z " fill="#FDFEFC" transform="translate(454,240)"/>
<path d="M0 0 C37.29 0 74.58 0 113 0 C113 1.98 113 3.96 113 6 C75.71 6 38.42 6 0 6 C0 4.02 0 2.04 0 0 Z " fill="#555555" transform="translate(217,349)"/>
<path d="M0 0 C10.56 0 21.12 0 32 0 C32 6.93 32 13.86 32 21 C21.44 21 10.88 21 0 21 C0 14.07 0 7.14 0 0 Z " fill="#FDFEFC" transform="translate(454,269)"/>
<path d="M0 0 C4.95 0 9.9 0 15 0 C15 0.66 15 1.32 15 2 C15.51304687 2.23589844 16.02609375 2.47179687 16.5546875 2.71484375 C19.87637391 4.46058629 22.98558559 6.51378936 26.125 8.5625 C32.66360283 12.92123276 32.66360283 12.92123276 40.2265625 14.31640625 C41.2578125 14.35830078 42.2890625 14.40019531 43.3515625 14.44335938 C44.43179688 14.48267578 45.51203125 14.52199219 46.625 14.5625 C47.71296875 14.60568359 48.8009375 14.64886719 49.921875 14.69335938 C52.6144517 14.7996453 55.30712253 14.90168057 58 15 C58 16.32 58 17.64 58 19 C55.03 19.33 52.06 19.66 49 20 C60.38973628 24.23354349 71.99537558 25.59700902 84 27 C83.67 27.66 83.34 28.32 83 29 C52.34060435 30.01495326 25.73532829 23.5394974 2 3 C1.34 2.01 0.68 1.02 0 0 Z " fill="#E5F4FE" transform="translate(369,204)"/>
<path d="M0 0 C0 1.65 0 3.3 0 5 C-3.63 5.33 -7.26 5.66 -11 6 C-10.505 6.78375 -10.01 7.5675 -9.5 8.375 C-8 11 -8 11 -8 13 C-5.36 13 -2.72 13 0 13 C0 14.65 0 16.3 0 18 C-14.85 17.67 -29.7 17.34 -45 17 C-45 15.68 -45 14.36 -45 13 C-36.09 12.67 -27.18 12.34 -18 12 C-31.86 11.505 -31.86 11.505 -46 11 C-45.67 9.68 -45.34 8.36 -45 7 C-40.05 6.67 -35.1 6.34 -30 6 C-31.94090826 4.05909174 -35.47293902 4.60080565 -38.0625 4.4375 C-39.99802734 4.31181641 -39.99802734 4.31181641 -41.97265625 4.18359375 C-43.47119141 4.09271484 -43.47119141 4.09271484 -45 4 C-45 3.01 -45 2.02 -45 1 C-13.67959553 -0.19388403 -13.67959553 -0.19388403 0 0 Z " fill="#E1F2FC" transform="translate(451,199)"/>
<path d="M0 0 C5.63803035 -0.29162226 9.07691876 -0.09123706 14 3 C14.474375 3.515625 14.94875 4.03125 15.4375 4.5625 C20.0468358 8.80308894 27.45774652 8.32765246 33.328125 8.55859375 C36 9 36 9 37.8359375 10.328125 C39.81786646 13.17465385 39.34141757 15.64272724 39 19 C38.03238392 21.01586684 37.03432904 23.01753602 36 25 C35.58129447 27.66928121 35.58129447 27.66928121 36 30 C38.5654594 32.5654594 40.47686668 32.54046087 44 33 C44 34.32 44 35.64 44 37 C26.28098585 37.76576772 26.28098585 37.76576772 21 33 C20.0625 30.25 20.0625 30.25 20 28 C19.34 28 18.68 28 18 28 C18 27.01 18 26.02 18 25 C19.35544922 24.70996094 19.35544922 24.70996094 20.73828125 24.4140625 C21.91777344 24.15367187 23.09726562 23.89328125 24.3125 23.625 C25.48425781 23.36976563 26.65601563 23.11453125 27.86328125 22.8515625 C31.12920445 22.14304469 31.12920445 22.14304469 34 20 C33.505 18.515 33.505 18.515 33 17 C28.71 17 24.42 17 20 17 C19.46375 15.783125 18.9275 14.56625 18.375 13.3125 C15.75997895 8.17325724 12.79867625 5.0390295 7.390625 3.03125 C4.93911397 2.28333138 2.49016737 1.60531737 0 1 C0 0.67 0 0.34 0 0 Z " fill="#454444" transform="translate(378,319)"/>
<path d="M0 0 C-3.39477781 11.61462052 -12.34843522 23.94797456 -23 30 C-26.71014101 31.23671367 -30.14438758 31.56368603 -34 31 C-36.8100346 29.20636089 -38.50940468 27.98119065 -40 25 C-40.40853694 22.00406243 -40.55941445 19.89263966 -38.91796875 17.2734375 C-37.69054888 15.78072515 -36.34995718 14.38288297 -35 13 C-34.67 13 -34.34 13 -34 13 C-33.67 14.65 -33.34 16.3 -33 18 C-31.68 18.33 -30.36 18.66 -29 19 C-28.67 18.34 -28.34 17.68 -28 17 C-26.94683594 17.10570312 -25.89367187 17.21140625 -24.80859375 17.3203125 C-20.92206155 17.36447444 -20.92206155 17.36447444 -18.41015625 14.8046875 C-17.63542969 13.83789062 -16.86070312 12.87109375 -16.0625 11.875 C-6.0108871 0 -6.0108871 0 0 0 Z " fill="#434343" transform="translate(428,378)"/>
<path d="M0 0 C3.2542015 2.83430453 4.5206753 4.68607774 5 9 C5.66 8.67 6.32 8.34 7 8 C8.87379605 7.92966231 10.75001102 7.9156978 12.625 7.9375 C14.12933594 7.95103516 14.12933594 7.95103516 15.6640625 7.96484375 C16.43492187 7.97644531 17.20578125 7.98804688 18 8 C18.66 9.32 19.32 10.64 20 12 C14.68055567 16.45683174 9.81151829 16.75759721 3 17 C2.87625 17.763125 2.7525 18.52625 2.625 19.3125 C2 22 2 22 0 25 C-2.875 25.4375 -2.875 25.4375 -6 25 C-8.63056405 22.88093452 -10.1201243 20.81981355 -12 18 C-14.05003955 16.80767387 -14.05003955 16.80767387 -16 16 C-15.51194254 11.77016864 -13.06331755 8.77940031 -10 6 C-7.96685032 4.80036379 -5.9325948 3.8023549 -3.76953125 2.859375 C-1.80779074 2.0258966 -1.80779074 2.0258966 0 0 Z " fill="#E79F3E" transform="translate(393,327)"/>
<path d="M0 0 C6.93 0 13.86 0 21 0 C21 5.94 21 11.88 21 18 C14.07 18 7.14 18 0 18 C0 12.06 0 6.12 0 0 Z " fill="#FEFEFE" transform="translate(360,181)"/>
<path d="M0 0 C6.27 0 12.54 0 19 0 C19 5.94 19 11.88 19 18 C12.73 18 6.46 18 0 18 C0 12.06 0 6.12 0 0 Z " fill="#FEFEFE" transform="translate(339,181)"/>
<path d="M0 0 C17.82 0 35.64 0 54 0 C54 1.98 54 3.96 54 6 C36.18 6 18.36 6 0 6 C0 4.02 0 2.04 0 0 Z " fill="#FE8500" transform="translate(107,146)"/>
<path d="M0 0 C15.18 0 30.36 0 46 0 C46 1.32 46 2.64 46 4 C38.74 4 31.48 4 24 4 C24 5.65 24 7.3 24 9 C16.08 9 8.16 9 0 9 C0 6.03 0 3.06 0 0 Z " fill="#C7E7F1" transform="translate(403,254)"/>
<path d="M0 0 C0.33 0.66 0.66 1.32 1 2 C0.67 2.66 0.34 3.32 0 4 C24.75 4 49.5 4 75 4 C75 4.33 75 4.66 75 5 C65.852483 5.13284277 56.70493608 5.26334684 47.5573473 5.39115143 C43.30620035 5.45061328 39.05506613 5.51077525 34.80395508 5.57275391 C13.86638171 5.87743511 -7.05964171 6.05419698 -28 6 C-28 24.81 -28 43.62 -28 63 C-28.66 63 -29.32 63 -30 63 C-30 43.2 -30 23.4 -30 3 C-20.43 3 -10.86 3 -1 3 C-0.67 2.01 -0.34 1.02 0 0 Z " fill="#BFE5F2" transform="translate(89,263)"/>
<path d="M0 0 C5.61 0 11.22 0 17 0 C17 5.28 17 10.56 17 16 C11.39 16 5.78 16 0 16 C0 10.72 0 5.44 0 0 Z " fill="#FEFEFE" transform="translate(184,120)"/>
<path d="M0 0 C0.75728394 0.00202423 1.51456787 0.00404846 2.2947998 0.00613403 C3.06787476 0.00517731 3.84094971 0.00422058 4.63745117 0.00323486 C6.27502524 0.00255313 7.91260199 0.00440697 9.5501709 0.00857544 C12.06536901 0.01392382 14.58038854 0.00863027 17.09558105 0.00222778 C18.68282103 0.00288857 20.2700609 0.00416973 21.8572998 0.00613403 C22.99322571 0.00309769 22.99322571 0.00309769 24.15209961 0 C29.46109849 0.02399522 29.46109849 0.02399522 30.5760498 1.13894653 C30.61668813 2.80511768 30.61877081 4.47282748 30.5760498 6.13894653 C25.76046683 6.28460329 20.94479742 6.42682496 16.12902832 6.56619263 C14.49911931 6.61380687 12.86923499 6.66227571 11.23937988 6.71170044 C0.01449982 7.05132324 -11.19397498 7.20369853 -22.4239502 7.13894653 C-22.4239502 6.80894653 -22.4239502 6.47894653 -22.4239502 6.13894653 C-17.1439502 6.13894653 -11.8639502 6.13894653 -6.4239502 6.13894653 C-6.4239502 4.48894653 -6.4239502 2.83894653 -6.4239502 1.13894653 C-4.66322436 -0.6217793 -2.34498729 0.0105987 0 0 Z " fill="#FE8600" transform="translate(130.4239501953125,137.86105346679688)"/>
<path d="M0 0 C0 0.33 0 0.66 0 1 C-4.95 1 -9.9 1 -15 1 C-15 2.65 -15 4.3 -15 6 C-17.03123075 8.03123075 -21.17768866 7.25669618 -23.97265625 7.31640625 C-25.16912025 7.3475779 -25.16912025 7.3475779 -26.38975525 7.37937927 C-28.94724611 7.44496158 -31.5048428 7.50379967 -34.0625 7.5625 C-35.79232882 7.60567699 -37.52214679 7.64929101 -39.25195312 7.69335938 C-43.5011926 7.80065172 -47.7505389 7.90189426 -52 8 C-51.67 5.69 -51.34 3.38 -51 1 C-46.30852117 0.85445577 -41.61695634 0.71222297 -36.92529297 0.57275391 C-35.33705084 0.52510984 -33.74883325 0.47663873 -32.16064453 0.42724609 C-21.43588953 0.09443229 -10.73028548 -0.06619093 0 0 Z " fill="#FE8600" transform="translate(160,153)"/>
<path d="M0 0 C8.58 0 17.16 0 26 0 C26 2.97 26 5.94 26 9 C16.94361322 9.15178302 8.02417777 8.69037426 -1 8 C-0.67 5.36 -0.34 2.72 0 0 Z " fill="#838383" transform="translate(440,355)"/>
<path d="M0 0 C5.02245446 0.478329 8.0674916 1.83689542 12 5 C14.96788373 8.74890577 16 10.15769617 16 15 C10.3297637 16.54642808 4.852795 17.48517081 -1 18 C-1.09945415 11.88909517 -1.0712828 6.02596573 0 0 Z " fill="#8ECB38" transform="translate(172,188)"/>
<path d="M0 0 C5.63803035 -0.29162226 9.07691876 -0.09123706 14 3 C14.474375 3.515625 14.94875 4.03125 15.4375 4.5625 C20.0468358 8.80308894 27.45774652 8.32765246 33.328125 8.55859375 C36 9 36 9 37.84765625 10.3046875 C39.71529208 13.05232801 39.18186464 15.787058 39 19 C37.68 19.33 36.36 19.66 35 20 C34.34 19.01 33.68 18.02 33 17 C29.87442041 16.63469768 29.87442041 16.63469768 26.375 16.8125 C25.18648438 16.83957031 23.99796875 16.86664063 22.7734375 16.89453125 C21.40058594 16.94673828 21.40058594 16.94673828 20 17 C19.78085937 16.48050781 19.56171875 15.96101563 19.3359375 15.42578125 C17.12852592 10.57127042 14.79083722 6.65710299 10 4 C6.71387947 2.78000316 3.40466184 1.82761543 0 1 C0 0.67 0 0.34 0 0 Z " fill="#474645" transform="translate(378,319)"/>
<path d="M0 0 C1.98 0 3.96 0 6 0 C6 11.22 6 22.44 6 34 C4.02 34 2.04 34 0 34 C0 22.78 0 11.56 0 0 Z " fill="#8DCB34" transform="translate(134,283)"/>
<path d="M0 0 C0.66 4.62 1.32 9.24 2 14 C-3.625 17.375 -3.625 17.375 -7.42578125 17.73046875 C-8.61977539 17.85131836 -8.61977539 17.85131836 -9.83789062 17.97460938 C-10.65451172 18.04486328 -11.47113281 18.11511719 -12.3125 18.1875 C-13.14845703 18.26935547 -13.98441406 18.35121094 -14.84570312 18.43554688 C-16.89609388 18.63472769 -18.94793562 18.81887282 -21 19 C-5.10204082 0 -5.10204082 0 0 0 Z " fill="#484949" transform="translate(361,334)"/>
<path d="M0 0 C4.3003125 0.2784375 4.3003125 0.2784375 8.6875 0.5625 C8.6875 8.1525 8.6875 15.7425 8.6875 23.5625 C8.3575 23.5625 8.0275 23.5625 7.6875 23.5625 C6.16977929 16.43463308 5.47622237 9.85157838 5.6875 2.5625 C2.3875 2.5625 -0.9125 2.5625 -4.3125 2.5625 C-3.02358116 19.2675665 -0.8200728 33.89727572 7.39453125 48.734375 C8.6875 51.5625 8.6875 51.5625 7.6875 54.5625 C-1.21164312 37.54180879 -6.93553474 22.08425515 -6.3125 2.5625 C-8.2925 2.5625 -10.2725 2.5625 -12.3125 2.5625 C-12.6425 3.2225 -12.9725 3.8825 -13.3125 4.5625 C-13.6425 3.2425 -13.9725 1.9225 -14.3125 0.5625 C-9.49097542 -0.76317376 -4.92226862 -0.33749405 0 0 Z " fill="#F4FAFE" transform="translate(321.3125,142.4375)"/>
<path d="M0 0 C15.51 0 31.02 0 47 0 C47 1.32 47 2.64 47 4 C31.49 4 15.98 4 0 4 C0 2.68 0 1.36 0 0 Z " fill="#F5FAFC" transform="translate(403,267)"/>
<path d="M0 0 C19.14 0 38.28 0 58 0 C58 0.66 58 1.32 58 2 C39.52 2 21.04 2 2 2 C2 25.1 2 48.2 2 72 C1.67 72 1.34 72 1 72 C0.67 48.24 0.34 24.48 0 0 Z " fill="#C0E8F5" transform="translate(174,70)"/>
<path d="M0 0 C2.31 0 4.62 0 7 0 C7 8.25 7 16.5 7 25 C4.69 25 2.38 25 0 25 C0 16.75 0 8.5 0 0 Z " fill="#F88B14" transform="translate(122,292)"/>
<path d="M0 0 C14.19 0 28.38 0 43 0 C43 1.32 43 2.64 43 4 C28.81 4 14.62 4 0 4 C0 2.68 0 1.36 0 0 Z " fill="#F2F9FB" transform="translate(338,161)"/>
<path d="M0 0 C14.19 0 28.38 0 43 0 C43 1.32 43 2.64 43 4 C28.81 4 14.62 4 0 4 C0 2.68 0 1.36 0 0 Z " fill="#F1F9FB" transform="translate(338,148)"/>
<path d="M0 0 C14.19 0 28.38 0 43 0 C43 1.32 43 2.64 43 4 C28.81 4 14.62 4 0 4 C0 2.68 0 1.36 0 0 Z " fill="#F2F9FB" transform="translate(338,135)"/>
<path d="M0 0 C14.19 0 28.38 0 43 0 C43 1.32 43 2.64 43 4 C28.81 4 14.62 4 0 4 C0 2.68 0 1.36 0 0 Z " fill="#F1F9FB" transform="translate(182,104)"/>
<path d="M0 0 C0 1.65 0 3.3 0 5 C-14.85 4.67 -29.7 4.34 -45 4 C-45 3.01 -45 2.02 -45 1 C-13.67959553 -0.19388403 -13.67959553 -0.19388403 0 0 Z " fill="#BBE2EF" transform="translate(451,199)"/>
<path d="M0 0 C2.31 0 4.62 0 7 0 C7 7.59 7 15.18 7 23 C4.69 23 2.38 23 0 23 C0 15.41 0 7.82 0 0 Z " fill="#F88B15" transform="translate(99,294)"/>
<path d="M0 0 C2.99220268 1.36370299 5.29026529 2.94908083 7.75 5.125 C8.67039062 5.93324219 8.67039062 5.93324219 9.609375 6.7578125 C10.06828125 7.16773438 10.5271875 7.57765625 11 8 C11.2475 7.38125 11.495 6.7625 11.75 6.125 C13.20628639 3.64931313 14.37812506 3.04874998 17 2 C18.0029542 3.14324839 19.00229027 4.28967191 20 5.4375 C20.556875 6.07558594 21.11375 6.71367187 21.6875 7.37109375 C23 9 23 9 23 10 C13.76 10 4.52 10 -5 10 C-4.01574101 5.07870506 -3.1837982 3.59461087 0 0 Z " fill="#98D048" transform="translate(462,276)"/>
<path d="M0 0 C19.47 0 38.94 0 59 0 C59 9.9 59 19.8 59 30 C58.67 30 58.34 30 58 30 C58 20.76 58 11.52 58 2 C39.52 2.33 21.04 2.66 2 3 C1.67 6.96 1.34 10.92 1 15 C0.67 15 0.34 15 0 15 C0 10.05 0 5.1 0 0 Z " fill="#BAE1EE" transform="translate(330,128)"/>
<path d="M0 0 C2.25 0.1875 2.25 0.1875 5 1 C6.36244796 2.64295195 7.69864875 4.30824337 9 6 C9.99 6 10.98 6 12 6 C13.70532323 4.05990478 13.70532323 4.05990478 15 2 C18.15140423 2.34069235 19.60781561 2.58076841 21.8125 4.9375 C23 7 23 7 23 9 C14.09 9 5.18 9 -4 9 C-3.10429689 4.52148447 -2.74999027 3.22824944 0 0 Z " fill="#91CD3D" transform="translate(461,250)"/>
<path d="M0 0 C0 1.65 0 3.3 0 5 C-14.85 4.67 -29.7 4.34 -45 4 C-45 3.01 -45 2.02 -45 1 C-39.87715432 0.85616861 -34.75427065 0.7138046 -29.63134766 0.57275391 C-27.89142782 0.52464701 -26.15151869 0.47615097 -24.41162109 0.42724609 C-21.89944179 0.35670352 -19.38722628 0.28759695 -16.875 0.21875 C-16.10696045 0.19687622 -15.3389209 0.17500244 -14.54760742 0.15246582 C-9.69642816 0.02124583 -4.85297784 -0.01925785 0 0 Z " fill="#BAE2EF" transform="translate(451,212)"/>
<path d="M0 0 C15.18 0 30.36 0 46 0 C46 0.99 46 1.98 46 3 C30.82 3 15.64 3 0 3 C0 2.01 0 1.02 0 0 Z " fill="#FDFEFE" transform="translate(403,281)"/>
<path d="M0 0 C15.18 0 30.36 0 46 0 C46 0.99 46 1.98 46 3 C30.82 3 15.64 3 0 3 C0 2.01 0 1.02 0 0 Z " fill="#FDFDFE" transform="translate(403,254)"/>
<path d="M0 0 C15.18 0 30.36 0 46 0 C46 0.99 46 1.98 46 3 C30.82 3 15.64 3 0 3 C0 2.01 0 1.02 0 0 Z " fill="#FDFDFE" transform="translate(403,240)"/>
<path d="M0 0 C8.91 0 17.82 0 27 0 C27 1.65 27 3.3 27 5 C18.09 5 9.18 5 0 5 C0 3.35 0 1.7 0 0 Z " fill="#FE8700" transform="translate(107,162)"/>
<path d="M0 0 C13.86 0 27.72 0 42 0 C42 0.99 42 1.98 42 3 C28.14 3 14.28 3 0 3 C0 2.01 0 1.02 0 0 Z " fill="#F2F9FB" transform="translate(99,210)"/>
<path d="M0 0 C13.86 0 27.72 0 42 0 C42 0.99 42 1.98 42 3 C28.14 3 14.28 3 0 3 C0 2.01 0 1.02 0 0 Z " fill="#F2F9FB" transform="translate(99,183)"/>
<path d="M0 0 C13.86 0 27.72 0 42 0 C42 0.99 42 1.98 42 3 C28.14 3 14.28 3 0 3 C0 2.01 0 1.02 0 0 Z " fill="#FEFEFE" transform="translate(339,168)"/>
<path d="M0 0 C13.86 0 27.72 0 42 0 C42 0.99 42 1.98 42 3 C28.14 3 14.28 3 0 3 C0 2.01 0 1.02 0 0 Z " fill="#FDFEFE" transform="translate(339,142)"/>
<path d="M0 0 C13.86 0 27.72 0 42 0 C42 0.99 42 1.98 42 3 C28.14 3 14.28 3 0 3 C0 2.01 0 1.02 0 0 Z " fill="#FDFEFE" transform="translate(183,98)"/>
<path d="M0 0 C1.8125 1.0625 1.8125 1.0625 3 3 C2.938125 4.093125 2.87625 5.18625 2.8125 6.3125 C3.01747464 10.3436679 3.28844269 10.77018721 6 13.4375 C6.99 14.283125 7.98 15.12875 9 16 C8.67 16.66 8.34 17.32 8 18 C7.13375 17.01 6.2675 16.02 5.375 15 C2.70526966 12.28322395 2.70526966 12.28322395 -1.125 11.8125 C-2.548125 11.9053125 -2.548125 11.9053125 -4 12 C-6.375 10.875 -6.375 10.875 -8 9 C-8.46822746 5.78929745 -8.57002414 3.90003811 -6.8125 1.125 C-4.34492892 -0.40659584 -2.85480169 -0.42822025 0 0 Z " fill="#F39226" transform="translate(191,77)"/>
<path d="M0 0 C7.65606218 -0.19355213 14.66258031 -0.3479743 22 2 C21.01 2.66 20.02 3.32 19 4 C18.13375 4.8353125 18.13375 4.8353125 17.25 5.6875 C13.97942843 7.59533341 11.64965832 6.64029093 8 6 C5.18762459 6.35974895 5.18762459 6.35974895 3 7 C0 3.375 0 3.375 0 0 Z " fill="#E9A141" transform="translate(394,314)"/>
<path d="M0 0 C1.98 0 3.96 0 6 0 C6 5.94 6 11.88 6 18 C4.02 18 2.04 18 0 18 C0 12.06 0 6.12 0 0 Z " fill="#8DCB35" transform="translate(88,299)"/>
<path d="M0 0 C11.88 0 23.76 0 36 0 C36 0.99 36 1.98 36 3 C24.12 3 12.24 3 0 3 C0 2.01 0 1.02 0 0 Z " fill="#93CD44" transform="translate(154,285)"/>
<path d="M0 0 C8.58 0 17.16 0 26 0 C26 1.32 26 2.64 26 4 C17.09 4 8.18 4 -1 4 C-0.67 2.68 -0.34 1.36 0 0 Z " fill="#BFE3F0" transform="translate(406,206)"/>
<path d="M0 0 C0.66 0 1.32 0 2 0 C1.855625 0.88558594 1.71125 1.77117187 1.5625 2.68359375 C-1.65634898 24.16494009 -1.13305423 46.78258955 10.75 65.80078125 C11.36875 66.88939453 11.36875 66.88939453 12 68 C11.505 68.99 11.505 68.99 11 70 C7.41474437 64.93846264 4.98669298 59.83698402 2.8125 54.0625 C2.43810791 53.07926758 2.43810791 53.07926758 2.05615234 52.07617188 C-1.45075827 42.49424213 -2.31760075 33.76457945 -2.25 23.5625 C-2.25773438 22.39912109 -2.26546875 21.23574219 -2.2734375 20.03710938 C-2.25786757 13.12016697 -1.68289337 6.71528124 0 0 Z " fill="#F5FAFE" transform="translate(200,169)"/>
<path d="M0 0 C32.34 0 64.68 0 98 0 C98 0.33 98 0.66 98 1 C65.66 1 33.32 1 0 1 C0 0.67 0 0.34 0 0 Z " fill="#BAE1EE" transform="translate(90,174)"/>
<path d="M0 0 C0.33 0.66 0.66 1.32 1 2 C3.52733235 2.65555119 3.52733235 2.65555119 6 3 C6.66 4.98 7.32 6.96 8 9 C6.02 9.99 6.02 9.99 4 11 C4.33 11.99 4.66 12.98 5 14 C2.27294446 14.22111261 0.53579338 14.30361625 -1.875 12.9375 C-3.68285443 9.82397293 -2.77648941 7.4046074 -2 4 C-0.9375 1.5625 -0.9375 1.5625 0 0 Z " fill="#E3DFD9" transform="translate(416,338)"/>
<path d="M0 0 C7.92 0 15.84 0 24 0 C24 1.32 24 2.64 24 4 C16.08 4 8.16 4 0 4 C0 2.68 0 1.36 0 0 Z " fill="#F4FAFC" transform="translate(403,286)"/>
<path d="M0 0 C7.92 0 15.84 0 24 0 C24 1.32 24 2.64 24 4 C16.08 4 8.16 4 0 4 C0 2.68 0 1.36 0 0 Z " fill="#F4FAFC" transform="translate(403,245)"/>
<path d="M0 0 C4.03231834 1.58074451 6.49171765 4.4684444 9.375 7.5625 C19.57155972 18.07479155 31.75528482 24.12611526 45 30 C46.33845779 30.65631773 47.67467298 31.31755549 49 32 C44.85770051 33.3807665 42.34837331 31.7690328 38.5625 30.0625 C37.84602295 29.7418457 37.1295459 29.42119141 36.39135742 29.09082031 C23.01323268 22.92341973 7.7407139 12.90118984 0 0 Z " fill="#F8FCFE" transform="translate(336,205)"/>
<path d="M0 0 C0.99 0 1.98 0 3 0 C3.061875 0.78375 3.12375 1.5675 3.1875 2.375 C3.455625 3.24125 3.72375 4.1075 4 5 C6.37625345 6.18391223 6.37625345 6.18391223 9 7 C9.99 7.99 10.98 8.98 12 10 C5.4 10 -1.2 10 -8 10 C-7.01 9.01 -6.02 8.02 -5 7 C-5.33 6.34 -5.66 5.68 -6 5 C-5.38125 4.9175 -4.7625 4.835 -4.125 4.75 C-1.81562433 4.18741541 -1.81562433 4.18741541 -0.75 1.9375 C-0.5025 1.298125 -0.255 0.65875 0 0 Z " fill="#DEDDDB" transform="translate(395,347)"/>
<path d="M0 0 C2.46555007 0.96567378 3.7439597 1.54439888 5.0625 3.890625 C5.371875 4.66921875 5.68125 5.4478125 6 6.25 C11.51585147 17.88710128 21.0689 26.7038577 31.3828125 34.109375 C34 36 34 36 36 38 C31.14297949 37.55927036 28.28530943 35.1734674 24.75 32.0625 C24.17862305 31.56596924 23.60724609 31.06943848 23.01855469 30.55786133 C13.59576274 22.23545444 6.20266669 12.90965489 0 2 C0 1.34 0 0.68 0 0 Z " fill="#F9FCFE" transform="translate(395,161)"/>
<path d="M0 0 C7.26 0 14.52 0 22 0 C22 1.32 22 2.64 22 4 C14.74 4 7.48 4 0 4 C0 2.68 0 1.36 0 0 Z " fill="#BFE3F0" transform="translate(405,219)"/>
<path d="M0 0 C7.26 0 14.52 0 22 0 C22 1.32 22 2.64 22 4 C14.74 4 7.48 4 0 4 C0 2.68 0 1.36 0 0 Z " fill="#F0F8FB" transform="translate(338,174)"/>
<path d="M0 0 C7.26 0 14.52 0 22 0 C22 1.32 22 2.64 22 4 C14.74 4 7.48 4 0 4 C0 2.68 0 1.36 0 0 Z " fill="#F1F9FB" transform="translate(203,122)"/>
<path d="M0 0 C9.24 0 18.48 0 28 0 C28 0.99 28 1.98 28 3 C18.76 3 9.52 3 0 3 C0 2.01 0 1.02 0 0 Z " fill="#FEFEFE" transform="translate(339,155)"/>
<path d="M0 0 C2.97 0 5.94 0 9 0 C9 2.97 9 5.94 9 9 C6.03 9 3.06 9 0 9 C0 6.03 0 3.06 0 0 Z " fill="#F7F9F9" transform="translate(391,281)"/>
<path d="M0 0 C2.97 0 5.94 0 9 0 C9 2.97 9 5.94 9 9 C6.03 9 3.06 9 0 9 C0 6.03 0 3.06 0 0 Z " fill="#F8FBFB" transform="translate(391,267)"/>
<path d="M0 0 C2.97 0 5.94 0 9 0 C9 2.97 9 5.94 9 9 C6.03 9 3.06 9 0 9 C0 6.03 0 3.06 0 0 Z " fill="#F9FBFB" transform="translate(391,240)"/>
<path d="M0 0 C1.98 0 3.96 0 6 0 C6 4.29 6 8.58 6 13 C4.02 13 2.04 13 0 13 C0 8.71 0 4.42 0 0 Z " fill="#8DCB34" transform="translate(111,304)"/>
<path d="M0 0 C2.31 0 4.62 0 7 0 C7 3.63 7 7.26 7 11 C4.69 11 2.38 11 0 11 C0 7.37 0 3.74 0 0 Z " fill="#F98A12" transform="translate(76,306)"/>
<path d="M0 0 C0.33 0 0.66 0 1 0 C1 25.08 1 50.16 1 76 C0.67 76 0.34 76 0 76 C0 50.92 0 25.84 0 0 Z " fill="#BAE1EE" transform="translate(172,70)"/>
<path d="M0 0 C8.25 0 16.5 0 25 0 C25 0.99 25 1.98 25 3 C16.75 3 8.5 3 0 3 C0 2.01 0 1.02 0 0 Z " fill="#91CD3F" transform="translate(154,290)"/>
<path d="M0 0 C8.25 0 16.5 0 25 0 C25 0.99 25 1.98 25 3 C16.75 3 8.5 3 0 3 C0 2.01 0 1.02 0 0 Z " fill="#F1F9FB" transform="translate(99,228)"/>
<path d="M0 0 C8.25 0 16.5 0 25 0 C25 0.99 25 1.98 25 3 C16.75 3 8.5 3 0 3 C0 2.01 0 1.02 0 0 Z " fill="#F0F8FB" transform="translate(99,201)"/>
<path d="M0 0 C2.97 0 5.94 0 9 0 C9 2.64 9 5.28 9 8 C6.03 8 3.06 8 0 8 C0 5.36 0 2.72 0 0 Z " fill="#FCFCFB" transform="translate(391,254)"/>
<path d="M0 0 C7.59 0 15.18 0 23 0 C23 0.99 23 1.98 23 3 C15.41 3 7.82 3 0 3 C0 2.01 0 1.02 0 0 Z " fill="#FDFDFE" transform="translate(403,273)"/>
<path d="M0 0 C7.59 0 15.18 0 23 0 C23 0.99 23 1.98 23 3 C15.41 3 7.82 3 0 3 C0 2.01 0 1.02 0 0 Z " fill="#FDFEFE" transform="translate(403,259)"/>
<path d="M0 0 C0.66 0 1.32 0 2 0 C2.19484938 2.43711614 2.38115178 4.87437398 2.5625 7.3125 C2.61857422 8.00279297 2.67464844 8.69308594 2.73242188 9.40429688 C2.96581505 12.62512274 3.03224218 14.90327345 2 18 C1.70377288 19.31147825 1.41239425 20.62405787 1.125 21.9375 C0.32644103 25.22248121 -0.67613044 27.46486957 -3 30 C-3.33 29.34 -3.66 28.68 -4 28 C-3.34222317 26.32980484 -2.67407507 24.66368417 -2 23 C-1.55262597 20.30198451 -1.55262597 20.30198451 -1.3671875 17.48046875 C-1.28339844 16.45888672 -1.19960938 15.43730469 -1.11328125 14.38476562 C-1.03464844 13.32966797 -0.95601563 12.27457031 -0.875 11.1875 C-0.78863281 10.11306641 -0.70226562 9.03863281 -0.61328125 7.93164062 C-0.40180869 5.28823357 -0.19762846 2.64447211 0 0 Z " fill="#F6FBFE" transform="translate(454,295)"/>
<path d="M0 0 C6.93 0 13.86 0 21 0 C21 0.99 21 1.98 21 3 C14.07 3 7.14 3 0 3 C0 2.01 0 1.02 0 0 Z " fill="#FDFEFE" transform="translate(183,111)"/>
<path d="M0 0 C6.93 0 13.86 0 21 0 C21 0.99 21 1.98 21 3 C14.07 3 7.14 3 0 3 C0 2.01 0 1.02 0 0 Z " fill="#FDFEFE" transform="translate(204,80)"/>
<path d="M0 0 C0.33 0 0.66 0 1 0 C1 20.13 1 40.26 1 61 C0.67 61 0.34 61 0 61 C0 40.87 0 20.74 0 0 Z " fill="#BAE1EF" transform="translate(491,234)"/>
<path d="M0 0 C0.33 0 0.66 0 1 0 C1 20.13 1 40.26 1 61 C0.67 61 0.34 61 0 61 C0 40.87 0 20.74 0 0 Z " fill="#BAE1EE" transform="translate(88,176)"/>
<path d="M0 0 C6.6 0 13.2 0 20 0 C20 0.99 20 1.98 20 3 C13.4 3 6.8 3 0 3 C0 2.01 0 1.02 0 0 Z " fill="#DEF1FB" transform="translate(67,274)"/>
<path d="M0 0 C0.33 0 0.66 0 1 0 C1 19.8 1 39.6 1 60 C0.67 60 0.34 60 0 60 C0 40.2 0 20.4 0 0 Z " fill="#BAE1EE" transform="translate(57,267)"/>
<path d="M0 0 C4.95 0 9.9 0 15 0 C15 1.32 15 2.64 15 4 C10.05 4 5.1 4 0 4 C0 2.68 0 1.36 0 0 Z " fill="#EFF8FB" transform="translate(203,86)"/>
<path d="M0 0 C19.47 0 38.94 0 59 0 C59 0.33 59 0.66 59 1 C39.53 1 20.06 1 0 1 C0 0.67 0 0.34 0 0 Z " fill="#BAE1EE" transform="translate(174,68)"/>
<path d="M0 0 C19.14 0 38.28 0 58 0 C58 0.33 58 0.66 58 1 C38.86 1 19.72 1 0 1 C0 0.67 0 0.34 0 0 Z " fill="#BAE1EE" transform="translate(175,147)"/>
<path d="M0 0 C3.36552887 3.25980545 6.3279363 6.60526075 9.1875 10.3125 C13.54978842 15.73231289 18.39284273 19.91461819 24 24 C23.01 24.33 22.02 24.66 21 25 C13.32822106 18.36927665 5.65786029 11.48679044 0 3 C0 2.01 0 1.02 0 0 Z " fill="#FAFCFE" transform="translate(389,174)"/>
<path d="M0 0 C18.81 0 37.62 0 57 0 C57 0.33 57 0.66 57 1 C38.19 1 19.38 1 0 1 C0 0.67 0 0.34 0 0 Z " fill="#BBE2EF" transform="translate(331,126)"/>
<path d="M0 0 C2.5625 0.1875 2.5625 0.1875 4.5625 2.1875 C4.00694444 6.74305556 4.00694444 6.74305556 2.5625 8.1875 C0.0625 8.3125 0.0625 8.3125 -2.4375 8.1875 C-3.4375 7.1875 -3.4375 7.1875 -3.5625 4.1875 C-3.39891479 0.26145498 -3.39891479 0.26145498 0 0 Z " fill="#BCDFE8" transform="translate(188.4375,78.8125)"/>
<path d="M0 0 C5.61 0 11.22 0 17 0 C17 0.99 17 1.98 17 3 C11.39 3 5.78 3 0 3 C0 2.01 0 1.02 0 0 Z " fill="#91CD40" transform="translate(154,301)"/>
<path d="M0 0 C4.59759742 0.6882206 9.01215409 1.72888296 13.5 2.9375 C14.7684375 3.27652344 16.036875 3.61554688 17.34375 3.96484375 C20.60044436 4.88687794 23.80013326 5.89881129 27 7 C26.34 7.66 25.68 8.32 25 9 C22.14403745 8.2353878 19.29036112 7.46353159 16.4375 6.6875 C15.63763672 6.47416016 14.83777344 6.26082031 14.01367188 6.04101562 C9.1337205 4.70649831 4.60119753 3.10605149 0 1 C0 0.67 0 0.34 0 0 Z " fill="#F9FCFE" transform="translate(423,217)"/>
<path d="M0 0 C0.66 0 1.32 0 2 0 C2.33 2.64 2.66 5.28 3 8 C3.33 6.68 3.66 5.36 4 4 C5.98 6.31 7.96 8.62 10 11 C8.02 11.99 8.02 11.99 6 13 C5.67 12.67 5.34 12.34 5 12 C4.34 12 3.68 12 3 12 C2.67 12.66 2.34 13.32 2 14 C1.34 9.38 0.68 4.76 0 0 Z " fill="#E1E1E1" transform="translate(360,333)"/>
<path d="M0 0 C3.16115776 1.36983503 3.9927092 1.9890638 6 5 C5 6 5 6 2.93359375 6.09765625 C2.10988281 6.08605469 1.28617187 6.07445312 0.4375 6.0625 C-0.38878906 6.05347656 -1.21507812 6.04445313 -2.06640625 6.03515625 C-2.70449219 6.02355469 -3.34257812 6.01195312 -4 6 C-2.84826645 3.53199953 -1.95216435 1.95216435 0 0 Z " fill="#92CD3E" transform="translate(477,278)"/>
<path d="M0 0 C4.29 0 8.58 0 13 0 C13 0.99 13 1.98 13 3 C8.71 3 4.42 3 0 3 C0 2.01 0 1.02 0 0 Z " fill="#FDFEFE" transform="translate(204,129)"/>
<path d="M0 0 C0.33 0 0.66 0 1 0 C1 2.31 1 4.62 1 7 C-1.64 7 -4.28 7 -7 7 C-6.67 5.35 -6.34 3.7 -6 2 C-4.7934375 1.7834375 -4.7934375 1.7834375 -3.5625 1.5625 C-1.07896294 1.25864751 -1.07896294 1.25864751 0 0 Z " fill="#FEE6CC" transform="translate(398,282)"/>
<path d="M0 0 C11.88 0.33 23.76 0.66 36 1 C36 1.33 36 1.66 36 2 C24.12 2 12.24 2 0 2 C0 1.34 0 0.68 0 0 Z " fill="#BCE2EF" transform="translate(454,231)"/>
<path d="M0 0 C5.60109448 -0.28971178 9.14750673 -0.15976306 14 3 C15.875 5.1875 15.875 5.1875 17 7 C13.37819838 7 12.81436377 6.11077282 10 4 C7.42967443 3.01310803 7.42967443 3.01310803 4.75 2.3125 C3.85796875 2.06113281 2.9659375 1.80976563 2.046875 1.55078125 C1.37140625 1.36902344 0.6959375 1.18726563 0 1 C0 0.67 0 0.34 0 0 Z " fill="#6A6A6A" transform="translate(378,319)"/>
<path d="M0 0 C2.125 0.375 2.125 0.375 4 1 C4 2.98 4 4.96 4 7 C2.35 6.67 0.7 6.34 -1 6 C-1.625 4.125 -1.625 4.125 -2 2 C-1.34 1.34 -0.68 0.68 0 0 Z " fill="#E9A242" transform="translate(418,340)"/>
<path d="M0 0 C2.64 0 5.28 0 8 0 C8 0.99 8 1.98 8 3 C6.1875 4.75 6.1875 4.75 4 6 C3.01 5.67 2.02 5.34 1 5 C0.67 3.35 0.34 1.7 0 0 Z " fill="#FDE3C7" transform="translate(391,268)"/>
<path d="M0 0 C5.59363406 4.06133537 10.85963514 8.3791401 16 13 C15.67 13.66 15.34 14.32 15 15 C13.24775086 13.58611621 11.49829345 12.16877217 9.75 10.75 C8.77546875 9.96109375 7.8009375 9.1721875 6.796875 8.359375 C4.38860809 6.32782023 2.10397455 4.34442878 0 2 C0 1.34 0 0.68 0 0 Z " fill="#FAFDFE" transform="translate(389,193)"/>
<path d="M0 0 C0.66 0 1.32 0 2 0 C2 1.98 2 3.96 2 6 C-0.31 6 -2.62 6 -5 6 C-5.33 4.68 -5.66 3.36 -6 2 C-4.7934375 1.7834375 -4.7934375 1.7834375 -3.5625 1.5625 C-1.07896294 1.25864751 -1.07896294 1.25864751 0 0 Z " fill="#FDE1C2" transform="translate(398,242)"/>
<path d="M0 0 C9.24 0 18.48 0 28 0 C28 0.33 28 0.66 28 1 C19.09 1 10.18 1 1 1 C0.67 1.99 0.34 2.98 0 4 C0 2.68 0 1.36 0 0 Z " fill="#BFE3F0" transform="translate(462,296)"/>
<path d="M0 0 C0 0.99 0 1.98 0 3 C-3.13068506 5.91722926 -6.03209924 8.32127275 -10 10 C-10 9.01 -10 8.02 -10 7 C-10.99 6.67 -11.98 6.34 -13 6 C-12.31292969 5.81824219 -11.62585938 5.63648438 -10.91796875 5.44921875 C-10.01691406 5.19785156 -9.11585938 4.94648438 -8.1875 4.6875 C-7.29417969 4.44386719 -6.40085937 4.20023438 -5.48046875 3.94921875 C-2.94752262 2.9799181 -1.7283504 2.04990396 0 0 Z " fill="#DAB36D" transform="translate(284,165)"/>
<path d="M0 0 C2 3.75 2 3.75 2 6 C-2.75 7.125 -2.75 7.125 -5 6 C-4.67 4.68 -4.34 3.36 -4 2 C-2.68 2 -1.36 2 0 2 C0 1.34 0 0.68 0 0 Z " fill="#EAE8E6" transform="translate(382,346)"/>
<path d="M0 0 C9.57 0 19.14 0 29 0 C29 0.33 29 0.66 29 1 C19.43 1 9.86 1 0 1 C0 0.67 0 0.34 0 0 Z " fill="#BBE2EF" transform="translate(60,329)"/>
<path d="M0 0 C8.25 0 16.5 0 25 0 C25 0.33 25 0.66 25 1 C16.75 1 8.5 1 0 1 C0 0.67 0 0.34 0 0 Z " fill="#FE8400" transform="translate(108,168)"/>
<path d="M0 0 C3.3 0 6.6 0 10 0 C10 4.29 10 8.58 10 13 C9.67 13 9.34 13 9 13 C9 9.04 9 5.08 9 1 C6.03 1 3.06 1 0 1 C0 0.67 0 0.34 0 0 Z " fill="#757575" transform="translate(83,365)"/>
<path d="M0 0 C2.97 0 5.94 0 9 0 C9 0.33 9 0.66 9 1 C6.36 1 3.72 1 1 1 C1 4.96 1 8.92 1 13 C0.67 13 0.34 13 0 13 C0 8.71 0 4.42 0 0 Z " fill="#757575" transform="translate(456,365)"/>
<path d="M0 0 C0.33 0.66 0.66 1.32 1 2 C-5.875 6 -5.875 6 -7 6 C-7 4.35 -7 2.7 -7 1 C-6.401875 1.20625 -5.80375 1.4125 -5.1875 1.625 C-2.71549154 2.30671915 -2.71549154 2.30671915 0 0 Z " fill="#FCD3A6" transform="translate(398,256)"/>
<path d="M0 0 C-2 2 -2 2 -5.625 2.125 C-6.73875 2.08375 -7.8525 2.0425 -9 2 C-9 1.34 -9 0.68 -9 0 C-5.62182575 -0.84454356 -3.32534757 -1.10844919 0 0 Z " fill="#DADBDC" transform="translate(347,353)"/>
<path d="M0 0 C0.33 0 0.66 0 1 0 C1 4.29 1 8.58 1 13 C-1.31 13 -3.62 13 -6 13 C-6 12.67 -6 12.34 -6 12 C-4.02 12 -2.04 12 0 12 C0 8.04 0 4.08 0 0 Z " fill="#CBE8F3" transform="translate(328,129)"/>
<path d="M0 0 C5.28 0 10.56 0 16 0 C15.34 0.66 14.68 1.32 14 2 C10.7421875 1.9765625 10.7421875 1.9765625 6.875 1.625 C5.59367187 1.51414063 4.31234375 1.40328125 2.9921875 1.2890625 C2.00476563 1.19367188 1.01734375 1.09828125 0 1 C0 0.67 0 0.34 0 0 Z " fill="#BEE3F0" transform="translate(90,238)"/>
<path d="M0 0 C4.95 0 9.9 0 15 0 C15 0.33 15 0.66 15 1 C10.05 1 5.1 1 0 1 C0 0.67 0 0.34 0 0 Z " fill="#BCE2EF" transform="translate(435,197)"/>
<path d="M0 0 C4.29 0 8.58 0 13 0 C13 0.33 13 0.66 13 1 C8.71 1 4.42 1 0 1 C0 0.67 0 0.34 0 0 Z " fill="#181818" transform="translate(274,124)"/>
<path d="M0 0 C2.97 0 5.94 0 9 0 C9 0.33 9 0.66 9 1 C4.545 1.495 4.545 1.495 0 2 C0 1.34 0 0.68 0 0 Z " fill="#C0E4F0" transform="translate(441,205)"/>
<path d="M0 0 C0.33 0 0.66 0 1 0 C1 2.97 1 5.94 1 9 C0.67 9 0.34 9 0 9 C0 6.03 0 3.06 0 0 Z " fill="#818181" transform="translate(81,355)"/>
<path d="M0 0 C0.33 0 0.66 0 1 0 C1 2.97 1 5.94 1 9 C0.67 9 0.34 9 0 9 C0 6.03 0 3.06 0 0 Z " fill="#E7E7E7" transform="translate(442,345)"/>
<path d="M0 0 C2.64 0 5.28 0 8 0 C8 0.33 8 0.66 8 1 C5.36 1 2.72 1 0 1 C0 0.67 0 0.34 0 0 Z " fill="#414141" transform="translate(394,410)"/>
<path d="M0 0 C0.33 0 0.66 0 1 0 C1 2.64 1 5.28 1 8 C0.67 8 0.34 8 0 8 C0 5.36 0 2.72 0 0 Z " fill="#818181" transform="translate(467,355)"/>
<path d="M0 0 C0.33 0 0.66 0 1 0 C1 1.98 1 3.96 1 6 C0.67 6 0.34 6 0 6 C0 4.02 0 2.04 0 0 Z " fill="#414141" transform="translate(386,397)"/>
<path d="M0 0 C1.98 0 3.96 0 6 0 C6 0.33 6 0.66 6 1 C4.02 1 2.04 1 0 1 C0 0.67 0 0.34 0 0 Z " fill="#BCE2EF" transform="translate(444,210)"/>
<path d="M0 0 C0.33 1.32 0.66 2.64 1 4 C0.01 3.67 -0.98 3.34 -2 3 C-1.34 3 -0.68 3 0 3 C0 2.01 0 1.02 0 0 Z " fill="#74787A" transform="translate(238,150)"/>
<path d="M0 0 C0.33 0 0.66 0 1 0 C1 1.65 1 3.3 1 5 C0.67 5 0.34 5 0 5 C0 3.35 0 1.7 0 0 Z " fill="#FE8500" transform="translate(105,162)"/>
<path d="M0 0 C0.33 0 0.66 0 1 0 C1 1.65 1 3.3 1 5 C0.67 5 0.34 5 0 5 C0 3.35 0 1.7 0 0 Z " fill="#FE8400" transform="translate(107,154)"/>
<path d="M0 0 C0.33 0 0.66 0 1 0 C1 1.65 1 3.3 1 5 C0.67 5 0.34 5 0 5 C0 3.35 0 1.7 0 0 Z " fill="#FF8500" transform="translate(162,139)"/>
<path d="M0 0 C0.99 0.495 0.99 0.495 2 1 C1.67 1.66 1.34 2.32 1 3 C0.67 2.01 0.34 1.02 0 0 Z " fill="#D0DCE4" transform="translate(103,351)"/>
<path d="M0 0 C1 4 1 4 1 4 Z " fill="#E8EAEC" transform="translate(441,340)"/>
<path d="M0 0 C1 4 1 4 1 4 Z " fill="#E5F4FF" transform="translate(461,301)"/>
<path d="M0 0 C1 4 1 4 1 4 Z " fill="#FE8500" transform="translate(105,147)"/>
<path d="M0 0 C1 4 1 4 1 4 Z " fill="#FE8500" transform="translate(162,147)"/>
<path d="M0 0 C4 1 4 1 4 1 Z " fill="#181818" transform="translate(268,125)"/>
<path d="M0 0 C0.99 0.495 0.99 0.495 2 1 C1.01 1.495 1.01 1.495 0 2 C0 1.34 0 0.68 0 0 Z " fill="#CDCDCD" transform="translate(400,380)"/>
<path d="" fill="#E5F4FE" transform="translate(0,0)"/>
<path d="" fill="#E6F4FF" transform="translate(0,0)"/>
<path d="" fill="#E5F4FF" transform="translate(0,0)"/>
<path d="" fill="#BAE1EE" transform="translate(0,0)"/>
<path d="" fill="#BAE1EE" transform="translate(0,0)"/>
<path d="M0 0 C3 1 3 1 3 1 Z " fill="#E5F4FF" transform="translate(216,160)"/>
<path d="M0 0 C3 1 3 1 3 1 Z " fill="#F0F8FF" transform="translate(224,157)"/>
<path d="" fill="#FF8400" transform="translate(0,0)"/>
<path d="M0 0 C3 1 3 1 3 1 Z " fill="#181818" transform="translate(264,126)"/>
<path d="M0 0 C3 1 3 1 3 1 Z " fill="#181818" transform="translate(289,125)"/>
<path d="M0 0 C2 1 2 1 2 1 Z " fill="#424242" transform="translate(403,409)"/>
<path d="M0 0 C2 1 2 1 2 1 Z " fill="#424242" transform="translate(392,409)"/>
<path d="M0 0 C2 1 2 1 2 1 Z " fill="#424242" transform="translate(405,408)"/>
<path d="" fill="#424242" transform="translate(0,0)"/>
<path d="" fill="#424242" transform="translate(0,0)"/>
<path d="" fill="#414141" transform="translate(0,0)"/>
<path d="" fill="#424242" transform="translate(0,0)"/>
<path d="" fill="#424242" transform="translate(0,0)"/>
<path d="" fill="#E3E3E3" transform="translate(0,0)"/>
<path d="" fill="#424242" transform="translate(0,0)"/>
<path d="" fill="#464646" transform="translate(0,0)"/>
<path d="" fill="#E6F4FF" transform="translate(0,0)"/>
<path d="" fill="#E5F4FE" transform="translate(0,0)"/>
<path d="" fill="#E6F5FF" transform="translate(0,0)"/>
<path d="" fill="#E5F4FF" transform="translate(0,0)"/>
<path d="" fill="#E6F5FF" transform="translate(0,0)"/>
<path d="" fill="#E8F5FE" transform="translate(0,0)"/>
<path d="" fill="#FDFEFF" transform="translate(0,0)"/>
<path d="" fill="#FCFEFE" transform="translate(0,0)"/>
<path d="" fill="#E6F5FF" transform="translate(0,0)"/>
<path d="" fill="#E5F4FE" transform="translate(0,0)"/>
<path d="" fill="#F6FBFE" transform="translate(0,0)"/>
<path d="" fill="#E6F4FF" transform="translate(0,0)"/>
<path d="" fill="#E6F5FF" transform="translate(0,0)"/>
<path d="" fill="#E5F4FF" transform="translate(0,0)"/>
<path d="" fill="#E6F5FF" transform="translate(0,0)"/>
<path d="" fill="#E3F4FF" transform="translate(0,0)"/>
<path d="" fill="#FCFDFF" transform="translate(0,0)"/>
<path d="" fill="#E5F4FE" transform="translate(0,0)"/>
<path d="" fill="#F3F9FE" transform="translate(0,0)"/>
<path d="" fill="#E6F5FF" transform="translate(0,0)"/>
<path d="" fill="#E8F5FE" transform="translate(0,0)"/>
<path d="M0 0 C2 1 2 1 2 1 Z " fill="#C6E6F2" transform="translate(448,218)"/>
<path d="" fill="#E6F5FF" transform="translate(0,0)"/>
<path d="" fill="#E6F5FF" transform="translate(0,0)"/>
<path d="" fill="#E5F4FF" transform="translate(0,0)"/>
<path d="M0 0 C2 1 2 1 2 1 Z " fill="#F5FAFF" transform="translate(188,173)"/>
<path d="M0 0 C2 1 2 1 2 1 Z " fill="#E5F4FF" transform="translate(190,172)"/>
<path d="M0 0 C2 1 2 1 2 1 Z " fill="#E6F5FF" transform="translate(411,171)"/>
<path d="M0 0 C2 1 2 1 2 1 Z " fill="#E5F4FE" transform="translate(192,171)"/>
<path d="M0 0 C2 1 2 1 2 1 Z " fill="#E5F4FE" transform="translate(194,170)"/>
<path d="M0 0 C2 1 2 1 2 1 Z " fill="#E5F4FE" transform="translate(196,169)"/>
<path d="M0 0 C2 1 2 1 2 1 Z " fill="#E8F5FF" transform="translate(198,168)"/>
<path d="M0 0 C2 1 2 1 2 1 Z " fill="#F4FAFF" transform="translate(200,167)"/>
<path d="M0 0 C2 1 2 1 2 1 Z " fill="#E5F4FF" transform="translate(202,166)"/>
<path d="M0 0 C2 1 2 1 2 1 Z " fill="#E6F5FF" transform="translate(402,164)"/>
<path d="M0 0 C2 1 2 1 2 1 Z " fill="#E5F4FE" transform="translate(207,164)"/>
<path d="M0 0 C2 1 2 1 2 1 Z " fill="#E5F4FE" transform="translate(209,163)"/>
<path d="M0 0 C2 1 2 1 2 1 Z " fill="#E7F5FE" transform="translate(211,162)"/>
<path d="M0 0 C2 1 2 1 2 1 Z " fill="#E5F4FF" transform="translate(214,161)"/>
<path d="M0 0 C2 1 2 1 2 1 Z " fill="#F6FBFF" transform="translate(396,160)"/>
<path d="M0 0 C2 1 2 1 2 1 Z " fill="#E5F4FF" transform="translate(219,159)"/>
<path d="M0 0 C2 1 2 1 2 1 Z " fill="#E9F6FE" transform="translate(222,158)"/>
<path d="M0 0 C2 1 2 1 2 1 Z " fill="#E4F4FE" transform="translate(391,157)"/>
<path d="M0 0 C2 1 2 1 2 1 Z " fill="#E6F5FF" transform="translate(227,156)"/>
<path d="M0 0 C2 1 2 1 2 1 Z " fill="#E6F4FF" transform="translate(230,155)"/>
<path d="M0 0 C2 1 2 1 2 1 Z " fill="#E4F4FF" transform="translate(233,154)"/>
<path d="" fill="#191919" transform="translate(0,0)"/>
<path d="" fill="#191919" transform="translate(0,0)"/>
<path d="" fill="#191919" transform="translate(0,0)"/>
<path d="" fill="#202121" transform="translate(0,0)"/>
<path d="" fill="#191919" transform="translate(0,0)"/>
<path d="M0 0 C2 1 2 1 2 1 Z " fill="#191919" transform="translate(248,135)"/>
<path d="" fill="#191919" transform="translate(0,0)"/>
<path d="M0 0 C2 1 2 1 2 1 Z " fill="#181818" transform="translate(299,130)"/>
<path d="M0 0 C2 1 2 1 2 1 Z " fill="#181818" transform="translate(255,130)"/>
<path d="M0 0 C2 1 2 1 2 1 Z " fill="#191919" transform="translate(257,129)"/>
<path d="M0 0 C2 1 2 1 2 1 Z " fill="#181818" transform="translate(259,128)"/>
<path d="M0 0 C2 1 2 1 2 1 Z " fill="#191919" transform="translate(261,127)"/>
<path d="M0 0 C2 1 2 1 2 1 Z " fill="#191919" transform="translate(292,126)"/>
<path d="" fill="#424242" transform="translate(0,0)"/>
<path d="" fill="#424242" transform="translate(0,0)"/>
<path d="" fill="#424242" transform="translate(0,0)"/>
<path d="" fill="#424242" transform="translate(0,0)"/>
<path d="" fill="#424242" transform="translate(0,0)"/>
<path d="" fill="#424242" transform="translate(0,0)"/>
<path d="" fill="#414141" transform="translate(0,0)"/>
<path d="" fill="#424242" transform="translate(0,0)"/>
<path d="" fill="#424242" transform="translate(0,0)"/>
<path d="" fill="#424242" transform="translate(0,0)"/>
<path d="" fill="#424242" transform="translate(0,0)"/>
<path d="" fill="#424242" transform="translate(0,0)"/>
<path d="" fill="#424242" transform="translate(0,0)"/>
<path d="" fill="#424242" transform="translate(0,0)"/>
<path d="" fill="#424242" transform="translate(0,0)"/>
<path d="" fill="#424242" transform="translate(0,0)"/>
<path d="" fill="#414141" transform="translate(0,0)"/>
<path d="" fill="#424242" transform="translate(0,0)"/>
<path d="" fill="#424242" transform="translate(0,0)"/>
<path d="" fill="#414141" transform="translate(0,0)"/>
<path d="" fill="#8C8C8C" transform="translate(0,0)"/>
<path d="" fill="#424242" transform="translate(0,0)"/>
<path d="" fill="#A2A2A2" transform="translate(0,0)"/>
<path d="" fill="#424242" transform="translate(0,0)"/>
<path d="" fill="#E9E9E9" transform="translate(0,0)"/>
<path d="" fill="#EAEAEA" transform="translate(0,0)"/>
<path d="" fill="#424242" transform="translate(0,0)"/>
<path d="" fill="#EAEAEA" transform="translate(0,0)"/>
<path d="" fill="#EAEAEA" transform="translate(0,0)"/>
<path d="" fill="#EAEAEA" transform="translate(0,0)"/>
<path d="" fill="#EAF6FE" transform="translate(0,0)"/>
<path d="" fill="#E5F4FE" transform="translate(0,0)"/>
<path d="" fill="#E6F5FF" transform="translate(0,0)"/>
<path d="" fill="#E6F4FE" transform="translate(0,0)"/>
<path d="" fill="#E6F5FF" transform="translate(0,0)"/>
<path d="" fill="#EAF6FF" transform="translate(0,0)"/>
<path d="" fill="#EAF6FF" transform="translate(0,0)"/>
<path d="" fill="#E5F5FF" transform="translate(0,0)"/>
<path d="" fill="#E5F4FE" transform="translate(0,0)"/>
<path d="" fill="#E6F5FF" transform="translate(0,0)"/>
<path d="" fill="#E6F5FF" transform="translate(0,0)"/>
<path d="" fill="#E5F5FF" transform="translate(0,0)"/>
<path d="" fill="#E6F5FF" transform="translate(0,0)"/>
<path d="" fill="#E5F4FE" transform="translate(0,0)"/>
<path d="" fill="#E6F5FF" transform="translate(0,0)"/>
<path d="" fill="#E6F5FF" transform="translate(0,0)"/>
<path d="" fill="#E6F4FF" transform="translate(0,0)"/>
<path d="" fill="#E5F4FF" transform="translate(0,0)"/>
<path d="" fill="#E9F6FF" transform="translate(0,0)"/>
<path d="" fill="#F7FCFF" transform="translate(0,0)"/>
<path d="" fill="#BBE1EF" transform="translate(0,0)"/>
<path d="" fill="#E6F5FF" transform="translate(0,0)"/>
<path d="" fill="#E6F5FF" transform="translate(0,0)"/>
<path d="" fill="#E6F5FF" transform="translate(0,0)"/>
<path d="" fill="#E6F5FF" transform="translate(0,0)"/>
<path d="" fill="#E6F5FF" transform="translate(0,0)"/>
<path d="" fill="#E6F5FF" transform="translate(0,0)"/>
<path d="" fill="#E5F5FF" transform="translate(0,0)"/>
<path d="" fill="#EAF6FF" transform="translate(0,0)"/>
<path d="" fill="#BBE2EF" transform="translate(0,0)"/>
<path d="" fill="#E5F4FF" transform="translate(0,0)"/>
<path d="" fill="#E5F4FF" transform="translate(0,0)"/>
<path d="" fill="#E6F5FF" transform="translate(0,0)"/>
<path d="" fill="#E6F4FF" transform="translate(0,0)"/>
<path d="" fill="#E6F5FF" transform="translate(0,0)"/>
<path d="" fill="#E6F5FE" transform="translate(0,0)"/>
<path d="" fill="#E6F5FF" transform="translate(0,0)"/>
<path d="" fill="#E6F5FF" transform="translate(0,0)"/>
<path d="" fill="#E6F5FF" transform="translate(0,0)"/>
<path d="" fill="#E6F5FF" transform="translate(0,0)"/>
<path d="" fill="#E6F5FF" transform="translate(0,0)"/>
<path d="" fill="#E6F5FF" transform="translate(0,0)"/>
<path d="" fill="#E6F5FF" transform="translate(0,0)"/>
<path d="" fill="#E6F5FF" transform="translate(0,0)"/>
<path d="" fill="#E6F4FE" transform="translate(0,0)"/>
<path d="" fill="#E5F4FE" transform="translate(0,0)"/>
<path d="" fill="#E6F4FF" transform="translate(0,0)"/>
<path d="" fill="#E6F5FF" transform="translate(0,0)"/>
<path d="" fill="#E6F5FF" transform="translate(0,0)"/>
<path d="" fill="#E6F5FF" transform="translate(0,0)"/>
<path d="" fill="#E6F5FF" transform="translate(0,0)"/>
<path d="" fill="#E6F5FF" transform="translate(0,0)"/>
<path d="" fill="#E6F5FF" transform="translate(0,0)"/>
<path d="" fill="#E6F5FF" transform="translate(0,0)"/>
<path d="" fill="#E5F5FF" transform="translate(0,0)"/>
<path d="" fill="#E6F5FF" transform="translate(0,0)"/>
<path d="" fill="#E6F5FF" transform="translate(0,0)"/>
<path d="" fill="#E6F4FF" transform="translate(0,0)"/>
<path d="" fill="#E6F5FF" transform="translate(0,0)"/>
<path d="" fill="#E5F4FF" transform="translate(0,0)"/>
<path d="" fill="#F1F9FF" transform="translate(0,0)"/>
<path d="" fill="#F4FAFE" transform="translate(0,0)"/>
<path d="" fill="#E5F4FF" transform="translate(0,0)"/>
<path d="" fill="#DCF0FB" transform="translate(0,0)"/>
<path d="" fill="#FF8400" transform="translate(0,0)"/>
<path d="" fill="#191919" transform="translate(0,0)"/>
<path d="" fill="#BAE1EE" transform="translate(0,0)"/>
<path d="" fill="#9AA4AA" transform="translate(0,0)"/>
<path d="" fill="#191919" transform="translate(0,0)"/>
<path d="" fill="#181818" transform="translate(0,0)"/>
<path d="" fill="#191919" transform="translate(0,0)"/>
<path d="" fill="#191919" transform="translate(0,0)"/>
<path d="" fill="#181818" transform="translate(0,0)"/>
<path d="" fill="#191919" transform="translate(0,0)"/>
<path d="" fill="#191919" transform="translate(0,0)"/>
<path d="" fill="#191919" transform="translate(0,0)"/>
<path d="" fill="#181818" transform="translate(0,0)"/>
<path d="" fill="#191919" transform="translate(0,0)"/>
<path d="" fill="#191919" transform="translate(0,0)"/>
<path d="" fill="#181818" transform="translate(0,0)"/>
<path d="" fill="#191919" transform="translate(0,0)"/>
<path d="" fill="#191919" transform="translate(0,0)"/>
<path d="" fill="#191919" transform="translate(0,0)"/>
<path d="" fill="#191919" transform="translate(0,0)"/>
<path d="" fill="#BAE2EE" transform="translate(0,0)"/>
</svg>
